<svg width="209" height="209" viewBox="0 0 209 209" fill="none" xmlns="http://www.w3.org/2000/svg">
<path d="M208.092 104.047C208.092 124.625 201.989 144.741 190.557 161.852C179.124 178.962 162.874 192.297 143.862 200.172C124.85 208.047 103.93 210.107 83.7471 206.093C63.5642 202.078 45.0251 192.168 30.4741 177.617C15.9231 163.066 6.01375 144.527 1.99919 124.344C-2.01537 104.161 0.0451479 83.241 7.92017 64.2291C15.7952 45.2172 29.131 28.9675 46.2413 17.5348C63.3515 6.10217 83.4677 5.75668e-09 104.046 4.80624e-09C117.71 -0.000131322 131.24 2.69104 143.863 7.91986C156.487 13.1487 167.957 20.8127 177.618 30.4744C187.28 40.1361 194.944 51.6062 200.173 64.2299C205.401 76.8535 208.092 90.3834 208.092 104.047Z" fill="white"/>
<path d="M166.849 84.001L206.349 85.159C202.736 65.318 193.394 46.9687 179.475 32.375H166.849V84.001Z" fill="#1139BC"/>
<path d="M58.8309 130.751L0.898926 117.784C3.34013 136.251 10.7137 153.719 22.2439 168.349L48.1329 177.539L58.8309 130.751Z" fill="#FFD143"/>
<path d="M100.631 80.212C100.446 82.067 102.139 83.751 104.409 83.977C106.677 84.201 108.666 82.877 108.85 81.025L111.766 51.585C111.95 49.731 110.257 48.044 107.99 47.82C105.718 47.596 103.731 48.92 103.548 50.772L100.631 80.212Z" fill="#F6B968"/>
<path d="M100.749 80.307L100.736 49.607C100.836 48.612 104.388 47.441 105.287 46.907L102.518 80.778C102.311 81.536 102.162 82.3085 102.071 83.089C101.633 82.7751 101.282 82.3552 101.051 81.8686C100.82 81.382 100.716 80.8447 100.749 80.307Z" fill="#EEAA59"/>
<path d="M92.8582 84.854C92.7502 86.713 94.5072 88.333 96.7852 88.465C99.0612 88.597 100.997 87.195 101.105 85.336L103.005 55.358C103.113 53.498 101.184 52.32 98.9052 52.187C96.6282 52.055 94.6952 53.455 94.5852 55.315L92.8582 84.854Z" fill="#F6B968"/>
<path d="M92.867 84.725L94.524 54.451C94.624 53.458 96.505 53.458 97.406 52.926L94.098 86.32C94.065 86.7197 94.096 87.1221 94.19 87.512C93.7515 87.1975 93.4001 86.7768 93.1687 86.2893C92.9373 85.8018 92.8335 85.2636 92.867 84.725Z" fill="#EEAA59"/>
<path d="M84.544 85.54C84.433 87.401 86.192 89.02 88.469 89.153C90.747 89.286 92.684 87.885 92.792 86.023L94.519 56.488C94.632 54.624 92.872 53.007 90.594 52.874C88.319 52.741 86.384 54.142 86.274 56.002L84.544 85.54Z" fill="#F6B968"/>
<path d="M182.316 77.016C182.606 76.7478 182.955 76.5503 183.334 76.439L183.48 73.998C183.483 73.876 183.511 73.7559 183.562 73.6448C183.612 73.5337 183.685 73.4339 183.775 73.3513C183.864 73.2687 183.97 73.2051 184.085 73.1641C184.2 73.1231 184.322 73.1057 184.444 73.1128C184.566 73.1199 184.685 73.1514 184.794 73.2055C184.904 73.2595 185.001 73.335 185.081 73.4275C185.161 73.5199 185.221 73.6275 185.258 73.7437C185.296 73.8599 185.309 73.9824 185.298 74.104L185.152 76.538C185.482 76.6806 185.779 76.8908 186.023 77.155C186.376 77.5355 186.608 78.0122 186.691 78.5247C186.773 79.0372 186.701 79.5625 186.484 80.0343C186.268 80.506 185.916 80.903 185.474 81.1749C185.032 81.4468 184.519 81.5815 184.001 81.5619C183.482 81.5423 182.981 81.3693 182.56 81.0648C182.14 80.7603 181.819 80.338 181.639 79.8513C181.459 79.3646 181.427 78.8353 181.547 78.3304C181.668 77.8256 181.935 77.3678 182.316 77.015V77.016Z" fill="#E2E2E2"/>
<path d="M191.109 76.322L191.252 73.877C191.273 73.6412 191.385 73.4228 191.565 73.2683C191.744 73.1137 191.976 73.035 192.213 73.0489C192.449 73.0628 192.671 73.1682 192.831 73.3428C192.991 73.5173 193.077 73.7473 193.07 73.984L192.927 76.42C193.256 76.563 193.553 76.7728 193.797 77.036C194.149 77.4165 194.381 77.8929 194.463 78.405C194.544 78.9171 194.473 79.4419 194.256 79.9132C194.04 80.3845 193.688 80.781 193.247 81.0526C192.805 81.3243 192.293 81.459 191.774 81.4395C191.256 81.4201 190.755 81.2475 190.335 80.9436C189.915 80.6396 189.594 80.2179 189.414 79.7318C189.233 79.2456 189.201 78.7169 189.32 78.2123C189.44 77.7078 189.707 77.25 190.087 76.897C190.379 76.6296 190.729 76.4329 191.109 76.322Z" fill="#E2E2E2"/>
<path d="M198.989 76.168L199.132 73.725C199.136 73.6031 199.164 73.4831 199.214 73.3721C199.265 73.2612 199.337 73.1615 199.427 73.0791C199.517 72.9967 199.623 72.9331 199.738 72.8923C199.853 72.8514 199.975 72.8341 200.096 72.8412C200.218 72.8484 200.337 72.8799 200.447 72.934C200.556 72.9881 200.653 73.0635 200.733 73.1559C200.813 73.2483 200.873 73.3558 200.91 73.4719C200.947 73.5881 200.961 73.7105 200.95 73.832L200.808 76.266C201.208 76.4399 201.558 76.7109 201.826 77.0543C202.095 77.3976 202.273 77.8026 202.346 78.2324C202.418 78.6622 202.382 79.1034 202.241 79.5157C202.1 79.9281 201.858 80.2987 201.537 80.594C201.284 80.8283 200.988 81.0106 200.665 81.1303C200.341 81.2501 199.997 81.305 199.653 81.2919C199.308 81.2788 198.97 81.198 198.657 81.054C198.343 80.9101 198.062 80.7059 197.827 80.453C197.593 80.2001 197.411 79.9036 197.291 79.5803C197.171 79.257 197.116 78.9133 197.129 78.5688C197.142 78.2243 197.223 77.8857 197.367 77.5725C197.511 77.2592 197.715 76.9773 197.968 76.743C198.26 76.4754 198.609 76.2787 198.989 76.168Z" fill="#E2E2E2"/>
<path d="M193.479 77.316C193.83 77.6923 194.062 78.1644 194.145 78.6725C194.227 79.1806 194.158 79.7018 193.944 80.1701C193.73 80.6385 193.382 81.0328 192.944 81.3031C192.506 81.5734 191.997 81.7076 191.483 81.6887C190.968 81.6697 190.471 81.4985 190.054 81.1967C189.637 80.8948 189.319 80.476 189.14 79.9932C188.962 79.5104 188.93 78.9855 189.05 78.4848C189.17 77.9842 189.436 77.5304 189.814 77.181C190.063 76.9492 190.356 76.7688 190.675 76.6501C190.995 76.5314 191.334 76.4768 191.674 76.4893C192.015 76.5019 192.349 76.5813 192.659 76.7232C192.968 76.865 193.247 77.0665 193.479 77.316Z" fill="white"/>
<path d="M201.294 77.222C201.645 77.5983 201.877 78.0705 201.96 78.5787C202.043 79.0869 201.973 79.6083 201.759 80.0767C201.545 80.5451 201.197 80.9395 200.759 81.2098C200.321 81.4801 199.812 81.6142 199.297 81.5951C198.783 81.576 198.286 81.4046 197.869 81.1025C197.452 80.8004 197.134 80.3813 196.955 79.8983C196.777 79.4153 196.746 78.8902 196.866 78.3895C196.986 77.8889 197.252 77.4352 197.631 77.086C198.136 76.6203 198.804 76.3732 199.49 76.3987C200.177 76.4242 200.825 76.7202 201.294 77.222Z" fill="white"/>
<path d="M185.729 77.415C186.078 77.7909 186.308 78.2619 186.389 78.7684C186.471 79.2749 186.4 79.7943 186.187 80.2607C185.973 80.7271 185.626 81.1198 185.189 81.3889C184.752 81.658 184.246 81.7916 183.733 81.7727C183.22 81.7539 182.725 81.5834 182.309 81.2828C181.893 80.9823 181.576 80.5652 181.397 80.0843C181.218 79.6034 181.186 79.0803 181.305 78.5811C181.423 78.082 181.687 77.6292 182.063 77.28C182.312 77.0474 182.605 76.8664 182.924 76.7472C183.244 76.6281 183.583 76.5732 183.924 76.5858C184.265 76.5983 184.599 76.678 184.909 76.8203C185.219 76.9626 185.497 77.1647 185.729 77.415Z" fill="white"/>
<path d="M112.387 38.527C110.087 39.34 83.0733 53.905 82.3243 57.8C81.6863 61.109 81.9243 81.675 82.0983 87.332C82.0983 87.511 82.0983 88.041 82.0983 88.041C82.2397 89.1621 82.7854 90.1931 83.633 90.9404C84.4806 91.6878 85.5717 92.1001 86.7018 92.1001C87.8318 92.1001 88.9229 91.6878 89.7705 90.9404C90.6181 90.1931 91.1638 89.1621 91.3053 88.041V64.416C91.4508 63.8628 91.7126 63.347 92.0732 62.903C93.6442 61.555 106.78 55.397 113.073 54.977L120.909 46.248L112.667 38.468C112.572 38.4801 112.479 38.4999 112.387 38.527Z" fill="#FFCC90"/>
<path d="M85.2209 88.52C84.7771 88.7189 84.2972 88.8247 83.8109 88.831C83.8109 88.831 83.8109 88.831 83.8049 88.831C83.7989 88.831 83.7999 88.831 83.7969 88.831C83.3043 88.8297 82.8168 88.7319 82.3619 88.543C82.2729 86.628 82.1219 83.763 82.6219 82.649C82.6778 82.4639 82.7918 82.3017 82.947 82.1864C83.1023 82.0711 83.2905 82.0089 83.4839 82.009C83.4839 82.009 83.4909 82.009 83.4929 82.009V82.014C83.6916 82.0139 83.8858 82.0735 84.0502 82.1851C84.2146 82.2968 84.3417 82.4552 84.4149 82.64C85.0239 83.736 85.1329 86.604 85.2209 88.52Z" fill="#FFE0BC"/>
<path d="M83.121 56.912C83.0796 56.9825 83.0669 57.0663 83.0855 57.146C83.1041 57.2256 83.1526 57.2951 83.221 57.34L84.863 58.46C84.9286 58.5049 85.0094 58.522 85.0877 58.5074C85.1659 58.4927 85.235 58.4476 85.28 58.382C85.3219 58.3116 85.3349 58.2276 85.3162 58.1478C85.2976 58.0681 85.2488 57.9986 85.18 57.954L83.544 56.834C83.5118 56.8106 83.4753 56.794 83.4365 56.7852C83.3977 56.7763 83.3576 56.7755 83.3185 56.7827C83.2793 56.7899 83.2421 56.805 83.209 56.8271C83.1759 56.8491 83.1477 56.8777 83.126 56.911L83.121 56.912Z" fill="#FFE0BC"/>
<path d="M82.4592 57.962C82.4176 58.0325 82.4041 58.1161 82.4214 58.1961C82.4386 58.2762 82.4853 58.3468 82.5522 58.394L84.1922 59.513C84.2248 59.5354 84.2614 59.5512 84.3001 59.5594C84.3387 59.5676 84.3786 59.5681 84.4174 59.5608C84.4563 59.5536 84.4933 59.5387 84.5264 59.5171C84.5595 59.4955 84.588 59.4676 84.6102 59.435C84.6516 59.3646 84.6642 59.281 84.6456 59.2015C84.627 59.122 84.5785 59.0527 84.5102 59.008L82.8722 57.886C82.8404 57.8628 82.8042 57.8463 82.7658 57.8375C82.7274 57.8287 82.6876 57.8279 82.6489 57.835C82.6102 57.8421 82.5733 57.857 82.5405 57.8789C82.5077 57.9007 82.4797 57.929 82.4582 57.962H82.4592Z" fill="#FFE0BC"/>
<path d="M58.5314 62.4702L51.4409 101.603L137.334 117.166L144.425 78.0332L58.5314 62.4702Z" fill="#C1E4EA"/>
<path d="M134.221 113.553L55.6211 99.313L61.6421 66.083L140.242 80.324L134.221 113.553ZM59.1491 96.868L131.776 110.027L136.717 82.767L64.0871 69.607L59.1491 96.868Z" fill="#2A7B6D"/>
<path d="M78.2118 86.245C78.0312 87.2371 77.5606 88.1534 76.8594 88.8781C76.1582 89.6028 75.2579 90.1034 74.2723 90.3165C73.2867 90.5297 72.26 90.4459 71.322 90.0757C70.384 89.7055 69.5768 89.0656 69.0025 88.2368C68.4281 87.408 68.1123 86.4275 68.095 85.4192C68.0777 84.411 68.3597 83.4202 68.9053 82.5722C69.451 81.7242 70.2358 81.0569 71.1605 80.6548C72.0853 80.2527 73.1085 80.1338 74.1008 80.313C74.7605 80.4322 75.3901 80.6802 75.9538 81.0429C76.5175 81.4056 77.0042 81.8759 77.386 82.4268C77.7678 82.9777 78.0373 83.5985 78.179 84.2537C78.3207 84.9089 78.3318 85.5855 78.2118 86.245Z" fill="#2A7B6D"/>
<path d="M127.697 95.212C127.516 96.2039 127.045 97.1199 126.344 97.8443C125.643 98.5688 124.743 99.0691 123.757 99.2821C122.772 99.4951 121.745 99.4112 120.807 99.0411C119.869 98.6709 119.062 98.0311 118.488 97.2025C117.914 96.3738 117.598 95.3935 117.58 94.3855C117.563 93.3774 117.845 92.3868 118.39 91.5387C118.935 90.6907 119.72 90.0234 120.644 89.621C121.569 89.2186 122.592 89.0992 123.584 89.278C124.244 89.3969 124.874 89.6448 125.438 90.0076C126.002 90.3703 126.489 90.8407 126.871 91.3919C127.253 91.9431 127.523 92.5642 127.664 93.2197C127.806 93.8752 127.817 94.5522 127.697 95.212Z" fill="#2A7B6D"/>
<path d="M109.652 91.94C109.233 94.2576 108.135 96.3988 106.499 98.0929C104.863 99.7869 102.761 100.958 100.459 101.457C98.1573 101.957 95.7592 101.762 93.5678 100.899C91.3765 100.036 89.4904 98.5419 88.148 96.6066C86.8056 94.6713 86.0673 92.3814 86.0262 90.0265C85.9852 87.6716 86.6434 85.3574 87.9175 83.3765C89.1917 81.3956 91.0246 79.8371 93.1845 78.8979C95.3444 77.9587 97.7343 77.681 100.052 78.1C101.591 78.3783 103.06 78.957 104.376 79.8031C105.691 80.6493 106.827 81.7463 107.719 83.0315C108.61 84.3167 109.24 85.7649 109.572 87.2935C109.903 88.822 109.931 90.4009 109.652 91.94Z" fill="#2A7B6D"/>
<path d="M112.67 38.467L113.077 54.975C114.072 54.796 115.098 54.9984 115.951 55.542C120.169 59.362 119.71 62.487 116.673 67.369C114.901 70.22 112.5 73.032 109.627 78.398C103.292 90.245 107.603 90.698 109.812 92.098C113.783 94.626 120.404 79.898 125.882 75.849C133.292 70.373 143.125 63.574 143.125 63.574H166.848V38.527C166.848 38.527 117.353 37.756 112.67 38.467Z" fill="#FFCC90"/>
<path d="M112.675 89.819C111.809 89.4053 110.989 88.9026 110.227 88.319C110.22 88.319 110.22 88.313 110.215 88.31C110.21 88.307 110.207 88.31 110.205 88.3C109.444 87.7162 108.746 87.0542 108.122 86.325C109.287 84.801 111.002 82.5 112.555 82.292C112.88 82.2622 113.208 82.2989 113.518 82.3998C113.829 82.5007 114.116 82.6638 114.361 82.879H114.366C114.371 82.879 114.371 82.879 114.374 82.887C114.377 82.895 114.383 82.894 114.388 82.894C114.66 83.0755 114.892 83.3104 115.07 83.5844C115.248 83.8585 115.369 84.1659 115.424 84.488C115.625 86.044 113.842 88.297 112.675 89.819Z" fill="#FFE0BC"/>
<path d="M117.171 73.517C117.083 73.657 117.242 73.917 117.534 74.108L120.88 76.273C121.169 76.46 121.48 76.498 121.565 76.363C121.658 76.224 121.493 75.963 121.201 75.772L117.862 73.607C117.572 73.417 117.262 73.379 117.171 73.518V73.517Z" fill="#FFE0BC"/>
<path d="M116.498 74.561C116.406 74.702 116.57 74.966 116.855 75.153L120.198 77.318C120.49 77.505 120.798 77.546 120.888 77.41C120.977 77.269 120.814 77.004 120.524 76.815L117.182 74.649C116.892 74.463 116.582 74.423 116.498 74.561Z" fill="#FFE0BC"/>
<path d="M166.849 33.766H153.855V73.367H166.849V33.766Z" fill="#F2EBEC"/>
<path d="M113.44 149.851C112.969 150.628 112.209 151.185 111.326 151.402C110.444 151.618 109.512 151.475 108.735 151.005C107.958 150.533 107.4 149.772 107.184 148.889C106.968 148.006 107.111 147.073 107.583 146.296L114.336 135.167C114.569 134.782 114.876 134.447 115.239 134.181C115.601 133.915 116.013 133.722 116.45 133.615C116.887 133.508 117.341 133.488 117.785 133.556C118.23 133.625 118.657 133.78 119.042 134.013C119.817 134.484 120.374 135.244 120.59 136.125C120.806 137.006 120.664 137.937 120.194 138.713L113.44 149.851Z" fill="#F6B968"/>
<path d="M99.415 156.664C97.672 157.403 91.252 158.423 90.515 156.677L88.998 155.061C88.259 153.321 85.877 147.68 87.432 148.761C95.341 154.248 108.739 145.286 108.739 145.286C109.153 145.111 109.598 145.019 110.048 145.016C110.498 145.013 110.943 145.099 111.36 145.268C111.777 145.437 112.156 145.687 112.476 146.003C112.796 146.319 113.051 146.695 113.226 147.109C113.579 147.945 113.586 148.887 113.245 149.728C112.903 150.569 112.242 151.24 111.406 151.593L99.415 156.664Z" fill="#F6B968"/>
<path d="M103.233 153.627L114.515 147.387C114.886 147.185 115.214 146.913 115.482 146.587C115.84 146.288 116.129 145.915 116.329 145.494L120.294 135.448C120.566 134.881 114.694 144.585 114.694 144.585L97.333 155.264C99.3731 155.03 101.364 154.478 103.233 153.627Z" fill="#EEAA59"/>
<path d="M121.87 148.553C121.494 149.38 120.805 150.024 119.954 150.343C119.103 150.661 118.16 150.629 117.333 150.253C116.506 149.877 115.862 149.187 115.543 148.336C115.225 147.485 115.257 146.542 115.633 145.715L121.02 133.862C121.397 133.036 122.086 132.392 122.936 132.074C123.786 131.755 124.728 131.787 125.555 132.162C126.382 132.539 127.026 133.228 127.344 134.079C127.663 134.93 127.631 135.873 127.255 136.7L121.87 148.553Z" fill="#F6B968"/>
<path d="M108.747 156.979C107.103 157.918 100.847 159.691 99.9143 158.048L98.2143 156.621C97.2773 154.977 98.9242 154.548 100.566 153.606L116.658 144.575C117.049 144.352 117.48 144.207 117.926 144.151C118.373 144.094 118.826 144.126 119.26 144.244C119.694 144.363 120.101 144.566 120.456 144.842C120.812 145.118 121.11 145.461 121.332 145.852C121.555 146.243 121.7 146.673 121.756 147.12C121.813 147.566 121.781 148.019 121.663 148.453C121.544 148.887 121.341 149.294 121.066 149.649C120.79 150.005 120.447 150.303 120.056 150.526L108.747 156.979Z" fill="#F6B968"/>
<path d="M108.847 153.992L120.13 147.756C120.499 147.551 120.828 147.28 121.098 146.956C121.453 146.652 121.742 146.277 121.945 145.856L127.361 134.478C127.619 133.937 127.716 133.333 127.641 132.738L120.307 144.95L102.938 155.633C104.982 155.399 106.976 154.846 108.847 153.992Z" fill="#EEAA59"/>
<path d="M127.799 148.617C127.422 149.444 126.733 150.087 125.882 150.405C125.032 150.724 124.089 150.692 123.262 150.317C122.435 149.941 121.792 149.251 121.473 148.401C121.155 147.55 121.187 146.608 121.562 145.781L126.95 133.929C127.136 133.519 127.401 133.15 127.73 132.843C128.059 132.536 128.445 132.296 128.866 132.138C129.288 131.98 129.736 131.907 130.186 131.923C130.635 131.938 131.078 132.042 131.487 132.229C132.314 132.605 132.958 133.295 133.277 134.146C133.596 134.997 133.563 135.94 133.187 136.767L127.799 148.617Z" fill="#F6B968"/>
<path d="M114.679 157.043C113.034 157.982 106.779 159.756 105.843 158.111L104.143 156.682C103.205 155.04 104.853 154.607 106.495 153.672L122.587 144.638C122.977 144.415 123.408 144.271 123.854 144.215C124.3 144.158 124.753 144.19 125.187 144.309C125.621 144.427 126.027 144.631 126.382 144.906C126.737 145.182 127.034 145.525 127.257 145.916C127.48 146.306 127.625 146.737 127.681 147.183C127.738 147.63 127.707 148.083 127.588 148.517C127.47 148.951 127.267 149.357 126.992 149.713C126.716 150.068 126.374 150.366 125.983 150.589L114.679 157.043Z" fill="#F6B968"/>
<path d="M124.591 158.028C122.791 159.514 119.899 158.982 118.131 156.84C117.734 156.402 117.431 155.887 117.238 155.328C117.046 154.769 116.969 154.177 117.013 153.587C117.056 152.998 117.218 152.423 117.49 151.898C117.762 151.373 118.138 150.909 118.594 150.533L133.606 139.015C135.849 137.527 138.886 136.499 140.406 138.475C142.382 141.029 140.117 143.768 137.573 146.159L124.591 158.028Z" fill="#FFCC90"/>
<path d="M118.593 150.531C116.658 151.502 99.048 154.862 96.9491 151.731C94.1921 147.631 95.2331 145.099 98.8111 141.621C100.898 139.59 103.511 137.721 107.052 133.803C114.865 125.153 111.533 123.609 109.764 122.225C106.544 119.71 98.296 130.284 92.83 132.551C85.445 135.609 75.741 139.282 75.741 139.282L58.832 135.294L54.269 156.405C54.269 156.405 94.283 167.005 96.392 166.805C98.292 166.623 119.092 161.874 124.534 158.074L119.067 150.09C118.938 150.266 118.778 150.415 118.593 150.531Z" fill="#FFCC90"/>
<path d="M58.544 132.013L50.334 167.906L62.1099 170.6L70.3199 134.707L58.544 132.013Z" fill="#F2EBEC"/>
<path d="M41.7423 167.506C41.5545 167.189 41.2974 166.919 40.9903 166.716L41.5223 164.507C41.5499 164.398 41.5557 164.286 41.5393 164.175C41.523 164.064 41.4849 163.958 41.4271 163.862C41.3694 163.766 41.2932 163.682 41.2029 163.616C41.1127 163.549 41.0102 163.502 40.9014 163.475C40.7926 163.449 40.6796 163.444 40.569 163.462C40.4584 163.479 40.3524 163.518 40.257 163.577C40.1617 163.636 40.079 163.713 40.0136 163.804C39.9482 163.895 39.9016 163.998 39.8763 164.107L39.3443 166.307C38.9425 166.354 38.5587 166.501 38.2276 166.733C37.8965 166.966 37.6284 167.277 37.4474 167.639C37.2665 168 37.1784 168.402 37.1911 168.806C37.2039 169.21 37.317 169.605 37.5203 169.955C37.8503 170.505 38.3835 170.903 39.0046 171.063C39.6258 171.223 40.2849 171.132 40.8395 170.81C41.3942 170.488 41.7997 169.96 41.9684 169.341C42.1372 168.722 42.0556 168.062 41.7413 167.503L41.7423 167.506Z" fill="#A83A48"/>
<path d="M34.1109 164.501L34.6469 162.29C34.6966 162.073 34.6587 161.845 34.5414 161.655C34.4242 161.465 34.2369 161.33 34.0203 161.277C33.8036 161.224 33.575 161.259 33.3838 161.374C33.1927 161.489 33.0544 161.674 32.9989 161.89L32.4669 164.09C32.1355 164.126 31.8154 164.232 31.5279 164.401C31.0629 164.666 30.6969 165.075 30.4854 165.566C30.2739 166.058 30.2285 166.605 30.356 167.124C30.4836 167.644 30.7771 168.108 31.1921 168.445C31.6071 168.783 32.121 168.976 32.6557 168.996C33.1904 169.015 33.7168 168.859 34.155 168.552C34.5932 168.245 34.9193 167.804 35.0839 167.295C35.2485 166.785 35.2426 166.237 35.067 165.731C34.8914 165.226 34.5557 164.791 34.1109 164.494V164.501Z" fill="#A83A48"/>
<path d="M27.142 162.227L27.678 160.018C27.7051 159.91 27.7105 159.797 27.694 159.687C27.6774 159.577 27.6392 159.471 27.5815 159.375C27.5238 159.28 27.4478 159.196 27.3578 159.13C27.2679 159.064 27.1657 159.017 27.0573 158.99C26.9489 158.964 26.8364 158.959 26.7261 158.977C26.6159 158.994 26.5102 159.033 26.4151 159.091C26.32 159.15 26.2373 159.226 26.1719 159.317C26.1065 159.407 26.0596 159.509 26.034 159.618L25.5 161.818C25.1675 161.854 24.8463 161.96 24.557 162.128C24.1394 162.37 23.8031 162.731 23.5905 163.165C23.378 163.598 23.2988 164.085 23.363 164.564C23.4271 165.042 23.6318 165.491 23.951 165.853C24.2702 166.215 24.6897 166.475 25.1564 166.599C25.6231 166.722 26.116 166.705 26.5728 166.549C27.0296 166.392 27.4298 166.104 27.7227 165.72C28.0157 165.336 28.1882 164.874 28.2185 164.392C28.2488 163.911 28.1355 163.43 27.893 163.013C27.7071 162.696 27.4499 162.427 27.142 162.227Z" fill="#A83A48"/>
<path d="M31.7303 164.745C31.3183 164.985 30.9868 165.342 30.7778 165.771C30.5687 166.2 30.4914 166.681 30.5557 167.153C30.62 167.626 30.8229 168.069 31.1389 168.426C31.4548 168.784 31.8696 169.039 32.3308 169.161C32.792 169.282 33.2789 169.264 33.7299 169.109C34.1809 168.954 34.5759 168.669 34.8648 168.289C35.1537 167.91 35.3236 167.453 35.3531 166.977C35.3825 166.501 35.2702 166.027 35.0303 165.615C34.8707 165.341 34.6588 165.101 34.4066 164.91C34.1544 164.718 33.8669 164.577 33.5605 164.496C33.254 164.416 32.9347 164.396 32.6206 164.439C32.3066 164.481 32.0041 164.585 31.7303 164.745Z" fill="#702730"/>
<path d="M24.807 162.538C24.3948 162.778 24.0629 163.134 23.8532 163.562C23.6435 163.991 23.5654 164.471 23.6289 164.944C23.6923 165.417 23.8944 165.86 24.2096 166.218C24.5249 166.575 24.9391 166.832 25.3999 166.954C25.8608 167.077 26.3476 167.06 26.7988 166.906C27.2501 166.752 27.6455 166.467 27.9352 166.089C28.2249 165.71 28.3959 165.254 28.4265 164.778C28.457 164.302 28.3459 163.828 28.107 163.415C27.948 163.141 27.7364 162.9 27.4845 162.708C27.2326 162.515 26.9452 162.374 26.6387 162.293C26.3323 162.211 26.0128 162.191 25.6985 162.233C25.3842 162.275 25.0813 162.379 24.807 162.538Z" fill="#702730"/>
<path d="M38.594 166.934C38.1815 167.174 37.8492 167.53 37.6393 167.959C37.4293 168.387 37.3511 168.868 37.4145 169.341C37.4778 169.814 37.68 170.257 37.9954 170.616C38.3108 170.974 38.7252 171.23 39.1863 171.353C39.6474 171.475 40.1345 171.458 40.586 171.304C41.0375 171.15 41.4332 170.865 41.723 170.486C42.0128 170.107 42.1837 169.651 42.2141 169.174C42.2446 168.698 42.1332 168.224 41.894 167.811C41.7354 167.536 41.524 167.296 41.2721 167.103C41.0202 166.91 40.7327 166.769 40.4261 166.687C40.1196 166.606 39.7999 166.586 39.4855 166.628C39.1711 166.67 38.8682 166.774 38.594 166.934Z" fill="#702730"/>
<path d="M110.132 126.595C109.709 125.984 109.223 125.418 108.683 124.907C108.683 124.907 108.678 124.907 108.676 124.9C108.674 124.893 108.676 124.9 108.664 124.892C108.125 124.382 107.533 123.931 106.898 123.546C105.876 124.624 104.332 126.219 104.361 127.431C104.378 127.684 104.447 127.93 104.563 128.155C104.679 128.38 104.839 128.579 105.035 128.739C105.035 128.745 105.035 128.745 105.04 128.748L105.049 128.758C105.221 128.944 105.429 129.093 105.661 129.196C105.892 129.299 106.142 129.354 106.395 129.358C107.605 129.316 109.113 127.677 110.132 126.595Z" fill="#FFE0BC"/>
<path d="M140.069 142.776C139.847 142.365 139.559 141.993 139.215 141.676C139.215 141.676 139.215 141.676 139.215 141.669C139.215 141.662 139.21 141.669 139.206 141.669C138.858 141.352 138.46 141.093 138.029 140.904C137 141.974 135.446 143.564 135.243 144.546C135.199 144.715 135.204 144.892 135.257 145.058C135.31 145.224 135.409 145.371 135.543 145.483C135.543 145.49 135.543 145.483 135.548 145.49C135.553 145.497 135.548 145.49 135.548 145.496C135.675 145.62 135.834 145.707 136.006 145.747C136.179 145.787 136.36 145.779 136.528 145.724C137.516 145.466 139.04 143.851 140.069 142.776Z" fill="#FFE0BC"/>
<path d="M97.6612 132.424C97.7782 132.324 98.0442 132.43 98.2612 132.668L100.745 135.417C100.96 135.655 101.039 135.932 100.927 136.036C100.814 136.136 100.546 136.03 100.327 135.789L97.8442 133.044C97.6272 132.808 97.5442 132.527 97.6592 132.425L97.6612 132.424Z" fill="#FFE0BC"/>
<path d="M98.521 131.653C98.638 131.553 98.905 131.653 99.121 131.891L101.605 134.64C101.819 134.879 101.905 135.156 101.788 135.259C101.673 135.359 101.405 135.251 101.188 135.012L98.708 132.263C98.491 132.028 98.408 131.749 98.523 131.652L98.521 131.653Z" fill="#FFE0BC"/>
<path d="M121.222 155.259C121.351 155.179 121.563 155.276 121.694 155.474L123.2 157.788C123.329 157.988 123.329 158.219 123.2 158.299C123.07 158.385 122.859 158.283 122.728 158.084L121.222 155.774C121.09 155.574 121.093 155.343 121.222 155.26V155.259Z" fill="#FFE0BC"/>
<path d="M122.201 154.645C122.332 154.563 122.544 154.658 122.674 154.857L124.179 157.174C124.31 157.374 124.31 157.605 124.179 157.686C124.049 157.768 123.837 157.672 123.707 157.471L122.201 155.16C122.071 154.96 122.071 154.73 122.201 154.65V154.645Z" fill="#FFE0BC"/>
</svg>
