<svg width="9" height="16" viewBox="0 0 9 16" fill="none" xmlns="http://www.w3.org/2000/svg">
<path d="M7.61883 15.17C7.47552 15.1708 7.33346 15.1433 7.20081 15.0891C7.06815 15.0349 6.94752 14.955 6.84583 14.854L0.316831 8.325C0.114214 8.12115 0.000488281 7.84541 0.000488281 7.558C0.000488281 7.27058 0.114214 6.99484 0.316831 6.791L6.84583 0.261997C7.05399 0.0839755 7.32164 -0.00898353 7.59533 0.00168007C7.86902 0.0123437 8.12863 0.125845 8.32231 0.319523C8.51598 0.513201 8.62948 0.772803 8.64015 1.0465C8.65081 1.32019 8.55785 1.58784 8.37983 1.796L2.62283 7.553L8.37983 13.31C8.53281 13.4615 8.63739 13.655 8.68034 13.866C8.72328 14.077 8.70265 14.296 8.62106 14.4953C8.53947 14.6945 8.40059 14.8651 8.222 14.9854C8.04341 15.1057 7.83315 15.1703 7.61783 15.171L7.61883 15.17Z" fill="#161616"/>
</svg>
