<svg width="32" height="28" viewBox="0 0 32 28" fill="none" xmlns="http://www.w3.org/2000/svg">
<path d="M29.962 25.4912H1.79047C1.60207 25.4865 1.4145 25.515 1.23887 25.5749C1.06324 25.6348 0.903107 25.725 0.767949 25.8401C0.632791 25.9552 0.525351 26.0929 0.451986 26.245C0.378621 26.3971 0.34082 26.5606 0.34082 26.7257C0.34082 26.8909 0.378621 27.0543 0.451986 27.2064C0.525351 27.3586 0.632791 27.4962 0.767949 27.6113C0.903107 27.7264 1.06324 27.8166 1.23887 27.8765C1.4145 27.9365 1.60207 27.9649 1.79047 27.9602H29.962C30.3287 27.9511 30.677 27.817 30.9327 27.5865C31.1884 27.356 31.3314 27.0472 31.3314 26.7257C31.3314 26.4043 31.1884 26.0955 30.9327 25.865C30.677 25.6344 30.3287 25.5004 29.962 25.4912Z" fill="#3422F2"/>
<path d="M3.547 22.282C3.17316 22.282 2.81464 22.4121 2.5503 22.6437C2.28596 22.8753 2.13745 23.1894 2.13745 23.517C2.13745 23.8445 2.28596 24.1586 2.5503 24.3902C2.81464 24.6218 3.17316 24.752 3.547 24.752H28.1998C28.5736 24.752 28.9322 24.6218 29.1965 24.3902C29.4608 24.1586 29.6093 23.8445 29.6093 23.517C29.6093 23.1894 29.4608 22.8753 29.1965 22.6437C28.9322 22.4121 28.5736 22.282 28.1998 22.282H27.8483V11.173H28.1998C28.2946 11.1763 28.3892 11.1628 28.4779 11.1334C28.5666 11.1039 28.6476 11.059 28.716 11.0014C28.7844 10.9439 28.8388 10.8748 28.876 10.7983C28.9132 10.7218 28.9323 10.6396 28.9323 10.5565C28.9323 10.4733 28.9132 10.3911 28.876 10.3146C28.8388 10.2381 28.7844 10.1691 28.716 10.1115C28.6476 10.0539 28.5666 10.009 28.4779 9.97955C28.3892 9.95008 28.2946 9.93661 28.1998 9.93995H3.547C3.45221 9.93661 3.35763 9.95008 3.26893 9.97955C3.18023 10.009 3.09925 10.0539 3.03083 10.1115C2.96242 10.1691 2.90798 10.2381 2.8708 10.3146C2.83362 10.3911 2.81445 10.4733 2.81445 10.5565C2.81445 10.6396 2.83362 10.7218 2.8708 10.7983C2.90798 10.8748 2.96242 10.9439 3.03083 11.0014C3.09925 11.059 3.18023 11.1039 3.26893 11.1334C3.35763 11.1628 3.45221 11.1763 3.547 11.173H3.89967V22.281H3.547V22.282ZM25.0326 11.173V22.281H20.8097V11.173H25.0326ZM17.9894 11.173V22.281H13.7665V11.173H17.9894ZM6.72105 11.173H10.944V22.281H6.7199L6.72105 11.173Z" fill="#3422F2"/>
<path d="M1.78935 8.83004H29.9803C30.312 8.82774 30.6322 8.723 30.8845 8.53425C31.1368 8.34549 31.305 8.08482 31.3595 7.79811C31.414 7.5114 31.3514 7.21703 31.1826 6.96679C31.0139 6.71655 30.7498 6.52648 30.4368 6.43004L16.4555 0.917043C16.2737 0.845554 16.0767 0.808594 15.8774 0.808594C15.6781 0.808594 15.4811 0.845554 15.2993 0.917043L1.21184 6.47004C0.917586 6.58564 0.67752 6.7862 0.53175 7.03823C0.385979 7.29026 0.343334 7.57848 0.410938 7.85474C0.478542 8.13101 0.652301 8.37857 0.903185 8.55609C1.15407 8.7336 1.46688 8.83031 1.78935 8.83004Z" fill="#3422F2"/>
</svg>
