<svg width="19" height="20" viewBox="0 0 19 20" fill="none" xmlns="http://www.w3.org/2000/svg">
<path d="M14.7229 9.82794H16.0729C16.2197 9.82768 16.3605 9.76922 16.4643 9.66539C16.5682 9.56155 16.6266 9.42079 16.6269 9.27394V7.92294C16.6266 7.77609 16.5682 7.63533 16.4643 7.5315C16.3605 7.42766 16.2197 7.36921 16.0729 7.36894H14.7229C14.5761 7.36921 14.4353 7.42766 14.3315 7.5315C14.2276 7.63533 14.1692 7.77609 14.1689 7.92294V9.27394C14.1692 9.42079 14.2276 9.56155 14.3315 9.66539C14.4353 9.76922 14.5761 9.82768 14.7229 9.82794ZM14.7369 7.93594H16.0609V9.26094H14.7369V7.93594ZM14.7229 13.4219H16.0729C16.2197 13.4217 16.3605 13.3632 16.4643 13.2594C16.5682 13.1555 16.6266 13.0148 16.6269 12.8679V11.5149C16.6266 11.3681 16.5682 11.2273 16.4643 11.1235C16.3605 11.0197 16.2197 10.9612 16.0729 10.9609H14.7229C14.5761 10.9612 14.4353 11.0197 14.3315 11.1235C14.2276 11.2273 14.1692 11.3681 14.1689 11.5149V12.8659C14.1688 12.9388 14.183 13.011 14.2108 13.0784C14.2385 13.1458 14.2793 13.207 14.3308 13.2587C14.3822 13.3103 14.4433 13.3513 14.5106 13.3793C14.5779 13.4073 14.65 13.4218 14.7229 13.4219ZM14.7369 11.5299H16.0609V12.8549H14.7369V11.5299ZM10.8679 9.82994H12.2189C12.3657 9.82968 12.5065 9.77122 12.6103 9.66739C12.7142 9.56355 12.7726 9.42279 12.7729 9.27594V7.92294C12.7726 7.77609 12.7142 7.63533 12.6103 7.5315C12.5065 7.42766 12.3657 7.36921 12.2189 7.36894H10.8679C10.7211 7.36921 10.5803 7.42766 10.4765 7.5315C10.3726 7.63533 10.3142 7.77609 10.3139 7.92294V9.27394C10.3142 9.42079 10.3726 9.56155 10.4765 9.66539C10.5803 9.76922 10.7211 9.82768 10.8679 9.82794V9.82994ZM10.8819 7.93794H12.2059V9.26094H10.8809L10.8819 7.93794ZM4.5079 14.3899H3.1559C3.00905 14.3902 2.86829 14.4487 2.76446 14.5525C2.66062 14.6563 2.60217 14.7971 2.6019 14.9439V16.2949C2.60217 16.4418 2.66062 16.5825 2.76446 16.6864C2.86829 16.7902 3.00905 16.8487 3.1559 16.8489H4.5069C4.65375 16.8487 4.79451 16.7902 4.89835 16.6864C5.00218 16.5825 5.06064 16.4418 5.0609 16.2949V14.9429C5.06064 14.7963 5.00232 14.6557 4.8987 14.5518C4.79508 14.448 4.65458 14.3895 4.5079 14.3889V14.3899ZM4.4939 16.2819H3.1729V14.9559H4.4969L4.4939 16.2819ZM4.5079 7.37094H3.1559C3.00905 7.37121 2.86829 7.42966 2.76446 7.5335C2.66062 7.63733 2.60217 7.77809 2.6019 7.92494V9.27394C2.60217 9.42079 2.66062 9.56155 2.76446 9.66539C2.86829 9.76922 3.00905 9.82768 3.1559 9.82794H4.5069C4.65375 9.82768 4.79451 9.76922 4.89835 9.66539C5.00218 9.56155 5.06064 9.42079 5.0609 9.27394V7.92294C5.06064 7.77627 5.00232 7.63566 4.8987 7.53185C4.79508 7.42804 4.65458 7.36947 4.5079 7.36894V7.37094ZM4.4939 9.26294H3.1729V7.93594H4.4969L4.4939 9.26294ZM10.8679 13.3399H12.2189C12.3657 13.3397 12.5065 13.2812 12.6103 13.1774C12.7142 13.0735 12.7726 12.9328 12.7729 12.7859V11.4329C12.7726 11.2861 12.7142 11.1453 12.6103 11.0415C12.5065 10.9377 12.3657 10.8792 12.2189 10.8789H10.8679C10.7211 10.8792 10.5803 10.9377 10.4765 11.0415C10.3726 11.1453 10.3142 11.2861 10.3139 11.4329V12.7839C10.3142 12.9308 10.3726 13.0715 10.4765 13.1754C10.5803 13.2792 10.7211 13.3377 10.8679 13.3379V13.3399ZM10.8819 11.4479H12.2059V12.7719H10.8809L10.8819 11.4479ZM16.9099 1.61494H15.6969V1.17794C15.6966 0.949141 15.6056 0.729787 15.4438 0.568001C15.2821 0.406214 15.0627 0.315206 14.8339 0.314941L14.7039 0.314941C14.4751 0.315206 14.2557 0.406214 14.094 0.568001C13.9322 0.729787 13.8412 0.949141 13.8409 1.17794V1.61494H5.3899V1.17794C5.38964 0.949141 5.29863 0.729787 5.13684 0.568001C4.97506 0.406214 4.7557 0.315206 4.5269 0.314941L4.3969 0.314941C4.1681 0.315206 3.94875 0.406214 3.78696 0.568001C3.62517 0.729787 3.53417 0.949141 3.5339 1.17794V1.61494H2.3209C1.94411 1.61521 1.58283 1.765 1.31639 2.03144C1.04996 2.29787 0.900167 2.65915 0.899902 3.03594V18.2659C0.900167 18.6422 1.04975 19.003 1.31581 19.269C1.58187 19.5351 1.94264 19.6847 2.3189 19.6849H16.9119C17.2882 19.6847 17.6489 19.5351 17.915 19.269C18.1811 19.003 18.3306 18.6422 18.3309 18.2659V3.03194C18.3296 2.65584 18.1793 2.29559 17.913 2.03002C17.6467 1.76445 17.286 1.6152 16.9099 1.61494ZM14.4099 1.18094C14.4099 1.10138 14.4415 1.02507 14.4978 0.968809C14.554 0.912548 14.6303 0.880941 14.7099 0.880941H14.8399C14.9195 0.880941 14.9958 0.912548 15.052 0.968809C15.1083 1.02507 15.1399 1.10138 15.1399 1.18094V1.61494H14.4189L14.4099 1.18094ZM4.1019 1.18094C4.1019 1.10138 4.13351 1.02507 4.18977 0.968809C4.24603 0.912548 4.32234 0.880941 4.4019 0.880941H4.5319C4.61147 0.880941 4.68777 0.912548 4.74403 0.968809C4.80029 1.02507 4.8319 1.10138 4.8319 1.18094V1.61494H4.1109V1.17794L4.1019 1.18094ZM17.7639 18.2659C17.7636 18.4916 17.6739 18.7079 17.5144 18.8674C17.3548 19.0269 17.1385 19.1167 16.9129 19.1169H2.3189C2.09328 19.1167 1.87698 19.0269 1.71745 18.8674C1.55791 18.7079 1.46817 18.4916 1.4679 18.2659C1.71348 18.4517 2.013 18.5521 2.3209 18.5519H13.8209C14.0068 18.5519 14.1908 18.5151 14.3624 18.4437C14.534 18.3723 14.6898 18.2677 14.8209 18.1359L17.7549 15.2019L17.7639 18.2659ZM14.5399 17.6209C14.5626 17.5273 14.574 17.4313 14.5739 17.3349V15.4409C14.5739 15.3558 14.5907 15.2716 14.6232 15.193C14.6558 15.1143 14.7035 15.0429 14.7637 14.9827C14.8239 14.9226 14.8953 14.8748 14.9739 14.8423C15.0525 14.8097 15.1368 14.7929 15.2219 14.7929H17.1159C17.2122 14.793 17.3083 14.7816 17.4019 14.7589L14.5399 17.6209ZM17.7639 5.66594H5.6729C5.60062 5.67024 5.53272 5.70197 5.48306 5.75467C5.4334 5.80736 5.40575 5.87704 5.40575 5.94944C5.40575 6.02185 5.4334 6.09152 5.48306 6.14421C5.53272 6.19691 5.60062 6.22865 5.6729 6.23294H17.7629V13.5769C17.7626 13.7487 17.6943 13.9134 17.5728 14.0349C17.4513 14.1563 17.2867 14.2247 17.1149 14.2249H15.2219C14.8998 14.2255 14.5911 14.3536 14.3634 14.5814C14.1356 14.8091 14.0074 15.1179 14.0069 15.4399V17.3349C14.0069 17.42 13.9901 17.5043 13.9576 17.5829C13.925 17.6615 13.8773 17.733 13.8171 17.7931C13.7569 17.8533 13.6855 17.9011 13.6069 17.9336C13.5283 17.9662 13.444 17.9829 13.3589 17.9829H2.3209C2.09475 17.9827 1.87794 17.8927 1.71803 17.7328C1.55812 17.5729 1.46817 17.3561 1.4679 17.1299V6.23394H4.5389C4.61118 6.22965 4.67909 6.19791 4.72874 6.14521C4.7784 6.09252 4.80606 6.02285 4.80606 5.95044C4.80606 5.87804 4.7784 5.80836 4.72874 5.75567C4.67909 5.70297 4.61118 5.67124 4.5389 5.66694H1.4669V3.03194C1.46717 2.80579 1.55712 2.58898 1.71703 2.42907C1.87694 2.26916 2.09375 2.17921 2.3199 2.17894H3.5329V3.01494C3.53317 3.24374 3.62417 3.4631 3.78596 3.62488C3.94775 3.78667 4.1671 3.87768 4.3959 3.87794C4.46818 3.87365 4.53609 3.84191 4.58574 3.78921C4.6354 3.73652 4.66306 3.66685 4.66306 3.59444C4.66306 3.52204 4.6354 3.45236 4.58574 3.39967C4.53609 3.34697 4.46818 3.31524 4.3959 3.31094C4.31634 3.31094 4.24003 3.27933 4.18377 3.22307C4.12751 3.16681 4.0959 3.09051 4.0959 3.01094V2.17894H13.8359V3.01494C13.8362 3.24374 13.9272 3.4631 14.089 3.62488C14.2507 3.78667 14.4701 3.87768 14.6989 3.87794C14.7712 3.87365 14.8391 3.84191 14.8887 3.78921C14.9384 3.73652 14.9661 3.66685 14.9661 3.59444C14.9661 3.52204 14.9384 3.45236 14.8887 3.39967C14.8391 3.34697 14.7712 3.31524 14.6989 3.31094C14.6193 3.31094 14.543 3.27933 14.4868 3.22307C14.4305 3.16681 14.3989 3.09051 14.3989 3.01094V2.17894H16.8989C17.125 2.17921 17.3419 2.26916 17.5018 2.42907C17.6617 2.58898 17.7516 2.80579 17.7519 3.03194L17.7639 5.66594ZM4.5079 10.8789H3.1559C3.00905 10.8792 2.86829 10.9377 2.76446 11.0415C2.66062 11.1453 2.60217 11.2861 2.6019 11.4329V12.7839C2.60217 12.9308 2.66062 13.0715 2.76446 13.1754C2.86829 13.2792 3.00905 13.3377 3.1559 13.3379H4.5069C4.65375 13.3377 4.79451 13.2792 4.89835 13.1754C5.00218 13.0715 5.06064 12.9308 5.0609 12.7839V11.4329C5.06064 11.2863 5.00232 11.1457 4.8987 11.0418C4.79508 10.938 4.65458 10.8795 4.5079 10.8789ZM4.4939 12.7709H3.1729V11.4459H4.4969L4.4939 12.7709ZM7.0119 9.82894H8.3629C8.50975 9.82868 8.65051 9.77022 8.75435 9.66639C8.85818 9.56255 8.91664 9.42179 8.9169 9.27494V7.92294C8.91664 7.77609 8.85818 7.63533 8.75435 7.5315C8.65051 7.42766 8.50975 7.36921 8.3629 7.36894H7.0119C6.86505 7.36921 6.72429 7.42766 6.62046 7.5315C6.51662 7.63533 6.45817 7.77609 6.4579 7.92294V9.27394C6.45817 9.42079 6.51662 9.56155 6.62046 9.66539C6.72429 9.76922 6.86505 9.82768 7.0119 9.82794V9.82894ZM7.0259 7.93694H8.3499V9.26094H7.0259V7.93694ZM10.8809 16.2809C10.8752 16.2085 10.8419 16.141 10.788 16.0923C10.734 16.0437 10.6634 16.0176 10.5908 16.0193C10.5181 16.0211 10.4489 16.0507 10.3974 16.102C10.3459 16.1532 10.316 16.2223 10.3139 16.2949C10.3142 16.4418 10.3726 16.5825 10.4765 16.6864C10.5803 16.7902 10.7211 16.8487 10.8679 16.8489H12.2189C12.3657 16.8487 12.5065 16.7902 12.6103 16.6864C12.7142 16.5825 12.7726 16.4418 12.7729 16.2949V14.9429C12.7726 14.7961 12.7142 14.6553 12.6103 14.5515C12.5065 14.4477 12.3657 14.3892 12.2189 14.3889H10.8679C10.7211 14.3892 10.5803 14.4477 10.4765 14.5515C10.3726 14.6553 10.3142 14.7961 10.3139 14.9429V15.3329C10.3116 15.3716 10.3172 15.4103 10.3304 15.4467C10.3437 15.4831 10.3642 15.5164 10.3907 15.5446C10.4173 15.5727 10.4493 15.5952 10.4848 15.6105C10.5204 15.6259 10.5587 15.6338 10.5974 15.6338C10.6361 15.6338 10.6744 15.6259 10.71 15.6105C10.7455 15.5952 10.7775 15.5727 10.8041 15.5446C10.8306 15.5164 10.8511 15.4831 10.8644 15.4467C10.8776 15.4103 10.8832 15.3716 10.8809 15.3329V14.9569H12.2049V16.2809H10.8809ZM7.0119 13.3389H8.3629C8.50975 13.3387 8.65051 13.2802 8.75435 13.1764C8.85818 13.0725 8.91664 12.9318 8.9169 12.7849V11.4329C8.91664 11.2861 8.85818 11.1453 8.75435 11.0415C8.65051 10.9377 8.50975 10.8792 8.3629 10.8789H7.0119C6.86505 10.8792 6.72429 10.9377 6.62046 11.0415C6.51662 11.1453 6.45817 11.2861 6.4579 11.4329V12.7839C6.45817 12.9308 6.51662 13.0715 6.62046 13.1754C6.72429 13.2792 6.86505 13.3377 7.0119 13.3379V13.3389ZM7.0259 11.4469H8.3499V12.7709H7.0259V11.4469ZM7.0119 16.8469H8.3629C8.50975 16.8467 8.65051 16.7882 8.75435 16.6844C8.85818 16.5805 8.91664 16.4398 8.9169 16.2929V14.9429C8.91664 14.7961 8.85818 14.6553 8.75435 14.5515C8.65051 14.4477 8.50975 14.3892 8.3629 14.3889H7.0119C6.86505 14.3892 6.72429 14.4477 6.62046 14.5515C6.51662 14.6553 6.45817 14.7961 6.4579 14.9429V16.2939C6.45817 16.4408 6.51662 16.5815 6.62046 16.6854C6.72429 16.7892 6.86505 16.8477 7.0119 16.8479V16.8469ZM7.0259 14.9549H8.3499V16.2789H7.0259V14.9549Z" fill="#474747"/>
</svg>
