<svg width="15" height="14" viewBox="0 0 15 14" fill="none" xmlns="http://www.w3.org/2000/svg">
<path d="M10.9313 13.979C10.4763 13.9781 10.025 13.8972 9.59785 13.74C7.65764 13.0289 5.89537 11.9028 4.43365 10.44C2.97363 8.97557 1.84964 7.20994 1.13991 5.26603C0.91576 4.65941 0.847124 4.00613 0.940284 3.36603C1.03209 2.75721 1.26416 2.17818 1.61809 1.67482C1.97203 1.17145 2.43812 0.757595 2.97941 0.466034C3.55066 0.157527 4.18994 -0.00268357 4.83888 3.40047e-05C4.93858 8.11013e-05 5.03525 0.0343446 5.1128 0.0971186C5.19034 0.159892 5.24409 0.247388 5.26508 0.345034L5.94978 3.54503C5.96497 3.61626 5.96215 3.69016 5.94159 3.76002C5.92102 3.82988 5.88335 3.89348 5.832 3.94503L4.66222 5.11703C5.76925 7.31994 7.55383 9.10791 9.75256 10.217L10.9223 9.04503C10.9738 8.99359 11.0373 8.95585 11.107 8.93524C11.1767 8.91463 11.2505 8.91181 11.3216 8.92703L14.5155 9.61303C14.613 9.63406 14.7003 9.68791 14.763 9.7656C14.8256 9.8433 14.8598 9.94015 14.8599 10.04C14.8627 10.6905 14.7028 11.3314 14.3947 11.904C14.1032 12.4454 13.6898 12.9114 13.1874 13.2651C12.6851 13.6188 12.1074 13.8506 11.5002 13.942C11.3138 13.9694 11.1257 13.9831 10.9373 13.983L10.9313 13.979ZM4.49055 0.893034C4.03263 0.945299 3.59246 1.10068 3.20298 1.34754C2.8135 1.5944 2.48481 1.92635 2.24152 2.31852C1.99823 2.71069 1.84666 3.15292 1.79814 3.61211C1.74962 4.07129 1.80541 4.53552 1.96135 4.97003C2.62126 6.79675 3.67405 8.45572 5.04513 9.8294C6.41621 11.2031 8.07203 12.2579 9.89529 12.919C10.329 13.0753 10.7923 13.1312 11.2506 13.0826C11.709 13.0339 12.1504 12.8821 12.5418 12.6383C12.9332 12.3946 13.2645 12.0653 13.5109 11.675C13.7573 11.2848 13.9124 10.8438 13.9646 10.385L11.3695 9.82703L10.1458 11.051C10.0823 11.1146 10.0008 11.1569 9.91235 11.1723C9.82393 11.1877 9.73293 11.1754 9.65175 11.137C7.05357 9.91165 4.96303 7.81714 3.73997 5.21403C3.70171 5.1327 3.68943 5.04152 3.70479 4.95294C3.72015 4.86435 3.76241 4.78267 3.82581 4.71903L5.04749 3.50003L4.49055 0.893034Z" fill="#3422F2"/>
</svg>
