<svg width="16" height="14" viewBox="0 0 16 14" fill="none" xmlns="http://www.w3.org/2000/svg">
<path d="M10.4898 7.64164C10.4898 8.1024 10.3532 8.55281 10.0972 8.93591C9.84123 9.31902 9.47739 9.61761 9.05171 9.79394C8.62602 9.97026 8.15761 10.0164 7.70571 9.92651C7.25381 9.83662 6.83871 9.61474 6.5129 9.28894C6.1871 8.96313 5.96522 8.54803 5.87533 8.09613C5.78544 7.64423 5.83158 7.17582 6.0079 6.75013C6.18422 6.32445 6.48282 5.96061 6.86592 5.70463C7.24903 5.44864 7.69944 5.31201 8.1602 5.31201C8.77805 5.31201 9.3706 5.55745 9.80749 5.99435C10.2444 6.43124 10.4898 7.02378 10.4898 7.64164Z" fill="white"/>
<path d="M5.98666 0.373047L4.6574 1.82564H2.35518C1.97026 1.82672 1.60142 1.98011 1.32924 2.25229C1.05706 2.52447 0.903673 2.89331 0.902588 3.27823V11.9938C0.903673 12.3787 1.05706 12.7475 1.32924 13.0197C1.60142 13.2919 1.97026 13.4453 2.35518 13.4464H13.9773C14.3622 13.4453 14.7311 13.2919 15.0032 13.0197C15.2754 12.7475 15.4288 12.3787 15.4299 11.9938V3.27823C15.4288 2.89331 15.2754 2.52447 15.0032 2.25229C14.7311 1.98011 14.3622 1.82672 13.9773 1.82564H11.6737L10.3458 0.373047H5.98666ZM8.16555 11.2689C7.44731 11.2689 6.7452 11.0559 6.14801 10.6568C5.55081 10.2578 5.08536 9.69065 4.8105 9.02709C4.53564 8.36352 4.46373 7.63335 4.60385 6.92891C4.74397 6.22447 5.08983 5.57741 5.59771 5.06953C6.10558 4.56166 6.75265 4.2158 7.45708 4.07568C8.16152 3.93556 8.89169 4.00747 9.55526 4.28233C10.2188 4.55719 10.786 5.02264 11.185 5.61984C11.584 6.21703 11.797 6.91914 11.797 7.63738C11.7967 8.6004 11.414 9.52387 10.733 10.2048C10.052 10.8858 9.12857 11.2685 8.16555 11.2689Z" fill="white"/>
</svg>
