<svg width="24" height="22" viewBox="0 0 24 22" fill="none" xmlns="http://www.w3.org/2000/svg">
<path d="M20.9339 9.42523L20.3949 8.88623L19.5859 9.69523L18.7769 8.88623L18.2519 9.41223L17.7269 8.88623L16.9179 9.69523L16.1089 8.88623L15.584 9.41223L15.0589 8.88623L14.25 9.69523L13.4339 8.88923L12.8979 9.42523L13.7069 10.2342L12.8979 11.0432L13.4369 11.5822L14.2459 10.7732L15.0549 11.5822L15.5799 11.0562L16.1049 11.5822L16.9139 10.7732L17.7229 11.5822L18.2479 11.0562L18.7729 11.5822L19.5819 10.7732L20.3909 11.5822L20.9299 11.0432L20.1209 10.2342L20.9339 9.42523ZM15.5819 11.0252L14.7819 10.2252L15.5819 9.42523L16.382 10.2252L15.5819 11.0252ZM18.2509 11.0252L17.4509 10.2252L18.2509 9.42523L19.0509 10.2252L18.2509 11.0252Z" fill="#474747"/>
<path d="M22.6349 0.323244H2.0439C1.74049 0.323244 1.44951 0.443772 1.23497 0.658314C1.02043 0.872855 0.899902 1.16384 0.899902 1.46724V13.2882C0.899902 13.5917 1.02043 13.8826 1.23497 14.0972C1.44951 14.3117 1.74049 14.4322 2.0439 14.4322H13.6239C14.254 14.929 14.9883 15.2767 15.7719 15.4492V15.9572C15.6709 15.9572 15.5739 15.9974 15.5025 16.0688C15.431 16.1403 15.3909 16.2372 15.3909 16.3382V20.1512C15.3909 20.5558 15.5516 20.9438 15.8377 21.2299C16.1238 21.516 16.5118 21.6767 16.9164 21.6767C17.321 21.6767 17.709 21.516 17.9951 21.2299C18.2812 20.9438 18.4419 20.5558 18.4419 20.1512V16.3382C18.4419 16.2372 18.4018 16.1403 18.3303 16.0688C18.2589 15.9974 18.1619 15.9572 18.0609 15.9572V15.4492C18.8445 15.2767 19.5788 14.929 20.2089 14.4322H22.6369C22.9403 14.4322 23.2313 14.3117 23.4458 14.0972C23.6604 13.8826 23.7809 13.5917 23.7809 13.2882V1.46724C23.7809 1.31684 23.7512 1.16792 23.6936 1.02899C23.636 0.890065 23.5516 0.763862 23.4451 0.657606C23.3387 0.55135 23.2123 0.467125 23.0733 0.409751C22.9343 0.352378 22.7853 0.322981 22.6349 0.323244ZM2.0439 1.08624H22.6349C22.6849 1.08624 22.7345 1.0961 22.7807 1.11525C22.8269 1.13439 22.8689 1.16246 22.9043 1.19784C22.9397 1.23322 22.9678 1.27522 22.9869 1.32144C23.006 1.36767 23.0159 1.41721 23.0159 1.46724V3.37424H1.6629V1.46724C1.6629 1.41721 1.67276 1.36767 1.6919 1.32144C1.71105 1.27522 1.73912 1.23322 1.77449 1.19784C1.80987 1.16246 1.85187 1.13439 1.8981 1.11525C1.94432 1.0961 1.99387 1.08624 2.0439 1.08624ZM16.9149 14.8132C16.0099 14.8132 15.1251 14.5449 14.3726 14.042C13.6201 13.5392 13.0336 12.8246 12.6872 11.9884C12.3409 11.1522 12.2503 10.2322 12.4268 9.34451C12.6034 8.45685 13.0392 7.64149 13.6792 7.00152C14.3191 6.36156 15.1345 5.92574 16.0222 5.74917C16.9098 5.5726 17.8299 5.66322 18.6661 6.00957C19.5022 6.35592 20.2169 6.94244 20.7197 7.69495C21.2225 8.44747 21.4909 9.3322 21.4909 10.2372C21.4909 10.8382 21.3725 11.4332 21.1426 11.9884C20.9126 12.5436 20.5755 13.048 20.1506 13.473C19.7257 13.8979 19.2212 14.235 18.6661 14.4649C18.1109 14.6949 17.5158 14.8132 16.9149 14.8132ZM16.9149 4.89924C15.9505 4.89991 15.0045 5.16371 14.1789 5.66224H1.6629V4.13624H23.0159V5.66124H19.6509C18.8252 5.16307 17.8792 4.89961 16.9149 4.89924ZM1.6629 13.2882V6.42324H13.1859C12.2213 7.36206 11.6484 8.63162 11.5827 9.97606C11.517 11.3205 11.9634 12.6399 12.8319 13.6682H2.0439C1.94303 13.6682 1.84627 13.6282 1.77485 13.557C1.70342 13.4858 1.66317 13.3891 1.6629 13.2882ZM17.6779 20.1522C17.6816 20.2547 17.6646 20.3569 17.628 20.4526C17.5913 20.5484 17.5358 20.6357 17.4646 20.7095C17.3934 20.7833 17.3081 20.842 17.2138 20.8821C17.1194 20.9222 17.0179 20.9429 16.9154 20.9429C16.8129 20.9429 16.7114 20.9222 16.617 20.8821C16.5227 20.842 16.4374 20.7833 16.3662 20.7095C16.295 20.6357 16.2395 20.5484 16.2028 20.4526C16.1662 20.3569 16.1492 20.2547 16.1529 20.1522V16.7232H17.6779V20.1522ZM17.2999 15.9572H16.5369V15.5572C16.6639 15.5662 16.7889 15.5762 16.9179 15.5762C17.0469 15.5762 17.1729 15.5662 17.2989 15.5572L17.2999 15.9572ZM22.6379 13.6692H20.9999C21.8684 12.6409 22.3148 11.3215 22.2491 9.97706C22.1834 8.63262 21.6105 7.36305 20.6459 6.42424H23.0179V13.2882C23.0179 13.3384 23.008 13.3882 22.9887 13.4345C22.9694 13.4809 22.9412 13.523 22.9056 13.5584C22.87 13.5938 22.8278 13.6218 22.7813 13.6408C22.7349 13.6598 22.6851 13.6695 22.6349 13.6692H22.6379Z" fill="#474747"/>
<path d="M7.38201 8.33107C6.9025 8.3311 6.43526 8.48265 6.04701 8.76407C5.70541 8.51722 5.30226 8.36953 4.88204 8.33728C4.46182 8.30502 4.04085 8.38947 3.66558 8.58129C3.29031 8.77311 2.97531 9.06486 2.75533 9.42435C2.53535 9.78384 2.41895 10.1971 2.41895 10.6186C2.41895 11.04 2.53535 11.4533 2.75533 11.8128C2.97531 12.1723 3.29031 12.464 3.66558 12.6558C4.04085 12.8477 4.46182 12.9321 4.88204 12.8999C5.30226 12.8676 5.70541 12.7199 6.04701 12.4731C6.33962 12.6847 6.67815 12.824 7.03493 12.8797C7.39171 12.9354 7.7566 12.9058 8.09977 12.7935C8.44294 12.6811 8.75464 12.4891 9.00938 12.2332C9.26412 11.9772 9.45467 11.6646 9.56544 11.3209C9.67621 10.9773 9.70407 10.6122 9.64672 10.2557C9.58938 9.8992 9.44846 9.56131 9.2355 9.2697C9.02254 8.97808 8.74359 8.74101 8.42144 8.57787C8.09929 8.41473 7.74311 8.33016 7.38201 8.33107ZM5.85701 10.6191C5.85845 10.3655 5.92416 10.1164 6.04801 9.89507C6.173 10.1155 6.2387 10.3646 6.2387 10.6181C6.2387 10.8715 6.173 11.1206 6.04801 11.3411C5.92465 11.1206 5.85896 10.8726 5.85701 10.6201V10.6191ZM3.18801 10.6191C3.18801 10.2146 3.34868 9.82672 3.63467 9.54073C3.92067 9.25473 4.30855 9.09407 4.71301 9.09407C4.99151 9.09519 5.26425 9.17341 5.50101 9.32007C5.23579 9.7017 5.09365 10.1553 5.09365 10.6201C5.09365 11.0848 5.23579 11.5384 5.50101 11.9201C5.26425 12.0667 4.99151 12.1449 4.71301 12.1461C4.51258 12.1461 4.31411 12.1066 4.12896 12.0298C3.9438 11.953 3.7756 11.8405 3.63396 11.6987C3.49233 11.5569 3.38004 11.3885 3.30352 11.2033C3.227 11.018 3.18775 10.8195 3.18801 10.6191ZM7.38201 12.1441C7.10351 12.1429 6.83077 12.0647 6.59401 11.9181C6.85923 11.5364 7.00137 11.0828 7.00137 10.6181C7.00137 10.1533 6.85923 9.6997 6.59401 9.31807C6.83077 9.17141 7.10351 9.09319 7.38201 9.09207C7.7866 9.09207 8.17462 9.25279 8.4607 9.53888C8.74679 9.82496 8.90751 10.213 8.90751 10.6176C8.90751 11.0222 8.74679 11.4102 8.4607 11.6963C8.17462 11.9823 7.7866 12.1431 7.38201 12.1431V12.1441Z" fill="#474747"/>
</svg>
