<svg width="47" height="47" viewBox="0 0 47 47" fill="none" xmlns="http://www.w3.org/2000/svg">
<path d="M23.5 47C36.4787 47 47 36.4787 47 23.5C47 10.5213 36.4787 0 23.5 0C10.5213 0 0 10.5213 0 23.5C0 36.4787 10.5213 47 23.5 47Z" fill="white"/>
<path d="M35.8079 31H11.1929C10.8667 30.9992 10.554 30.8693 10.3233 30.6386C10.0927 30.4079 9.96271 30.0952 9.96191 29.769V16.228C9.96271 15.9018 10.0927 15.5891 10.3233 15.3584C10.554 15.1278 10.8667 14.9978 11.1929 14.997H35.8079C36.1342 14.9978 36.4468 15.1278 36.6775 15.3584C36.9082 15.5891 37.0381 15.9018 37.0389 16.228V29.769C37.0381 30.0952 36.9082 30.4079 36.6775 30.6386C36.4468 30.8693 36.1342 30.9992 35.8079 31Z" fill="#0E9347"/>
<path d="M32.7318 26.077C32.0549 26.0685 31.3864 26.2269 30.7854 26.5382C30.1843 26.8496 29.6693 27.3042 29.2858 27.862C28.6425 27.5132 27.9253 27.3233 27.1938 27.308C26.1609 27.3118 25.1638 27.6868 24.3843 28.3646C23.6049 29.0423 23.095 29.9777 22.9478 31H35.8098C36.1054 30.9991 36.3912 30.8935 36.6165 30.7021C36.8418 30.5106 36.9921 30.2456 37.0408 29.954C36.9174 28.8941 36.4117 27.9155 35.6184 27.2018C34.8252 26.488 33.7988 26.0881 32.7318 26.077Z" fill="#0D8944"/>
<path d="M33.3469 29.769H13.6549C13.653 29.1166 13.393 28.4915 12.9317 28.0302C12.4704 27.5688 11.8453 27.3089 11.1929 27.307V18.693C11.8453 18.6912 12.4704 18.4312 12.9317 17.9699C13.393 17.5086 13.653 16.8834 13.6549 16.231H33.3469C33.3487 16.8834 33.6087 17.5086 34.07 17.9699C34.5313 18.4312 35.1565 18.6912 35.8089 18.693V27.308C35.1566 27.3099 34.5317 27.5697 34.0704 28.0308C33.6091 28.4919 33.349 29.1168 33.3469 29.769Z" fill="#3BB54A"/>
<path d="M32.7309 26.077C32.0541 26.0685 31.3856 26.2269 30.7845 26.5382C30.1835 26.8496 29.6684 27.3042 29.2849 27.862C28.6417 27.5132 27.9244 27.3233 27.1929 27.308C26.3781 27.3011 25.5787 27.5297 24.8909 27.9665C24.203 28.4033 23.6561 29.0296 23.3159 29.77H33.3469C33.3452 29.1272 33.5955 28.5093 34.0443 28.049C34.493 27.5887 35.1043 27.3227 35.7469 27.308C34.9334 26.5311 33.8557 26.0913 32.7309 26.077Z" fill="#0E9347"/>
<path d="M23.4997 28.538C26.2186 28.538 28.4227 26.0586 28.4227 23C28.4227 19.9415 26.2186 17.462 23.4997 17.462C20.7808 17.462 18.5767 19.9415 18.5767 23C18.5767 26.0586 20.7808 28.538 23.4997 28.538Z" fill="#0E9347"/>
<path d="M16.1158 24.232C16.7956 24.232 17.3468 23.6809 17.3468 23.001C17.3468 22.3212 16.7956 21.77 16.1158 21.77C15.4359 21.77 14.8848 22.3212 14.8848 23.001C14.8848 23.6809 15.4359 24.232 16.1158 24.232Z" fill="#0E9347"/>
<path d="M30.8848 24.232C31.5647 24.232 32.1158 23.6809 32.1158 23.001C32.1158 22.3212 31.5647 21.77 30.8848 21.77C30.2049 21.77 29.6538 22.3212 29.6538 23.001C29.6538 23.6809 30.2049 24.232 30.8848 24.232Z" fill="#0E9347"/>
<path d="M24.1161 22.385H22.8841C22.7209 22.385 22.5643 22.3201 22.4489 22.2047C22.3334 22.0893 22.2686 21.9327 22.2686 21.7695C22.2686 21.6063 22.3334 21.4497 22.4489 21.3343C22.5643 21.2188 22.7209 21.154 22.8841 21.154H24.7301C24.8933 21.154 25.0499 21.0891 25.1653 20.9737C25.2807 20.8583 25.3456 20.7017 25.3456 20.5385C25.3456 20.3753 25.2807 20.2187 25.1653 20.1033C25.0499 19.9878 24.8933 19.923 24.7301 19.923H24.1151C24.1151 19.7598 24.0502 19.6032 23.9348 19.4878C23.8194 19.3723 23.6628 19.3075 23.4996 19.3075C23.3363 19.3075 23.1798 19.3723 23.0644 19.4878C22.9489 19.6032 22.8841 19.7598 22.8841 19.923C22.6417 19.923 22.4016 19.9707 22.1777 20.0635C21.9537 20.1563 21.7502 20.2923 21.5788 20.4637C21.4073 20.6351 21.2714 20.8386 21.1786 21.0626C21.0858 21.2865 21.0381 21.5266 21.0381 21.769C21.0381 22.0114 21.0858 22.2515 21.1786 22.4754C21.2714 22.6994 21.4073 22.9029 21.5788 23.0743C21.7502 23.2457 21.9537 23.3817 22.1777 23.4745C22.4016 23.5672 22.6417 23.615 22.8841 23.615H24.1151C24.2783 23.615 24.4349 23.6798 24.5503 23.7953C24.6657 23.9107 24.7306 24.0673 24.7306 24.2305C24.7306 24.3937 24.6657 24.5503 24.5503 24.6657C24.4349 24.7811 24.2783 24.846 24.1151 24.846H22.2691C22.1058 24.846 21.9493 24.9108 21.8339 25.0263C21.7184 25.1417 21.6536 25.2983 21.6536 25.4615C21.6536 25.6247 21.7184 25.7813 21.8339 25.8967C21.9493 26.0121 22.1058 26.077 22.2691 26.077H22.8841C22.8841 26.2402 22.9489 26.3968 23.0644 26.5122C23.1798 26.6277 23.3363 26.6925 23.4996 26.6925C23.6628 26.6925 23.8194 26.6277 23.9348 26.5122C24.0502 26.3968 24.1151 26.2402 24.1151 26.077C24.6047 26.077 25.0742 25.8825 25.4204 25.5363C25.7666 25.1901 25.9611 24.7206 25.9611 24.231C25.9611 23.7414 25.7666 23.2719 25.4204 22.9257C25.0742 22.5795 24.6047 22.385 24.1151 22.385H24.1161Z" fill="#89C763"/>
</svg>
