<svg width="16" height="15" viewBox="0 0 16 15" fill="none" xmlns="http://www.w3.org/2000/svg">
<path d="M13.4939 0.787109H2.70393C2.19357 0.824573 1.71852 1.06155 1.38162 1.44673C1.04472 1.83192 0.873102 2.33431 0.903927 2.84511V14.3561C0.903821 14.3909 0.914235 14.425 0.933804 14.4538C0.953373 14.4826 0.981175 14.5049 1.01359 14.5176C1.04601 14.5304 1.08153 14.533 1.11549 14.5253C1.14945 14.5175 1.18028 14.4997 1.20393 14.4741L3.87292 11.6321H13.4279C13.9578 11.5778 14.4469 11.3231 14.7953 10.9201C15.1436 10.5171 15.3248 9.99627 15.3019 9.4641V2.8461C15.3327 2.3353 15.1611 1.83292 14.8242 1.44774C14.4873 1.06255 14.0123 0.825565 13.5019 0.788101L13.4939 0.787109ZM2.97093 8.5771C2.97119 8.47322 3.01257 8.37366 3.08603 8.3002C3.15948 8.22674 3.25904 8.18537 3.36293 8.1851H7.34793C7.45189 8.1851 7.55159 8.2264 7.6251 8.29991C7.69862 8.37343 7.73993 8.47314 7.73993 8.5771C7.73993 8.68107 7.69862 8.78078 7.6251 8.85429C7.55159 8.92781 7.45189 8.9691 7.34793 8.9691H3.36493C3.31332 8.96923 3.26219 8.9592 3.21446 8.93958C3.16673 8.91995 3.12333 8.89111 3.08674 8.85471C3.05016 8.81831 3.02109 8.77505 3.00122 8.72742C2.98135 8.67979 2.97106 8.62871 2.97093 8.5771ZM2.97093 6.20911C2.97119 6.10522 3.01257 6.00566 3.08603 5.93221C3.15948 5.85875 3.25904 5.81737 3.36293 5.81711H12.8359C12.9399 5.81711 13.0396 5.8584 13.1131 5.93192C13.1866 6.00543 13.2279 6.10514 13.2279 6.20911C13.2279 6.31307 13.1866 6.41277 13.1131 6.48628C13.0396 6.5598 12.9399 6.6011 12.8359 6.6011H3.36293C3.25904 6.60084 3.15948 6.55945 3.08603 6.48599C3.01257 6.41254 2.97119 6.31299 2.97093 6.20911ZM12.8349 4.23311H3.36192C3.25796 4.23311 3.15826 4.1918 3.08474 4.11829C3.01123 4.04477 2.96992 3.94508 2.96992 3.84111C2.96992 3.73715 3.01123 3.63743 3.08474 3.56392C3.15826 3.4904 3.25796 3.4491 3.36192 3.4491H12.8349C12.9389 3.4491 13.0386 3.4904 13.1121 3.56392C13.1856 3.63743 13.2269 3.73715 13.2269 3.84111C13.2269 3.94508 13.1856 4.04477 13.1121 4.11829C13.0386 4.1918 12.9389 4.23311 12.8349 4.23311Z" fill="white"/>
</svg>
