<svg width="15" height="15" viewBox="0 0 15 15" fill="none" xmlns="http://www.w3.org/2000/svg">
<path d="M13.4932 13.4932C13.2499 13.7332 12.9219 13.8677 12.5802 13.8677C12.2384 13.8677 11.9104 13.7332 11.6672 13.4932L7.43517 9.26118L3.20317 13.4932C2.95803 13.718 2.63559 13.8395 2.30305 13.8324C1.97052 13.8253 1.65355 13.6901 1.41823 13.4551C1.18291 13.22 1.04739 12.9032 1.03993 12.5707C1.03247 12.2381 1.15363 11.9156 1.37817 11.6702L5.61018 7.43817L1.37817 3.20618C1.25828 3.08628 1.16317 2.94394 1.09828 2.78728C1.03339 2.63063 1 2.46273 1 2.29317C1 2.12362 1.03339 1.95572 1.09828 1.79906C1.16317 1.64241 1.25828 1.50007 1.37817 1.38017C1.49807 1.26028 1.64041 1.16517 1.79706 1.10028C1.95371 1.03539 2.12162 1.002 2.29118 1.002C2.46074 1.002 2.62863 1.03539 2.78529 1.10028C2.94194 1.16517 3.08427 1.26028 3.20417 1.38017L7.43617 5.61217L11.6702 1.37817C11.7901 1.25828 11.9324 1.16317 12.0891 1.09828C12.2457 1.03339 12.4136 1 12.5832 1C12.7527 1 12.9206 1.03339 13.0773 1.09828C13.2339 1.16317 13.3763 1.25828 13.4962 1.37817C13.6161 1.49807 13.7112 1.64041 13.7761 1.79706C13.841 1.95371 13.8744 2.12162 13.8744 2.29118C13.8744 2.46074 13.841 2.62863 13.7761 2.78529C13.7112 2.94194 13.6161 3.08427 13.4962 3.20417L9.26418 7.43617L13.4932 11.6702C13.7323 11.9133 13.8663 12.2407 13.8663 12.5817C13.8663 12.9227 13.7323 13.25 13.4932 13.4932Z" fill="#868686" stroke="white" stroke-width="1.5"/>
</svg>
