<svg width="234" height="199" viewBox="0 0 234 199" fill="none" xmlns="http://www.w3.org/2000/svg">
<path d="M211.382 128.434C208.906 182.201 161.048 197.507 101.457 198.66C10.5789 200.433 0 171.566 0 117.715C0 63.8633 19.8074 8.26753 72.3364 12.3753C97.2926 14.3167 125.625 55.6758 146.839 69.406C176.128 88.3693 213.267 88.0317 211.382 128.434Z" fill="white"/>
<path opacity="0.4" d="M222.721 27.629V64.1771C222.721 66.7655 220.61 68.8757 218.022 68.8757H211.691L199.087 79.4546C197.905 80.4675 196.104 79.6235 196.104 78.076V68.8757H157.503C154.914 68.8757 152.832 66.7655 152.832 64.1771V27.629C152.832 25.0406 154.914 22.9304 157.503 22.9304H218.022C220.61 22.9304 222.721 25.0406 222.721 27.629Z" fill="#C0C0C0"/>
<path d="M233.357 27.4884C233.357 32.9748 231.781 38.0673 229.08 42.3439C228.649 43.0192 228.189 43.6851 227.701 44.3415C222.75 50.8127 215.012 55.0049 206.318 55.0049C201.873 55.0049 197.653 53.9076 193.939 51.9663C185.245 47.3802 179.28 38.1517 179.28 27.4884C179.28 26.2504 179.365 25.0312 179.533 23.8308C181.306 10.382 192.616 0 206.318 0C221.258 0 233.357 12.2952 233.357 27.4884Z" fill="#3422F2"/>
<path d="M227.701 44.3133C222.749 50.8126 215.012 55.0048 206.318 55.0048C201.873 55.0048 197.652 53.9075 193.938 51.938C194.445 50.6719 195.992 47.3238 198.75 45.4387C202.182 43.1035 212.62 41.6686 219.851 42.2876C224.128 42.6533 226.491 43.6099 227.701 44.3133Z" fill="#4E4E4E"/>
<path d="M217.798 12.9704L219.542 23.268C219.542 23.268 217.207 40.2056 206.037 40.4588C194.867 40.712 194.417 26.9819 194.417 26.9819L194.136 13.5331C204.743 4.27653 217.798 12.9704 217.798 12.9704Z" fill="white"/>
<path d="M216.392 32.8904C216.251 37.9829 216.814 43.7788 216.814 43.7788L208.176 51.713C208.176 51.713 204.434 45.8327 205.672 44.1164C206.938 42.4283 206.094 37.2232 206.094 37.2232L216.392 32.8904Z" fill="white"/>
<path d="M194.333 21.805C194.333 21.805 189.888 22.1145 189.241 18.3162C188.565 14.5179 191.632 13.7301 191.632 13.7301C190.085 12.7735 189.156 9.03152 192.364 7.28712C195.571 5.54272 199.369 8.44067 199.369 8.44067C203.871 5.82407 207.866 5.71153 213.887 7.28712C219.937 8.8627 219.683 13.3644 219.683 13.3644C219.683 13.3644 222.75 15.1932 222.159 21.2705C221.54 27.3477 216.391 32.8904 216.391 32.8904L215.041 29.2328C215.041 29.2328 218.22 28.5576 218.727 25.8003C219.261 23.0149 218.53 20.9047 216.532 20.9047C214.563 20.9047 213.409 23.6901 213.409 23.6901C213.409 23.6901 211.608 22.9586 211.046 20.1732C210.511 17.4159 211.777 15.2495 211.777 15.2495C211.777 15.2495 210.399 16.1498 208.514 16.1498C206.657 16.1498 205.503 15.6715 205.503 15.6715C205.503 15.6715 204.293 17.0501 200.861 17.3596C197.428 17.641 194.221 16.6281 194.221 16.6281L194.333 21.805Z" fill="#4E4E4E"/>
<path d="M206.037 40.4588C206.037 40.4588 214.14 38.3205 214.956 32.8904C214.956 32.8904 216.954 40.7402 206.037 43.4131C206.037 43.4131 206.347 41.0778 206.037 40.4588Z" fill="#D9D9D9"/>
<path d="M197.201 167.458C197.164 167.589 197.117 167.692 197.061 167.767C195.992 169.324 194.857 170.834 193.656 172.297L55.708 187.969V167.458H197.201Z" fill="#D4D4D4"/>
<path d="M110.885 126.483L110.884 126.482C110.074 125.421 109.235 124.19 108.423 122.874C107.389 121.142 106.473 119.25 105.946 117.366L105.946 117.366C105.056 114.18 104.788 109.202 104.746 104.998C104.725 102.901 104.76 101.004 104.8 99.6321C104.82 98.946 104.842 98.3912 104.858 98.008C104.864 97.8802 104.869 97.7714 104.873 97.6834C104.93 97.6916 104.996 97.7015 105.07 97.7131C105.354 97.7585 105.743 97.8301 106.162 97.9351C106.581 98.0404 107.024 98.1778 107.419 98.3533C107.818 98.5303 108.149 98.7379 108.361 98.9745L108.361 98.9749C111.144 102.064 114.14 108.083 116.449 113.362C117.601 115.996 118.577 118.435 119.266 120.216C119.61 121.106 119.882 121.831 120.068 122.334C120.161 122.586 120.232 122.781 120.281 122.914L120.302 122.972L113.751 129.9C113.732 129.88 113.711 129.857 113.689 129.834C113.533 129.667 113.307 129.42 113.029 129.106C112.473 128.476 111.71 127.574 110.885 126.483Z" fill="#F3F3F3" stroke="black" stroke-width="0.5"/>
<path d="M94.9019 146.694H45.918L41.4726 109.049C40.9381 104.744 43.9486 100.833 48.1689 100.27L51.1231 99.9047L88.5433 95.0372L94.9019 146.694Z" fill="#999999"/>
<path d="M105.21 128.098L105.21 128.098L105.154 128.16L105.147 128.243L103.535 146.444H71.5931L73.008 127.412L73.0116 127.363L72.9968 127.317L72.7587 127.393C72.9968 127.317 72.9968 127.317 72.9967 127.317L72.9965 127.316L72.9955 127.313L72.9914 127.3L72.9754 127.25L72.9131 127.055C72.8585 126.883 72.7786 126.632 72.6772 126.312C72.4744 125.671 72.1855 124.754 71.8417 123.649C71.1539 121.44 70.2461 118.481 69.3656 115.481C68.4849 112.481 67.6325 109.442 67.0549 107.072C66.7659 105.887 66.5471 104.874 66.4275 104.119C66.3676 103.741 66.3338 103.434 66.3273 103.206C66.3241 103.092 66.3279 103.004 66.3368 102.94C66.3454 102.877 66.3564 102.855 66.3561 102.855L66.3576 102.853C66.3807 102.817 66.4546 102.743 66.6145 102.635C66.7663 102.533 66.9714 102.415 67.2255 102.284C67.7333 102.022 68.4182 101.717 69.2228 101.385C70.8311 100.721 72.8995 99.959 74.9451 99.2367C76.9899 98.5146 79.0088 97.8338 80.5167 97.3333C81.2706 97.0831 81.8966 96.8781 82.3341 96.7356C82.5528 96.6644 82.7244 96.6088 82.8413 96.571L82.9746 96.528L82.9873 96.5239L93.3138 96.1601L104.446 97.6279L104.45 97.6404C104.484 97.7475 104.534 97.9055 104.598 98.1089C104.725 98.5158 104.906 99.1043 105.123 99.8304C105.557 101.283 106.133 103.284 106.701 105.482C107.842 109.89 108.943 115.047 108.832 118.156C108.721 121.248 107.813 123.738 106.932 125.454C106.492 126.312 106.059 126.975 105.737 127.424C105.576 127.648 105.443 127.818 105.351 127.931C105.305 127.988 105.269 128.03 105.245 128.058C105.233 128.072 105.224 128.082 105.218 128.089L105.212 128.096L105.211 128.098L105.21 128.098Z" fill="#F3F3F3" stroke="black" stroke-width="0.5"/>
<path d="M97.9125 67.2676C104.046 73.7388 101.176 91.3234 101.176 91.3234C101.176 91.3234 100.051 91.3234 94.4799 91.858C88.9091 92.3926 68.7922 95.0373 68.7922 95.0373C68.7922 95.0373 60.6329 77.5089 68.5109 66.3673C76.3888 55.2256 87.5023 60.0086 87.5023 60.0086C87.5023 60.0086 91.7789 60.7964 97.9125 67.2676Z" fill="#4E4E4E"/>
<path d="M91.6385 103.45L82.2412 97.0349C82.2412 97.0349 83.029 94.5871 82.8321 92.1112C82.7758 91.5766 82.6914 91.0139 82.5507 90.5075C82.4569 90.2449 82.3538 89.9917 82.2412 89.7478L91.6385 89.2695C91.6385 89.2695 91.6947 90.0292 91.8636 91.0139C92.0042 91.7736 92.2012 92.6739 92.5388 93.4617C92.7639 94.0526 93.0452 94.559 93.3829 94.9248C94.8178 96.3597 91.6385 103.45 91.6385 103.45Z" fill="white"/>
<path d="M92.5379 93.4617C91.3281 93.5179 86.1511 93.5742 82.8312 92.1112C82.7749 91.5766 82.6905 91.0139 82.5498 90.5074C82.5498 90.5074 88.8522 91.2671 91.8627 91.0139C92.0033 91.7735 92.2003 92.6739 92.5379 93.4617Z" fill="#D9D9D9"/>
<path d="M96.9003 64.229L98.4759 77.1432C98.4759 77.1432 100.502 90.4794 89.782 91.7737C79.0343 93.0398 75.4048 80.632 75.4048 80.632L74.1387 66.93C74.1387 66.93 85.4773 56.7731 96.9003 64.229Z" fill="white"/>
<path d="M92.0045 65.2419C92.0045 65.2419 90.5977 68.7025 85.9835 71.1503C81.8757 73.3168 78.0212 73.9076 78.0212 73.9076C78.0212 73.9076 77.4022 77.5652 75.3483 79.8442C75.3483 79.8442 71.747 73.0354 73.21 67.1551C74.6731 61.3029 82.2415 58.4612 88.8815 59.0802C95.5215 59.671 97.913 62.0907 98.8133 65.9734C99.6855 69.8561 98.2225 75.0893 98.2225 75.0893C98.2225 75.0893 96.8157 66.4517 92.0045 65.2419Z" fill="#4E4E4E"/>
<path d="M72.6195 77.0025C71.8599 71.0096 72.2256 63.3286 79.9629 59.9242C87.672 56.5198 91.5829 59.4459 91.5829 59.4459C91.5829 59.4459 85.3649 58.5456 80.4412 61.95C72.8728 67.1551 74.1389 77.0025 74.1389 77.0025H72.6195Z" fill="white"/>
<path d="M84.6325 89.3821C79.4837 89.3821 75.6854 85.837 75.5166 85.6682L76.22 84.9086C76.2481 84.9648 80.4122 88.8475 85.6172 88.313L85.7017 89.354C85.3453 89.3727 84.9889 89.3821 84.6325 89.3821Z" fill="#3422F2"/>
<path d="M211.636 167.768H58.0164C53.9086 167.768 49.9978 166.079 47.2686 163.125L38.828 153.981C35.5642 150.408 38.1527 144.809 43.0764 144.809H193.039C198.216 144.809 203.196 146.75 206.909 150.239L215.575 158.314C219.261 161.747 216.757 167.768 211.636 167.768Z" fill="#DCDCDC"/>
<path d="M141.451 94.9726C141.448 94.9834 141.445 95.0115 141.46 95.049L141.691 94.9529C141.466 94.4464 140.425 94.7278 139.637 95.1498L141.451 94.9726ZM141.451 94.9726C141.452 94.9693 141.453 94.9677 141.453 94.9678C141.452 94.9678 141.452 94.9695 141.451 94.9726ZM143.055 99.4191C143.08 99.4265 143.098 99.4349 143.111 99.4436C143.089 99.4744 143.054 99.5152 143.005 99.5659C142.869 99.7047 142.66 99.8805 142.401 100.079C141.885 100.474 141.202 100.934 140.598 101.327L140.58 101.339L140.564 101.354L136.147 105.49L136.107 105.527L136.086 105.577C136.065 105.628 136.043 105.682 136.02 105.738C135.415 107.205 134.013 110.607 132.376 114.189C130.673 117.916 128.727 121.81 127.169 123.925L127.168 123.926C125.509 126.204 123.81 128.401 121.702 130.066C120.386 131.086 118.586 131.457 116.86 131.225C115.133 130.993 113.513 130.162 112.549 128.823L112.547 128.821C112.199 128.346 111.912 127.928 111.714 127.628C111.623 127.49 111.55 127.378 111.498 127.297L130.971 102.563L131.025 102.495V102.409C131.025 101.804 131.08 100.457 131.602 98.9459C131.957 97.9361 132.56 96.9336 133.155 96.1844C133.452 95.81 133.742 95.5052 133.991 95.2967C134.116 95.1924 134.225 95.1163 134.317 95.0674C134.348 95.0507 134.375 95.0383 134.398 95.0292C134.396 95.0669 134.392 95.1167 134.381 95.1802C134.339 95.4375 134.221 95.8046 134.062 96.2128C133.746 97.0252 133.295 97.933 133.065 98.3119L132.694 98.9225L133.365 98.6763L135.588 97.8604L135.612 97.8515L135.634 97.8378L135.501 97.6257L135.634 97.8378L135.634 97.8378L135.634 97.8375L135.636 97.8365L135.643 97.8324L135.668 97.8163L135.767 97.7548C135.853 97.7014 135.977 97.6246 136.129 97.5306C136.433 97.3427 136.849 97.0862 137.299 96.8123C138.201 96.2625 139.228 95.648 139.754 95.371L139.755 95.3702C140.134 95.1674 140.564 95.0043 140.914 94.9502C141.089 94.923 141.226 94.9264 141.321 94.952C141.374 94.9664 141.409 94.9858 141.431 95.0083C141.405 95.0492 141.359 95.1065 141.287 95.1803C141.127 95.3437 140.88 95.5483 140.577 95.7766C139.974 96.231 139.179 96.7542 138.491 97.1894L138.262 97.3341L138.424 97.5506L138.509 97.6632L138.644 97.8436L138.838 97.7276C139.678 97.2233 140.63 96.663 141.11 96.3807C141.485 96.1807 141.918 96.0254 142.27 95.9778C142.448 95.9538 142.585 95.9601 142.679 95.9873C142.729 96.0019 142.76 96.0203 142.78 96.0402C142.78 96.041 142.779 96.0418 142.779 96.0425C142.741 96.098 142.673 96.1759 142.568 96.2751C142.362 96.4711 142.053 96.7149 141.688 96.9804C140.961 97.5096 140.038 98.1037 139.337 98.5387L139.143 98.6589L139.245 98.8629L139.301 98.9755L139.423 99.2182L139.655 99.0774C140.446 98.5968 141.28 98.0969 141.719 97.8775L141.719 97.8776L141.725 97.8742C142.103 97.6715 142.533 97.5084 142.883 97.4543C143.059 97.4271 143.196 97.4305 143.29 97.456C143.34 97.4695 143.374 97.4874 143.396 97.5081C143.364 97.5562 143.306 97.6228 143.22 97.7074C143.035 97.8889 142.754 98.1165 142.417 98.3679C141.746 98.8688 140.88 99.4417 140.178 99.8911L139.973 100.022L140.098 100.23L140.183 100.371L140.31 100.583L140.524 100.458C140.594 100.416 140.663 100.376 140.731 100.336C141.125 100.103 141.459 99.9066 141.691 99.7907L141.691 99.7909L141.701 99.7852C142.034 99.5986 142.413 99.4573 142.715 99.4136C142.868 99.3916 142.981 99.3973 143.055 99.4191ZM143.142 99.3928C143.142 99.3927 143.141 99.3947 143.139 99.3989C143.14 99.395 143.141 99.3929 143.142 99.3928Z" fill="white" stroke="black" stroke-width="0.5"/>
<path d="M90.0628 150.858C90.0628 150.858 92.3417 152.546 93.2421 154.825C94.1424 157.132 88.3746 158.595 78.696 155.303C71.6621 152.94 83.5353 145.597 90.0628 150.858Z" fill="#3422F2"/>
<path d="M86.4051 90.001H85.1108C84.6607 90.001 84.2949 89.6352 84.2949 89.1569V88.3691C84.2949 87.8908 84.6607 87.525 85.1108 87.525H86.4051C86.8834 87.525 87.2491 87.8908 87.2491 88.3691V88.763V89.1569C87.2491 89.6352 86.8834 90.001 86.4051 90.001Z" fill="#3422F2"/>
<path d="M79.6798 79.9003C80.3832 83.5017 78.5262 86.9061 75.5157 87.525C72.5052 88.144 69.4666 85.7525 68.7632 82.1793C68.0317 78.5779 69.9168 75.1735 72.9272 74.5546C75.9377 73.9356 78.9482 76.3271 79.6798 79.9003Z" fill="#3422F2"/>
<path d="M72.3997 118.038L72.3996 118.04C72.1399 119.611 71.2239 121.643 69.9736 123.825C68.727 126.001 67.1625 128.301 65.6284 130.404C64.0948 132.506 62.5941 134.407 61.4767 135.783C60.918 136.47 60.4554 137.026 60.1325 137.41C59.971 137.602 59.8446 137.751 59.7585 137.852L59.7474 137.865L51.2194 134.099L51.2346 134.061C51.3034 133.89 51.4051 133.637 51.5363 133.313C51.7985 132.665 52.1785 131.73 52.6493 130.584C53.5911 128.294 54.8961 125.161 56.3497 121.791C59.2599 115.045 62.7551 107.376 65.1204 103.611C65.6409 102.792 66.5451 102.276 67.3489 101.963C67.7471 101.808 68.1119 101.707 68.377 101.644C68.4718 101.622 68.5535 101.604 68.6192 101.591C68.6527 101.663 68.696 101.757 68.7478 101.87C68.881 102.163 69.0703 102.588 69.2941 103.119C69.7419 104.181 70.3275 105.664 70.8787 107.347C71.9854 110.727 72.9373 114.868 72.3997 118.038Z" fill="#F3F3F3" stroke="black" stroke-width="0.5"/>
<path d="M52.9143 134.597C54.2459 134.797 56.2372 135.281 58.8535 136.42L77.0007 148.222L74.5955 153.555C74.475 153.511 74.3063 153.45 74.0948 153.373C73.6339 153.204 72.9698 152.958 72.1569 152.651C70.531 152.038 68.3107 151.18 65.9326 150.201C61.1637 148.24 55.8011 145.81 53.2998 143.907C50.8484 142.041 50.3054 139.66 50.3737 137.731C50.4079 136.764 50.5964 135.912 50.7768 135.302C50.8669 134.997 50.9547 134.754 51.0195 134.587C51.0372 134.542 51.0532 134.502 51.067 134.468C51.1475 134.465 51.2627 134.461 51.4122 134.463C51.7446 134.468 52.2468 134.497 52.9143 134.597Z" fill="white" stroke="black" stroke-width="0.5"/>
<path d="M85.9844 150.07L86.1404 149.875L85.9046 149.687L85.7635 149.953L85.5102 150.432L85.4002 150.64L85.601 150.762L85.7312 150.549L85.601 150.762L85.6011 150.762L85.6016 150.763L85.6037 150.764L85.6119 150.769L85.6446 150.789C85.6734 150.807 85.7157 150.833 85.7698 150.867C85.8779 150.934 86.0329 151.031 86.2196 151.151C86.5932 151.391 87.0929 151.72 87.599 152.076C88.1062 152.432 88.6149 152.813 89.0087 153.158C89.2058 153.331 89.3694 153.49 89.4885 153.63C89.6105 153.773 89.665 153.871 89.6799 153.926C89.7219 154.128 89.6894 154.206 89.6723 154.23C89.6602 154.247 89.6201 154.286 89.4765 154.291C89.334 154.295 89.1357 154.262 88.8824 154.187C88.6324 154.113 88.3437 154.003 88.0254 153.865L88.0255 153.864L88.0212 153.863C87.3917 153.603 86.5958 153.16 85.95 152.778C85.6288 152.588 85.3476 152.414 85.1467 152.288C85.0463 152.225 84.9661 152.173 84.9111 152.138L84.8481 152.098L84.832 152.087L84.828 152.085L84.827 152.084L84.8268 152.084L84.8267 152.084L84.6341 151.958L84.4928 152.14L84.2959 152.393L84.1253 152.612L84.3613 152.759L84.4932 152.546L84.3613 152.759L84.3614 152.759L84.3618 152.759L84.3637 152.76L84.3714 152.765L84.4019 152.784C84.4286 152.801 84.4681 152.826 84.5184 152.858C84.6191 152.922 84.7631 153.015 84.9359 153.129C85.282 153.357 85.7425 153.669 86.2021 154.007C86.6632 154.346 87.1171 154.706 87.4535 155.029C87.6221 155.191 87.7546 155.338 87.8433 155.464C87.938 155.598 87.9571 155.673 87.9571 155.698C87.9571 155.721 87.9537 155.723 87.9501 155.724C87.9495 155.725 87.9489 155.725 87.9483 155.725C87.9279 155.739 87.8709 155.762 87.7505 155.766C87.5126 155.773 87.1492 155.703 86.6976 155.558C85.8035 155.27 84.6557 154.718 83.6726 154.081L83.462 153.945L83.3263 154.156L83.0731 154.549L82.9232 154.783L83.1705 154.908L83.1706 154.908L83.1706 154.908L83.1708 154.908L83.1719 154.908L83.1768 154.911L83.1964 154.921C83.2138 154.93 83.2395 154.943 83.2725 154.961C83.3385 154.995 83.4333 155.046 83.5478 155.11C83.7772 155.237 84.0841 155.414 84.3962 155.616C84.7095 155.818 85.0216 156.041 85.2648 156.259C85.3864 156.369 85.4862 156.472 85.5595 156.568C85.633 156.664 85.6705 156.74 85.6844 156.794C85.6983 156.861 85.6913 156.892 85.6881 156.901L85.6879 156.902C85.6867 156.906 85.6852 156.91 85.6715 156.918C85.6238 156.945 85.4995 156.969 85.2617 156.937C84.805 156.876 84.1302 156.636 83.3909 156.288C82.2145 155.722 81.0791 155.56 79.7563 155.372C79.3863 155.319 79.0015 155.264 78.5971 155.198L78.5971 155.198L78.593 155.197C77.6743 155.062 76.6606 154.653 75.8658 154.27C75.4708 154.079 75.1345 153.897 74.8973 153.763C74.8234 153.721 74.7591 153.684 74.7058 153.653L76.9547 148.202L77.0666 148.197C77.2401 148.188 77.4904 148.176 77.7978 148.162C78.4125 148.133 79.2553 148.094 80.1674 148.055C81.994 147.978 84.0915 147.901 85.1966 147.901C85.6917 147.901 86.3077 148.107 86.963 148.461C87.613 148.811 88.2779 149.294 88.864 149.814C89.451 150.336 89.9503 150.888 90.2746 151.374C90.4369 151.618 90.55 151.837 90.6106 152.021C90.6724 152.209 90.6706 152.332 90.6449 152.405C90.6355 152.43 90.6253 152.439 90.617 152.445C90.6057 152.452 90.5803 152.464 90.529 152.468C90.4198 152.477 90.2508 152.446 90.0219 152.363C89.5706 152.201 88.9913 151.875 88.4086 151.502C87.8299 151.132 87.2627 150.725 86.8392 150.41C86.6278 150.253 86.4527 150.119 86.3306 150.024C86.2696 149.977 86.2218 149.939 86.1894 149.914L86.1526 149.885L86.1434 149.877L86.1411 149.876L86.1406 149.875L86.1404 149.875L85.9844 150.07Z" fill="white" stroke="black" stroke-width="0.5"/>
<path d="M190.506 114.479L181.7 158.595H116.538L125.288 114.732C125.457 113.804 126.273 113.157 127.201 113.157H189.409C190.112 113.157 190.619 113.804 190.506 114.479Z" fill="#999999"/>
<path d="M116.538 158.595L98.6434 152.771C97.9963 152.574 97.5742 151.984 97.5742 151.308C97.5742 150.464 98.2495 149.789 99.0935 149.789H118.282L116.538 158.595Z" fill="#999999"/>
<path d="M164.002 138.197C164.002 141.095 161.638 143.458 158.768 143.458C155.87 143.458 153.535 141.095 153.535 138.197C153.535 135.327 155.87 132.964 158.768 132.964C161.638 132.964 164.002 135.327 164.002 138.197Z" fill="#3422F2"/>
<path d="M87.538 105.31L87.5352 105.31C86.3689 105.284 85.4329 104.535 84.6805 103.532C83.9308 102.532 83.3996 101.328 83.033 100.482C82.6716 99.6153 82.1122 98.7133 81.6484 98.0336C81.4155 97.6922 81.2048 97.4041 81.0522 97.2012C81.0057 97.1395 80.9646 97.0856 80.9299 97.0404L82.7898 94.8181L91.3052 103.469C91.2681 103.513 91.223 103.566 91.1704 103.624C90.9933 103.819 90.731 104.08 90.3923 104.338C89.7137 104.854 88.7419 105.35 87.538 105.31Z" fill="#F3F3F3" stroke="black" stroke-width="0.5"/>
<path d="M93.1141 95.0788C93.1086 94.8775 93.1018 94.702 93.0952 94.557L95.1419 95.7395L95.1508 95.7683C95.1757 95.8474 95.2119 95.9619 95.2579 96.1042C95.3498 96.3887 95.4805 96.7845 95.6361 97.2299C95.9461 98.1177 96.3584 99.2136 96.7598 100.017L96.7598 100.017L96.7606 100.018C97.16 100.803 97.4687 101.496 97.4406 102.098C97.4272 102.387 97.3354 102.655 97.1272 102.907C96.9154 103.163 96.5731 103.413 96.0405 103.642L96.0405 103.642L96.0381 103.643C94.998 104.104 93.9363 104.009 93.1201 103.789C92.7134 103.679 92.373 103.54 92.1347 103.428C92.0687 103.397 92.0107 103.368 91.9614 103.343C92.7252 101.605 93.0021 99.3404 93.0902 97.5042C93.1363 96.5434 93.131 95.6911 93.1141 95.0788Z" fill="#F3F3F3" stroke="black" stroke-width="0.5"/>
</svg>
