<svg width="67" height="59" viewBox="0 0 67 59" fill="none" xmlns="http://www.w3.org/2000/svg">
<path d="M33.3361 0.00491412C51.5585 -0.306409 66.5842 14.2137 66.8955 32.436C67.0723 42.7682 62.4672 52.0543 55.1349 58.2297C54.6555 57.8113 54.1412 57.4278 53.5696 57.1164L43.7231 51.7455C42.4317 51.0407 41.6273 49.687 41.6273 48.2151V44.1804C41.6273 44.1804 44.5176 40.7234 45.6197 35.9203C46.5337 35.3288 47.1464 34.3064 47.1464 33.1421V28.7263C47.1464 27.755 46.7143 26.887 46.0431 26.2793V19.8959C46.0431 19.8959 47.3544 9.96226 33.9015 9.96226C20.4486 9.96226 21.7599 19.8959 21.7599 19.8959V26.2793C21.0875 26.887 20.6566 27.755 20.6566 28.7263V33.1421C20.6566 34.6265 21.6528 35.8755 23.0052 36.2927C23.7586 38.6351 24.8457 40.8679 26.2828 42.8977C26.6452 43.4095 26.9839 43.8429 27.2803 44.1804V48.3172C27.2803 49.8402 26.4198 51.2337 25.0574 51.9136L14.5136 57.1849C13.881 57.5012 13.3094 57.901 12.7826 58.3455C5.672 52.4155 1.07812 43.549 0.907524 33.5643C0.593704 15.3419 15.1126 0.316237 33.3361 0.00491412Z" fill="#969696"/>
</svg>
