<svg width="68" height="68" viewBox="0 0 68 68" fill="none" xmlns="http://www.w3.org/2000/svg">
<path d="M34 68C52.7777 68 68 52.7777 68 34C68 15.2223 52.7777 0 34 0C15.2223 0 0 15.2223 0 34C0 52.7777 15.2223 68 34 68Z" fill="white"/>
<path d="M39.0085 22.417H28.6025V22.317L28.7715 20.732L29.0035 18.619C29.0316 18.4329 29.1265 18.2633 29.2703 18.1418C29.4142 18.0204 29.5973 17.9554 29.7855 17.959H37.8245C38.0157 17.9591 38.2001 18.0298 38.3424 18.1575C38.4847 18.2852 38.5748 18.4609 38.5955 18.651L38.8275 20.764L38.9965 22.349L39.0085 22.417Z" fill="#F6C863"/>
<path d="M38.9978 22.317H28.6128L28.7818 20.738H38.8288L38.9978 22.317Z" fill="#EAB54E"/>
<path d="M48.2158 28.444H52.0298V30.144H48.2158V28.444Z" fill="#EAB54E"/>
<path d="M53.2377 26.754H52.1667C51.23 26.754 50.4707 27.5131 50.4707 28.4495C50.4707 29.3859 51.23 30.145 52.1667 30.145H53.2377C54.1744 30.145 54.9337 29.3859 54.9337 28.4495C54.9337 27.5131 54.1744 26.754 53.2377 26.754Z" fill="#F6C863"/>
<path d="M15.5815 28.444H19.3955V30.144H15.5815V28.444Z" fill="#EAB54E"/>
<path d="M15.4438 26.754H14.3728C13.4361 26.754 12.6768 27.5131 12.6768 28.4495C12.6768 29.3859 13.4361 30.145 14.3728 30.145H15.4438C16.3804 30.145 17.1398 29.3859 17.1398 28.4495C17.1398 27.5131 16.3804 26.754 15.4438 26.754Z" fill="#F6C863"/>
<path d="M52.5729 42.96V49.299C52.5729 49.4018 52.5324 49.5005 52.4601 49.5737C52.3879 49.6469 52.2897 49.6887 52.1869 49.69H48.1629C48.06 49.6887 47.9619 49.6469 47.8896 49.5737C47.8174 49.5005 47.7768 49.4018 47.7769 49.299V42.96H52.5729Z" fill="#414451"/>
<path d="M48.6909 44.571H49.1289V49.671H48.6909V44.571Z" fill="#373A44"/>
<path d="M49.9526 44.571H50.3906V49.671H49.9526V44.571Z" fill="#373A44"/>
<path d="M51.2207 44.571H51.6587V49.671H51.2207V44.571Z" fill="#373A44"/>
<path d="M19.8336 42.96V49.299C19.8336 49.4018 19.7931 49.5005 19.7208 49.5737C19.6486 49.6469 19.5504 49.6887 19.4476 49.69H15.4236C15.3208 49.6887 15.2226 49.6469 15.1503 49.5737C15.0781 49.5005 15.0376 49.4018 15.0376 49.299V42.96H19.8336Z" fill="#414451"/>
<path d="M15.9517 44.571H16.3897V49.671H15.9517V44.571Z" fill="#373A44"/>
<path d="M17.2139 44.571H17.6519V49.671H17.2139V44.571Z" fill="#373A44"/>
<path d="M18.4819 44.571H18.9199V49.671H18.4819V44.571Z" fill="#373A44"/>
<path d="M52.5726 34.038V43.446C52.5726 43.8579 52.409 44.2529 52.1177 44.5441C51.8265 44.8354 51.4315 44.999 51.0196 44.999H16.5906C16.1787 44.999 15.7837 44.8354 15.4925 44.5441C15.2012 44.2529 15.0376 43.8579 15.0376 43.446V34.038C15.0363 33.6635 15.1714 33.3012 15.4176 33.019L18.0176 30.024L20.7476 22.775C20.8789 22.4105 21.1192 22.0953 21.4358 21.8722C21.7525 21.6491 22.1302 21.5289 22.5176 21.528H45.1886C45.5753 21.5286 45.9524 21.6487 46.2682 21.8719C46.584 22.0952 46.8231 22.4106 46.9526 22.775L49.5936 30.027L52.1936 33.022C52.4398 33.3042 52.5749 33.6665 52.5736 34.041L52.5726 34.038Z" fill="#F6C863"/>
<path d="M42.6266 35.517L42.1936 38.031C42.1814 38.1018 42.1447 38.1661 42.0898 38.2125C42.035 38.259 41.9655 38.2846 41.8936 38.285H25.7286C25.6568 38.2846 25.5873 38.259 25.5324 38.2125C25.4776 38.1661 25.4408 38.1018 25.4286 38.031L24.9956 35.531C24.9876 35.4873 24.9894 35.4425 25.0009 35.3996C25.0123 35.3567 25.0332 35.3169 25.0619 35.283C25.0906 35.2492 25.1264 35.2221 25.1668 35.2037C25.2073 35.1854 25.2512 35.1763 25.2956 35.177H42.3256C42.3689 35.1766 42.4118 35.1855 42.4513 35.2032C42.4908 35.2209 42.526 35.2469 42.5545 35.2795C42.583 35.3121 42.6042 35.3504 42.6164 35.392C42.6287 35.4335 42.6318 35.4772 42.6256 35.52L42.6266 35.517Z" fill="#575B6D"/>
<path d="M49.852 36.584C49.8528 37.1159 49.6693 37.6316 49.3326 38.0434C48.996 38.4552 48.527 38.7376 48.0056 38.8425C47.4841 38.9474 46.9424 38.8683 46.4727 38.6187C46.003 38.3692 45.6344 37.9645 45.4295 37.4737C45.2246 36.9828 45.1961 36.4361 45.349 35.9267C45.5018 35.4172 45.8265 34.9765 46.2678 34.6795C46.7091 34.3826 47.2396 34.2477 47.7691 34.2979C48.2986 34.3482 48.7944 34.5804 49.172 34.955C49.387 35.1684 49.5578 35.4221 49.6745 35.7017C49.7911 35.9812 49.8515 36.2811 49.852 36.584Z" fill="#EEEFEE"/>
<path d="M48.326 41.903C48.3247 42.1863 48.2252 42.4603 48.0446 42.6786C47.864 42.8968 47.6133 43.0456 47.3352 43.0998C47.0572 43.154 46.769 43.1101 46.5196 42.9757C46.2703 42.8412 46.0752 42.6245 45.9677 42.3625C45.8601 42.1004 45.8468 41.8091 45.9298 41.5383C46.0128 41.2675 46.1872 41.0338 46.4231 40.877C46.6591 40.7203 46.9421 40.6502 47.2239 40.6786C47.5058 40.707 47.7691 40.8323 47.969 41.033C48.1984 41.2643 48.3268 41.5772 48.326 41.903Z" fill="#EEEFEE"/>
<path d="M17.7578 36.584C17.757 37.1159 17.9405 37.6316 18.2771 38.0434C18.6138 38.4552 19.0828 38.7376 19.6042 38.8425C20.1257 38.9474 20.6673 38.8683 21.137 38.6187C21.6067 38.3692 21.9754 37.9645 22.1803 37.4737C22.3852 36.9828 22.4136 36.4361 22.2608 35.9267C22.1079 35.4172 21.7832 34.9765 21.342 34.6795C20.9007 34.3826 20.3701 34.2477 19.8406 34.2979C19.3111 34.3482 18.8154 34.5804 18.4378 34.955C18.2228 35.1684 18.052 35.4221 17.9353 35.7017C17.8186 35.9812 17.7583 36.2811 17.7578 36.584Z" fill="#EEEFEE"/>
<path d="M19.2847 41.903C19.286 42.1863 19.3854 42.4603 19.566 42.6786C19.7467 42.8968 19.9973 43.0456 20.2754 43.0998C20.5534 43.154 20.8417 43.1101 21.091 42.9757C21.3404 42.8412 21.5354 42.6245 21.643 42.3625C21.7505 42.1004 21.7639 41.8091 21.6808 41.5383C21.5978 41.2675 21.4235 41.0338 21.1875 40.877C20.9515 40.7203 20.6685 40.6502 20.3867 40.6786C20.1049 40.707 19.8416 40.8323 19.6417 41.033C19.4122 41.2643 19.2838 41.5772 19.2847 41.903Z" fill="#EEEFEE"/>
<path d="M42.8329 42.838V44.998H24.7939V42.838C24.7939 42.6322 24.8757 42.4348 25.0212 42.2893C25.1668 42.1438 25.3641 42.062 25.5699 42.062H42.0539C42.1564 42.0612 42.2579 42.0807 42.3527 42.1193C42.4476 42.158 42.5338 42.215 42.6065 42.2872C42.6792 42.3593 42.7369 42.4451 42.7763 42.5397C42.8157 42.6342 42.836 42.7356 42.8359 42.838H42.8329Z" fill="#575B6D"/>
<path d="M48.2099 30.832H19.4009L22.2319 23.321C22.2527 23.2538 22.2939 23.1947 22.3498 23.1521C22.4057 23.1094 22.4736 23.0853 22.5439 23.083H45.2149C45.2801 23.0816 45.3442 23.1008 45.398 23.1377C45.4518 23.1747 45.4927 23.2276 45.5149 23.289L48.2099 30.832Z" fill="#69B0EE"/>
<path opacity="0.5" d="M33.2726 23.083L29.2956 30.832H28.0376L32.0096 23.083H33.2726Z" fill="#EEEFEE"/>
<path opacity="0.5" d="M39.3677 23.083L35.3937 30.832H31.2437L35.2206 23.083H39.3677Z" fill="#EEEFEE"/>
</svg>
