
<svg width="25" height="16" viewBox="0 0 25 16" fill="none" xmlns="http://www.w3.org/2000/svg">
<path d="M21.7799 0H3.3279C2.6842 0.000793878 2.06709 0.256855 1.61192 0.712021C1.15676 1.16719 0.900696 1.7843 0.899902 2.428V13.111C0.900696 13.7547 1.15676 14.3718 1.61192 14.827C2.06709 15.2821 2.6842 15.5382 3.3279 15.539H21.7799C22.4236 15.5382 23.0407 15.2821 23.4959 14.827C23.951 14.3718 24.2071 13.7547 24.2079 13.111V2.428C24.2071 1.7843 23.951 1.16719 23.4959 0.712021C23.0407 0.256855 22.4236 0.000793878 21.7799 0ZM23.2369 13.111C23.2361 13.4971 23.0823 13.8671 22.8092 14.14C22.5361 14.4129 22.166 14.5665 21.7799 14.567H3.3279C2.94182 14.5665 2.57168 14.4129 2.29858 14.14C2.02549 13.8671 1.8717 13.4971 1.8709 13.111V2.428C1.87064 2.2364 1.90812 2.04663 1.9812 1.86951C2.05428 1.6924 2.16152 1.53141 2.29682 1.39574C2.43211 1.26008 2.59281 1.15239 2.76972 1.07883C2.94663 1.00526 3.1363 0.967265 3.3279 0.967003H21.7799C22.1662 0.967532 22.5364 1.12121 22.8096 1.39433C23.0827 1.66746 23.2364 2.03775 23.2369 2.424V13.111Z" fill="#474747"/>
<path d="M23.7229 2.91406H1.3859C1.25701 2.91406 1.13339 2.96527 1.04225 3.05641C0.951106 3.14755 0.899902 3.27117 0.899902 3.40007L0.899902 6.31407C0.899902 6.44297 0.951106 6.56659 1.04225 6.65773C1.13339 6.74887 1.25701 6.80006 1.3859 6.80006H23.7229C23.8518 6.80006 23.9754 6.74887 24.0666 6.65773C24.1577 6.56659 24.2089 6.44297 24.2089 6.31407V3.40007C24.2089 3.27117 24.1577 3.14755 24.0666 3.05641C23.9754 2.96527 23.8518 2.91406 23.7229 2.91406ZM23.2369 5.82806H1.8709V3.88107H23.2369V5.82307V5.82806Z" fill="#474747"/>
<path d="M10.1268 9.71193H4.29979C4.23418 9.70895 4.16865 9.7193 4.10715 9.74235C4.04565 9.76541 3.98946 9.80071 3.94198 9.84608C3.8945 9.89146 3.8567 9.94597 3.83088 10.0064C3.80506 10.0667 3.79175 10.1318 3.79175 10.1974C3.79175 10.2631 3.80506 10.3281 3.83088 10.3885C3.8567 10.4489 3.8945 10.5034 3.94198 10.5488C3.98946 10.5942 4.04565 10.6295 4.10715 10.6525C4.16865 10.6756 4.23418 10.6859 4.29979 10.6829H10.1268C10.1924 10.6859 10.2579 10.6756 10.3194 10.6525C10.3809 10.6295 10.4371 10.5942 10.4846 10.5488C10.5321 10.5034 10.5699 10.4489 10.5957 10.3885C10.6215 10.3281 10.6348 10.2631 10.6348 10.1974C10.6348 10.1318 10.6215 10.0667 10.5957 10.0064C10.5699 9.94597 10.5321 9.89146 10.4846 9.84608C10.4371 9.80071 10.3809 9.76541 10.3194 9.74235C10.2579 9.7193 10.1924 9.70895 10.1268 9.71193Z" fill="#474747"/>
<path d="M10.1269 11.6538H4.2999C4.17495 11.6595 4.05699 11.7131 3.97057 11.8035C3.88416 11.894 3.83594 12.0142 3.83594 12.1393C3.83594 12.2644 3.88416 12.3846 3.97057 12.4751C4.05699 12.5655 4.17495 12.6191 4.2999 12.6248H10.1269C10.2519 12.6191 10.3698 12.5655 10.4562 12.4751C10.5426 12.3846 10.5909 12.2644 10.5909 12.1393C10.5909 12.0142 10.5426 11.894 10.4562 11.8035C10.3698 11.7131 10.2519 11.6595 10.1269 11.6538Z" fill="#474747"/>
<path d="M19.8379 8.74121H18.8669C18.4807 8.74174 18.1104 8.89539 17.8372 9.16852C17.5641 9.44164 17.4104 9.81195 17.4099 10.1982V11.1692C17.4102 11.5555 17.5638 11.926 17.8369 12.1992C18.1101 12.4723 18.4806 12.6259 18.8669 12.6262H19.8379C20.2242 12.6257 20.5945 12.472 20.8676 12.1989C21.1407 11.9258 21.2944 11.5554 21.2949 11.1692V10.1982C21.2944 9.81195 21.1407 9.44164 20.8676 9.16852C20.5945 8.89539 20.2242 8.74174 19.8379 8.74121ZM20.3239 11.1692C20.3239 11.2981 20.2727 11.4217 20.1816 11.5128C20.0904 11.604 19.9668 11.6552 19.8379 11.6552H18.8669C18.738 11.6552 18.6144 11.604 18.5233 11.5128C18.4321 11.4217 18.3809 11.2981 18.3809 11.1692V10.1982C18.3809 10.0693 18.4321 9.9457 18.5233 9.85455C18.6144 9.76341 18.738 9.71219 18.8669 9.71219H19.8379C19.9668 9.71219 20.0904 9.76341 20.1816 9.85455C20.2727 9.9457 20.3239 10.0693 20.3239 10.1982V11.1692Z" fill="#474747"/>
</svg>
