<svg width="22" height="18" viewBox="0 0 22 18" fill="none" xmlns="http://www.w3.org/2000/svg">
<path d="M20.5809 0.0146484H1.8999C1.63469 0.0146484 1.38033 0.120005 1.1928 0.307541C1.00526 0.495077 0.899902 0.749432 0.899902 1.01465L0.899902 13.0486C0.899902 13.3139 1.00526 13.5682 1.1928 13.7558C1.38033 13.9433 1.63469 14.0486 1.8999 14.0486H3.9599C4.04026 14.0486 4.11733 14.0167 4.17416 13.9599C4.23098 13.9031 4.2629 13.826 4.2629 13.7456C4.2629 13.6653 4.23098 13.5882 4.17416 13.5314C4.11733 13.4746 4.04026 13.4426 3.9599 13.4426H1.8999C1.79382 13.4426 1.69207 13.4005 1.61706 13.3255C1.54205 13.2505 1.4999 13.1487 1.4999 13.0426V5.34265H20.9779V13.0426C20.9779 13.1487 20.9358 13.2505 20.8607 13.3255C20.7857 13.4005 20.684 13.4426 20.5779 13.4426H20.3569C20.7567 12.1678 20.6771 10.7909 20.1329 9.57065C20.1166 9.53434 20.0933 9.50159 20.0644 9.47428C20.0355 9.44696 20.0014 9.42561 19.9642 9.41145C19.927 9.39729 19.8874 9.39059 19.8477 9.39174C19.8079 9.39289 19.7687 9.40186 19.7324 9.41815C19.6961 9.43443 19.6633 9.45771 19.636 9.48665C19.6087 9.51559 19.5874 9.54963 19.5732 9.58681C19.559 9.624 19.5523 9.66362 19.5535 9.7034C19.5546 9.74318 19.5636 9.78234 19.5799 9.81865C19.9343 10.6122 20.0695 11.4862 19.9715 12.3497C19.8736 13.2132 19.546 14.0347 19.0229 14.7286H11.2579C10.4811 13.7029 10.1425 12.4111 10.3161 11.1362C10.4898 9.86133 11.1617 8.70722 12.1846 7.92669C13.2075 7.14615 14.4981 6.80281 15.7736 6.97187C17.0491 7.14093 18.2057 7.8086 18.9899 8.82865C19.0391 8.89217 19.1115 8.93354 19.1912 8.94367C19.2709 8.9538 19.3514 8.93185 19.4149 8.88265C19.4784 8.83345 19.5198 8.76103 19.5299 8.68133C19.54 8.60163 19.5181 8.52117 19.4689 8.45765C18.6836 7.44235 17.5663 6.73554 16.3125 6.46089C15.0587 6.18624 13.7482 6.36125 12.6104 6.9553C11.4726 7.54935 10.58 8.52459 10.0887 9.71038C9.59735 10.8962 9.53867 12.217 9.9229 13.4417H5.0469C4.96654 13.4417 4.88947 13.4736 4.83265 13.5304C4.77583 13.5872 4.7439 13.6643 4.7439 13.7446C4.7439 13.825 4.77583 13.9021 4.83265 13.9589C4.88947 14.0157 4.96654 14.0476 5.0469 14.0476H10.1539C10.5864 15.0085 11.2872 15.824 12.1721 16.3961C13.0569 16.9681 14.0882 17.2725 15.1419 17.2725C16.1956 17.2725 17.2269 16.9681 18.1117 16.3961C18.9966 15.824 19.6974 15.0085 20.1299 14.0476H20.5819C20.8471 14.0476 21.1015 13.9423 21.289 13.7548C21.4765 13.5672 21.5819 13.3129 21.5819 13.0476V1.01765C21.5819 0.752434 21.4765 0.498079 21.289 0.310543C21.1015 0.123007 20.8471 0.0176506 20.5819 0.0176506L20.5809 0.0146484ZM11.7999 15.3366H18.4839C17.5818 16.1927 16.3856 16.67 15.1419 16.67C13.8982 16.67 12.702 16.1927 11.7999 15.3366ZM1.5059 4.74565V3.50365H16.6999C16.7803 3.50365 16.8573 3.47173 16.9142 3.4149C16.971 3.35808 17.0029 3.28101 17.0029 3.20065C17.0029 3.12029 16.971 3.04322 16.9142 2.9864C16.8573 2.92957 16.7803 2.89765 16.6999 2.89765H1.5059V1.01765C1.5059 0.911564 1.54805 0.809821 1.62306 0.734806C1.69807 0.659792 1.79982 0.617649 1.9059 0.617649H20.5809C20.687 0.617649 20.7887 0.659792 20.8637 0.734806C20.9388 0.809821 20.9809 0.911564 20.9809 1.01765V2.89765H17.8259C17.7455 2.89765 17.6685 2.92957 17.6116 2.9864C17.5548 3.04322 17.5229 3.12029 17.5229 3.20065C17.5229 3.28101 17.5548 3.35808 17.6116 3.4149C17.6685 3.47173 17.7455 3.50365 17.8259 3.50365H20.9779V4.74565H1.5059Z" fill="#474747"/>
<path d="M8.23988 11.7088C8.89088 11.3968 9.24987 10.9558 9.24987 10.4668C9.24987 9.9778 8.89088 9.53679 8.23988 9.22479C7.55736 8.94039 6.82527 8.79395 6.08587 8.79395C5.34647 8.79395 4.61439 8.94039 3.93187 9.22479C3.28087 9.53679 2.92188 9.9778 2.92188 10.4668C2.92188 10.9558 3.28087 11.3968 3.93187 11.7088C4.61439 11.9932 5.34647 12.1396 6.08587 12.1396C6.82527 12.1396 7.55736 11.9932 8.23988 11.7088ZM3.52787 10.4668C3.52787 10.2268 3.77087 9.97378 4.19387 9.76678C5.40679 9.27079 6.76595 9.27079 7.97887 9.76678C8.40187 9.96678 8.64487 10.2228 8.64487 10.4668C8.64487 10.7108 8.40187 10.9598 7.97887 11.1668C6.76595 11.6628 5.40679 11.6628 4.19387 11.1668C3.77087 10.9588 3.52787 10.7058 3.52787 10.4668Z" fill="#474747"/>
<path d="M13.0919 10.8154C13.2087 10.8151 13.323 10.85 13.4199 10.9154C13.4527 10.9377 13.4896 10.9533 13.5284 10.9613C13.5673 10.9693 13.6073 10.9695 13.6463 10.9621C13.6853 10.9546 13.7223 10.9395 13.7555 10.9177C13.7886 10.8959 13.8171 10.8678 13.8394 10.8349C13.8616 10.8021 13.8772 10.7652 13.8852 10.7263C13.8932 10.6875 13.8935 10.6475 13.886 10.6085C13.8785 10.5696 13.8635 10.5325 13.8416 10.4993C13.8198 10.4662 13.7917 10.4377 13.7588 10.4154C13.6042 10.3111 13.4273 10.2445 13.2423 10.221C13.0573 10.1974 12.8693 10.2176 12.6935 10.2798C12.5176 10.3421 12.3589 10.4447 12.2299 10.5795C12.1009 10.7142 12.0053 10.8773 11.9508 11.0557C11.8963 11.2341 11.8843 11.4227 11.9159 11.6065C11.9475 11.7904 12.0218 11.9642 12.1328 12.1141C12.2437 12.2641 12.3883 12.3859 12.5548 12.4698C12.7214 12.5537 12.9053 12.5975 13.0919 12.5974C13.2426 12.6011 13.3923 12.5706 13.5296 12.5083C13.6669 12.446 13.7884 12.3533 13.8849 12.2374C13.9364 12.1759 13.9615 12.0964 13.9544 12.0164C13.9474 11.9364 13.9089 11.8625 13.8474 11.8109C13.7858 11.7594 13.7063 11.7343 13.6263 11.7414C13.5464 11.7484 13.4725 11.7869 13.4209 11.8484C13.4079 11.8638 13.3939 11.8782 13.3789 11.8914C13.2992 11.9597 13.1967 11.9954 13.0919 11.9914C13.0128 11.9947 12.9339 11.9819 12.8599 11.9539C12.7859 11.9259 12.7183 11.8833 12.6612 11.8285C12.6041 11.7737 12.5587 11.7079 12.5277 11.6352C12.4966 11.5624 12.4807 11.4841 12.4807 11.4049C12.4807 11.3258 12.4966 11.2475 12.5277 11.1747C12.5587 11.1019 12.6041 11.0362 12.6612 10.9814C12.7183 10.9266 12.7859 10.8839 12.8599 10.8559C12.9339 10.8279 13.0128 10.8151 13.0919 10.8184V10.8154Z" fill="#474747"/>
<path d="M15.5559 10.4204L15.2189 11.4344L14.8639 10.4134C14.8373 10.3376 14.7818 10.2754 14.7094 10.2405C14.637 10.2056 14.5537 10.2009 14.4779 10.2274C14.402 10.2539 14.3398 10.3095 14.3049 10.3819C14.2701 10.4543 14.2654 10.5376 14.2919 10.6134L14.9009 12.3684C14.9246 12.4351 14.9684 12.4928 15.0262 12.5337C15.0841 12.5745 15.1531 12.5964 15.2239 12.5964C15.2955 12.5958 15.3651 12.5727 15.423 12.5306C15.4809 12.4885 15.5242 12.4293 15.5469 12.3614L16.1279 10.6124C16.1404 10.5747 16.1454 10.5348 16.1426 10.4952C16.1397 10.4555 16.129 10.4167 16.1112 10.3812C16.0934 10.3456 16.0687 10.3139 16.0386 10.2879C16.0086 10.2618 15.9736 10.242 15.9359 10.2294C15.8981 10.2169 15.8583 10.2119 15.8186 10.2148C15.7789 10.2177 15.7402 10.2283 15.7046 10.2461C15.6691 10.264 15.6373 10.2886 15.6113 10.3187C15.5853 10.3488 15.5654 10.3837 15.5529 10.4214L15.5559 10.4204Z" fill="#474747"/>
<path d="M17.7929 10.4204L17.4559 11.4344L17.1009 10.4134C17.0744 10.3376 17.0188 10.2754 16.9465 10.2405C16.8741 10.2056 16.7908 10.2009 16.7149 10.2274C16.6391 10.2539 16.5769 10.3095 16.542 10.3819C16.5071 10.4543 16.5024 10.5376 16.5289 10.6134L17.1379 12.3684C17.1617 12.4351 17.2055 12.4928 17.2633 12.5337C17.3211 12.5745 17.3902 12.5964 17.4609 12.5964C17.5325 12.5958 17.6021 12.5727 17.66 12.5306C17.7179 12.4885 17.7613 12.4293 17.7839 12.3614L18.3649 10.6124C18.3775 10.5747 18.3824 10.5348 18.3796 10.4952C18.3767 10.4555 18.3661 10.4167 18.3482 10.3812C18.3304 10.3456 18.3058 10.3139 18.2757 10.2879C18.2456 10.2618 18.2107 10.242 18.1729 10.2294C18.1352 10.2169 18.0953 10.2119 18.0556 10.2148C18.016 10.2177 17.9772 10.2283 17.9417 10.2461C17.9061 10.264 17.8744 10.2886 17.8484 10.3187C17.8223 10.3488 17.8025 10.3837 17.7899 10.4214L17.7929 10.4204Z" fill="#474747"/>
</svg>
