<svg width="15" height="14" viewBox="0 0 15 14" fill="none" xmlns="http://www.w3.org/2000/svg">
<path d="M14.8992 2.43466C14.9028 2.11722 14.8434 1.80223 14.7244 1.50783C14.6054 1.21343 14.4292 0.945463 14.2059 0.71937C13.7476 0.267055 13.1318 0.00927354 12.4873 2.14915e-05C12.1737 -0.0013088 11.8629 0.0591309 11.5727 0.177879C11.2825 0.296626 11.0186 0.471349 10.7961 0.692039L14.2059 4.12261C14.4322 3.90444 14.6106 3.64177 14.73 3.35123C14.8493 3.06068 14.9069 2.74858 14.8992 2.43466Z" fill="#3422F2"/>
<path d="M13.4308 4.8983L10.0206 1.49463L2.11985 9.38035L5.53002 12.784L13.4308 4.8983Z" fill="#3422F2"/>
<path d="M1.67649 10.4863L0.899902 14L4.42027 13.2249L1.67649 10.4863Z" fill="#3422F2"/>
</svg>
