<svg width="23" height="16" viewBox="0 0 23 16" fill="none" xmlns="http://www.w3.org/2000/svg">
<path d="M20.8399 15.4812H2.6619C2.19423 15.4807 1.74592 15.2945 1.41551 14.9635C1.0851 14.6326 0.899637 14.1839 0.899903 13.7163V2.54325C0.900432 2.0761 1.08624 1.62824 1.41657 1.29791C1.74689 0.967588 2.19475 0.781779 2.6619 0.78125L20.8399 0.78125C21.1421 0.782894 21.4386 0.863565 21.6999 1.01525C21.8376 1.06369 21.9582 1.15127 22.0469 1.26725C22.2217 1.43063 22.361 1.62823 22.4561 1.84775C22.5512 2.06726 22.6002 2.304 22.5999 2.54325V13.7163C22.6002 14.1836 22.415 14.6319 22.085 14.9628C21.755 15.2937 21.3072 15.4802 20.8399 15.4812ZM2.4099 2.98725V13.7172C2.41068 13.7838 2.43748 13.8475 2.48457 13.8946C2.53166 13.9417 2.59531 13.9685 2.6619 13.9692H20.8399C20.9065 13.9685 20.9701 13.9417 21.0172 13.8946C21.0643 13.8475 21.0911 13.7838 21.0919 13.7172V2.87325L12.1699 8.82625C12.0464 8.90808 11.9015 8.95173 11.7534 8.95173C11.6053 8.95173 11.4604 8.90808 11.3369 8.82625L2.4099 2.98725ZM4.0999 2.29125L11.7419 7.29125L19.2419 2.29125H4.0999Z" fill="#474747"/>
</svg>
