<svg width="29" height="40" viewBox="0 0 29 40" fill="none" xmlns="http://www.w3.org/2000/svg">
<path d="M28.0826 14C28.0826 6.26801 21.7961 0 14.0413 0C6.2865 0 0 6.26801 0 14V26C0 33.732 6.2865 40 14.0413 40C21.7961 40 28.0826 33.732 28.0826 26V14Z" fill="#3422F2"/>
<path d="M27.5811 14C27.5811 6.54416 21.5191 0.5 14.0413 0.5C6.56345 0.5 0.501465 6.54416 0.501465 14V26C0.501465 33.4558 6.56345 39.5 14.0413 39.5C21.5191 39.5 27.5811 33.4558 27.5811 26V14Z" stroke="#3422F2"/>
<path d="M14.2918 32.75C16.646 32.75 18.5544 30.8472 18.5544 28.5C18.5544 26.1528 16.646 24.25 14.2918 24.25C11.9377 24.25 10.0293 26.1528 10.0293 28.5C10.0293 30.8472 11.9377 32.75 14.2918 32.75Z" fill="white"/>
</svg>
