<svg width="27" height="24" viewBox="0 0 27 24" fill="none" xmlns="http://www.w3.org/2000/svg">
<path d="M7.01205 5.63028L5.80196 4.59229C5.42979 5.02597 5.09017 5.48655 4.78589 5.97028L6.14099 6.81728C6.40116 6.40034 6.69234 6.00355 7.01205 5.63028Z" fill="#474747"/>
<path d="M9.2362 3.70242L8.37813 2.35742C7.89542 2.66396 7.43612 3.0059 7.00403 3.38042L8.04811 4.58042C8.42199 4.25892 8.8191 3.96545 9.2362 3.70242Z" fill="#474747"/>
<path d="M24.9186 6.93518C23.5835 4.27972 21.2784 2.2393 18.4803 1.23634C15.6823 0.233369 12.6057 0.344663 9.88752 1.54718L10.5346 3.00418C12.318 2.21076 14.2952 1.95832 16.2209 2.27817C18.1465 2.59801 19.9359 3.47607 21.367 4.80343C22.7982 6.1308 23.8082 7.84906 24.2717 9.7451C24.7353 11.6411 24.632 13.6315 23.9746 15.4694C23.3173 17.3073 22.1348 18.9118 20.574 20.0839C19.0131 21.256 17.1424 21.9441 15.194 22.0629C13.2456 22.1817 11.3052 21.726 9.61344 20.7522C7.92168 19.7785 6.55302 18.3296 5.67721 16.5852L4.2511 17.2982C4.92181 18.6715 5.85821 19.8981 7.0061 20.9072C8.15399 21.9163 9.4906 22.6878 10.9386 23.177C12.3866 23.6663 13.9172 23.8635 15.442 23.7574C16.9667 23.6513 18.4553 23.2439 19.8215 22.5589C21.1878 21.8738 22.4046 20.9247 23.4017 19.7663C24.3987 18.6079 25.1562 17.2634 25.6302 15.8105C26.1042 14.3575 26.2854 12.825 26.1632 11.3016C26.0411 9.77815 25.6181 8.29407 24.9186 6.93518Z" fill="#474747"/>
<path d="M5.6431 9.96036L4.69203 10.9093C4.78339 10.1228 4.9708 9.35034 5.25007 8.60934C5.31107 8.44634 5.37808 8.28435 5.45008 8.12335L3.98797 7.48535C3.90797 7.66935 3.82896 7.85635 3.76196 8.04335C3.39491 9.00698 3.16172 10.0164 3.06891 11.0434L1.98983 9.96335L0.859741 11.0874L3.81496 14.0423L6.77018 11.0874L5.6431 9.96036Z" fill="#474747"/>
<path d="M13.3828 4.94336V12.9154H18.1712V11.3214H14.9819V4.94336H13.3828Z" fill="#474747"/>
<path d="M21.3552 11.3213H19.7611V12.9153H21.3552V11.3213Z" fill="#474747"/>
<path d="M14.9769 17.6982H13.3828V19.2922H14.9769V17.6982Z" fill="#474747"/>
</svg>
