
<svg width="201" height="205" viewBox="0 0 201 205" fill="none" xmlns="http://www.w3.org/2000/svg">
<path d="M3.69784 204.074H2.00928L8.33185 171.243L9.74109 171.509L3.69784 204.074Z" fill="#B5B5B5"/>
<path d="M127.737 11.8834V45.3371V191.962C127.737 192.368 127.716 192.77 127.673 193.168C127.115 198.767 122.684 203.211 117.11 203.782C116.712 203.816 116.31 203.833 115.904 203.833H28.0865C27.9003 203.833 27.7098 203.829 27.5152 203.82C27.4559 203.82 27.3925 203.816 27.3247 203.807C27.1978 203.799 27.0751 203.791 26.9566 203.782C26.8804 203.774 26.8042 203.765 26.728 203.757C26.618 203.748 26.508 203.736 26.3979 203.719C26.3133 203.702 26.2329 203.689 26.1567 203.68C26.0551 203.664 25.9536 203.647 25.852 203.63C25.7674 203.613 25.6827 203.596 25.5981 203.579C25.505 203.554 25.4161 203.532 25.3315 203.515C25.2384 203.49 25.1495 203.465 25.0649 203.439C24.9802 203.422 24.8956 203.401 24.811 203.376C24.574 203.308 24.3454 203.232 24.1254 203.147C24.1 203.147 24.0788 203.143 24.0619 203.135C19.5041 201.471 16.2539 197.104 16.2539 191.962V158.508V11.8834C16.2539 11.4771 16.2708 11.0751 16.3047 10.6773C16.8379 5.48463 20.6975 1.26959 25.6997 0.241222C25.8943 0.207366 26.089 0.173512 26.2837 0.139656C26.673 0.0804082 27.0708 0.0423212 27.4771 0.0253934C27.6802 0.00846549 27.8834 0 28.0865 0H115.904C116.09 0 116.281 0.00846549 116.475 0.0253934C116.535 0.0253934 116.598 0.0296261 116.666 0.0380901C116.784 0.0380901 116.907 0.0465517 117.034 0.0634796C117.11 0.0719435 117.186 0.080409 117.263 0.0888729C117.373 0.0973369 117.478 0.110031 117.58 0.126959C117.665 0.135423 117.749 0.148121 117.834 0.165049C117.935 0.181977 118.033 0.198904 118.126 0.215832C118.219 0.23276 118.308 0.249687 118.393 0.266615C118.486 0.292007 118.574 0.313167 118.659 0.330094C118.752 0.355486 118.841 0.376646 118.926 0.393574C119.01 0.418966 119.095 0.444358 119.18 0.46975C119.425 0.537462 119.666 0.613636 119.903 0.698275C119.912 0.706739 119.92 0.710972 119.929 0.710972C124.487 2.36144 127.737 6.74153 127.737 11.8834Z" fill="#D3D3D3"/>
<path d="M121.998 187.646H21.9924V16.2002H121.998V187.646Z" fill="#F5F5F5"/>
<path d="M93.3692 10.8043H50.7871C50.7236 10.8043 50.6729 10.7662 50.6729 10.7027V8.77295C50.6729 8.70947 50.7236 8.65869 50.7871 8.65869H93.3692C93.42 8.65869 93.4708 8.70947 93.4708 8.77295V10.7027C93.4708 10.7662 93.42 10.8043 93.3692 10.8043Z" fill="#8E8E8E"/>
<g opacity="0.3">
<path d="M76.8515 195.911C76.8515 198.628 74.6552 200.837 71.9382 200.837C69.2213 200.837 67.0249 198.628 67.0249 195.911C67.0249 193.181 69.2213 190.972 71.9382 190.972C74.6552 190.972 76.8515 193.181 76.8515 195.911Z" fill="white"/>
</g>
<path d="M44.3628 171.509L45.7721 171.243L51.8661 203.655L50.4568 203.922L44.3628 171.509Z" fill="#B5B5B5"/>
<path d="M34.7393 204.074H33.0508L39.3607 171.243L40.7699 171.509L34.7393 204.074Z" fill="#B5B5B5"/>
<path d="M13.0549 171.661L14.4642 171.382L20.5328 204.086L19.149 204.074L13.0549 171.661Z" fill="#B5B5B5"/>
<path d="M45.9624 139.681C49.6188 145.965 48.4634 149.304 56.6523 165.339C61.9719 175.75 51.5993 182.021 51.5993 182.021C34.4345 192.381 14.0068 185.462 7.74767 179.863C1.48859 174.264 -2.67567 154.103 5.24657 140.607C12.4959 128.254 19.7199 127.632 25.3061 127.023C37.1514 125.753 42.2932 133.409 45.9624 139.681Z" fill="#E4E4E4"/>
<path d="M5.24657 140.608C10.198 132.177 15.124 129.207 19.5422 127.988C17.8282 129.753 16.1016 132.038 14.3749 134.983C6.45269 148.479 10.6169 168.627 16.876 174.239C22.4241 179.203 39.1193 185.196 54.7987 179.279C53.1863 181.069 51.5993 182.022 51.5993 182.022C34.4345 192.381 14.0068 185.462 7.74767 179.863C1.48859 174.264 -2.67567 154.103 5.24657 140.608Z" fill="#D6D6D6"/>
<path d="M43.2199 147.539L44.6545 151.856L40.2871 150.129L43.2199 147.539Z" fill="#F79C8D"/>
<path d="M38.7 134.844C38.7066 134.843 38.7116 134.842 38.7153 134.841C38.9334 134.856 39.6923 135.079 40.8402 137.249C41.5747 138.643 42.488 141.459 43.2206 143.941C43.586 145.179 43.9051 146.33 44.1328 147.17C44.2467 147.591 44.3377 147.934 44.4002 148.171C44.4261 148.27 44.4472 148.35 44.4629 148.411L38.2066 150.74L37.4505 149.111L36.0817 135.575L36.3871 135.487C36.6429 135.413 36.9847 135.315 37.3288 135.218C37.673 135.12 38.0191 135.023 38.2837 134.951C38.4162 134.916 38.5273 134.886 38.6074 134.866C38.6476 134.856 38.6786 134.849 38.7 134.844Z" fill="#F3F3F3" stroke="black" stroke-width="0.3"/>
<path d="M37.6728 167.789C37.6663 167.749 37.6589 167.703 37.6506 167.651C37.6185 167.449 37.5734 167.157 37.5214 166.801C37.4175 166.087 37.2859 165.112 37.1753 164.064C37.0648 163.017 36.9751 161.896 36.9553 160.891C36.9357 159.89 36.9847 158.989 37.1599 158.39M37.6728 167.789L37.3039 158.432M37.6728 167.789L18.7351 167.54L18.7389 167.51C18.7555 167.382 18.7796 167.193 18.8101 166.951C18.8709 166.469 18.9569 165.776 19.0574 164.936C19.2584 163.256 19.5176 160.986 19.7503 158.628C19.9829 156.27 20.1891 153.823 20.2839 151.787C20.3313 150.769 20.3509 149.853 20.3319 149.101C20.3129 148.354 20.2556 147.755 20.1429 147.382L20.1428 147.381C19.9319 146.693 19.7694 145.564 19.6456 144.246C19.5222 142.932 19.4382 141.443 19.3811 140.039C19.324 138.636 19.2939 137.321 19.2781 136.357C19.2701 135.875 19.2658 135.48 19.2634 135.206C19.2623 135.079 19.2616 134.978 19.2612 134.906M37.6728 167.789L19.2612 134.906M37.1599 158.39C37.1599 158.39 37.1599 158.39 37.1599 158.39L37.3039 158.432M37.1599 158.39C37.1598 158.39 37.1598 158.39 37.1598 158.39L37.3039 158.432M37.1599 158.39C38.6457 153.282 38.9979 147.363 38.9773 142.715C38.967 140.393 38.8636 138.39 38.7628 136.969C38.7124 136.258 38.6627 135.692 38.6256 135.305C38.607 135.111 38.5916 134.962 38.5809 134.861C38.5787 134.84 38.5767 134.821 38.5748 134.805M37.3039 158.432C40.2874 148.174 38.7131 134.691 38.7131 134.691M38.5748 134.805C38.6061 134.814 38.6369 134.824 38.6672 134.834L38.7131 134.691M38.5748 134.805C37.5178 134.478 35.8922 134.182 34.2892 133.967C32.6397 133.745 31.0286 133.609 30.1053 133.609C28.1331 133.609 25.4248 133.837 23.4657 134.179L23.4655 134.179C21.3706 134.54 20.2883 134.728 19.7298 134.824L19.2612 134.906M38.5748 134.805C38.5723 134.781 38.5701 134.762 38.5685 134.747L38.5652 134.718L38.5644 134.711L38.5642 134.709L38.5641 134.708C38.5641 134.708 38.5641 134.708 38.7131 134.691M38.7131 134.691L19.2612 134.906" fill="#F3F3F3" stroke="black" stroke-width="0.3"/>
<path d="M27.8583 192.991C27.8583 192.991 28.29 197.904 29.0772 199.275C29.8643 200.634 29.0391 202.957 28.9883 203.274C28.9502 203.592 27.3378 204.049 24.7859 203.77C22.2214 203.503 22.2594 202.906 22.4753 201.954C22.6784 201.002 24.0369 199.77 24.1257 198.869C24.2019 197.955 23.3386 194.679 23.3386 194.679L27.8583 192.991Z" fill="#F3FCFF"/>
<path d="M35.679 163.879L35.6719 164.028L35.6796 164.029L35.6873 164.028L35.679 163.879ZM35.679 163.879C35.6873 164.028 35.6873 164.028 35.6874 164.028L35.6879 164.028L35.6896 164.028L35.6968 164.028L35.7252 164.026L35.8367 164.021C35.9346 164.016 36.0787 164.009 36.2633 164C36.6323 163.984 37.163 163.962 37.8091 163.942C39.1016 163.901 40.8553 163.865 42.7014 163.886C44.548 163.906 46.4841 163.983 48.1422 164.167C48.9713 164.259 49.7283 164.377 50.3685 164.528C51.011 164.679 51.5259 164.86 51.8774 165.073C52.5852 165.503 52.8946 166.035 52.9768 166.587C53.0602 167.147 52.912 167.748 52.6653 168.31C52.4193 168.87 52.0814 169.377 51.8032 169.747C51.6645 169.931 51.5413 170.08 51.453 170.182C51.4089 170.234 51.3736 170.273 51.3495 170.3L51.3335 170.317L51.3317 170.318C51.311 170.327 51.2798 170.34 51.2383 170.357C51.1553 170.391 51.0308 170.442 50.8657 170.507C50.5354 170.638 50.0428 170.825 49.3947 171.053C48.0986 171.51 46.1806 172.13 43.6965 172.783C38.7281 174.088 31.495 175.524 22.4413 176.044L22.441 176.044C21.4458 176.103 20.6595 175.49 20.0455 174.46C19.4316 173.429 19.0112 172.012 18.7475 170.544C18.4842 169.079 18.3794 167.576 18.39 166.381C18.3953 165.783 18.4295 165.266 18.4863 164.871C18.5147 164.673 18.5484 164.509 18.5859 164.382C18.6242 164.253 18.6622 164.177 18.6916 164.141C18.6983 164.134 18.718 164.117 18.7628 164.096C18.807 164.075 18.867 164.053 18.9441 164.031C19.0981 163.988 19.3068 163.95 19.5653 163.916C20.0814 163.848 20.7789 163.801 21.5979 163.771C23.2351 163.712 25.3442 163.721 27.4303 163.759C29.5159 163.797 31.5763 163.864 33.1156 163.922C33.8851 163.951 34.5243 163.978 34.971 163.997C35.1944 164.007 35.3697 164.015 35.4891 164.02L35.6253 164.026L35.6602 164.028L35.669 164.028L35.6712 164.028L35.6717 164.028C35.6718 164.028 35.6719 164.028 35.679 163.879Z" fill="#B3B3B3" stroke="black" stroke-width="0.3"/>
<path d="M24.4683 204.15C21.8275 203.871 22.1576 202.576 22.3608 201.598C22.5004 200.976 23.2495 200.252 23.7065 199.567C23.9477 199.757 24.3286 200.087 25.4713 200.43C26.652 200.773 28.2897 200.087 29.3308 199.643C29.699 201.027 29.7117 202.779 29.6736 203.046C29.6355 203.376 27.0963 204.429 24.4683 204.15Z" fill="#101010"/>
<path d="M25.7669 173.42L25.7669 173.42C26.0335 175.433 26.8238 181.447 27.5475 186.959C27.9093 189.715 28.2545 192.345 28.5092 194.286L28.8142 196.61L28.8985 197.253L28.9085 197.329L23.0791 198.057L23.0303 197.885C22.9754 197.693 22.895 197.41 22.7929 197.049C22.5885 196.326 22.2969 195.289 21.9483 194.032C21.2509 191.518 20.3252 188.125 19.4113 184.607C18.4974 181.088 17.5958 177.447 16.9466 174.435C16.622 172.93 16.3608 171.583 16.1927 170.49C16.0239 169.391 15.9515 168.562 15.9971 168.083C16.1838 166.122 16.9646 165.078 17.6821 164.523C18.043 164.243 18.392 164.084 18.6498 163.995C18.7787 163.95 18.8844 163.923 18.957 163.908C18.9933 163.9 19.0213 163.895 19.0396 163.892L19.0598 163.889L19.0642 163.888L19.0646 163.888L19.0646 163.888L19.0736 163.887L19.0737 163.887L19.0738 163.887L19.0739 163.887L19.0756 163.886L19.085 163.885C19.0938 163.884 19.1075 163.882 19.126 163.88C19.1629 163.875 19.2185 163.87 19.2906 163.867C19.4349 163.861 19.6446 163.864 19.9017 163.899C20.4152 163.97 21.1183 164.172 21.8666 164.698C23.3608 165.749 25.0654 168.118 25.7669 173.42Z" fill="#B3B3B3" stroke="black" stroke-width="0.3"/>
<path d="M41.2523 161.061C41.0873 161.454 39.4114 159.931 39.4114 159.931M41.2523 161.061C41.3947 160.681 40.5722 159.835 40.1738 159.426C40.146 159.397 40.1202 159.371 40.097 159.347C39.8177 159.055 36.4914 157.696 36.3644 157.671C36.047 157.607 35.4376 157.658 34.7774 157.747L39.4114 159.931M41.2523 161.061L41.114 161.003C41.1169 160.996 41.1254 160.984 41.1384 160.978C41.1432 160.976 41.1461 160.975 41.146 160.975C41.1459 160.975 41.1428 160.976 41.1355 160.975C41.1305 160.975 41.1248 160.974 41.1184 160.973C41.1177 160.987 41.1153 160.999 41.1119 161.008L41.2523 161.061ZM39.4114 159.931L39.1764 159.798M39.4114 159.931L39.1764 159.798M39.1764 159.798C39.0068 159.65 38.8466 159.506 38.7036 159.366L38.5989 159.474L38.5254 159.604L39.1764 159.798ZM36.7327 160.97C36.3741 160.841 36.0268 160.96 35.7392 161.094C35.666 161.129 35.5943 161.165 35.5258 161.2L35.5002 161.213C35.4404 161.243 35.3835 161.272 35.3277 161.299C35.199 161.361 35.0902 161.405 34.9956 161.42C34.9407 161.428 34.8833 161.438 34.8238 161.447C34.6886 161.469 34.5429 161.493 34.3941 161.508C34.1787 161.53 33.9843 161.53 33.8425 161.488L33.8406 161.487L32.0886 160.992L32.0623 160.985L32.0351 160.987C31.6975 161.016 31.5188 161.135 31.3554 161.253C31.3482 161.258 31.3411 161.263 31.334 161.269C31.19 161.373 31.0568 161.469 30.7984 161.523L30.797 161.523C30.5064 161.587 30.1373 161.65 29.7363 161.719C29.6614 161.732 29.5853 161.745 29.5084 161.759C29.0229 161.843 28.5076 161.935 28.0518 162.045L28.051 162.045C26.6713 162.383 25.5429 162.671 24.5975 162.913C23.7801 163.122 23.0995 163.295 22.5116 163.436C21.2483 163.739 20.444 163.881 19.682 163.881C19.1641 163.881 18.6784 163.527 18.2336 162.824C17.7909 162.125 17.4109 161.115 17.098 159.883C16.4728 157.421 16.1254 154.115 16.0597 150.752C15.994 147.389 16.2099 143.981 16.7069 141.317C16.9554 139.984 17.2731 138.844 17.6575 137.992C18.0454 137.131 18.4861 136.596 18.9602 136.419L36.7327 160.97Z" fill="#DCDCDC" stroke="black" stroke-width="0.3"/>
<path d="M22.5963 151.527C20.5813 151.684 17.7396 151.805 15.6238 151.401C15.4629 148.011 15.4005 144.253 15.8439 141.157C16.0682 139.591 16.4207 138.203 16.9498 137.121C17.4786 136.04 18.1767 135.277 19.0869 134.933C19.3921 134.821 19.7832 134.894 20.2123 135.328C20.6445 135.764 21.0967 136.551 21.4925 137.808C22.2782 140.305 22.8257 144.604 22.5963 151.527Z" fill="#F3F3F3" stroke="black" stroke-width="0.3"/>
<path d="M31.0955 162.978L30.6892 163.041L36.5674 148.581H36.961L31.0955 162.978Z" fill="#F79C8D"/>
<path d="M45.7339 197.193C45.7339 197.193 45.2007 198.907 46.1528 200.037C47.105 201.167 51.0662 202.271 51.5867 202.893C52.1072 203.503 52.0691 204.023 52.0691 204.023L40.9348 203.719L41.0618 200.354L41.5696 197.942L45.7339 197.193Z" fill="#F3FCFF"/>
<path d="M52.0692 202.208C52.3865 202.386 52.9579 202.64 53.4403 203.02C54.1513 203.566 53.7069 204.214 52.8309 204.226L40.3127 203.858C40.3127 203.858 40.4651 200.71 40.8587 200.456C41.2649 200.202 41.2142 200.392 42.598 201.078C43.9819 201.763 46.8384 200.595 46.8384 200.595C46.8384 200.595 51.0916 201.649 52.0692 202.208Z" fill="#101010"/>
<path d="M51.5042 164.424L51.5042 164.424C53.1092 165.087 54.1195 166.226 54.6067 167.612C55.0952 169.002 55.0611 170.651 54.5538 172.329C54.2841 173.214 53.6264 175.215 52.7956 177.742C52.0241 180.09 51.1031 182.891 50.2047 185.676C49.2723 188.566 48.3645 191.437 47.6746 193.758C47.3297 194.918 47.039 195.942 46.8268 196.762C46.6402 197.484 46.5121 198.057 46.4632 198.428L41.3106 198.464L41.3118 198.445L41.3436 197.935L41.4591 196.085L41.8259 190.21C42.1036 185.763 42.4115 180.838 42.5321 178.92C42.7723 175.254 43.9619 170.221 45.4379 167.105C45.8633 166.21 46.552 165.194 47.5448 164.576C48.5287 163.963 49.8266 163.73 51.5042 164.424Z" fill="#B3B3B3" stroke="black" stroke-width="0.3"/>
<path d="M55.2302 150.269L49.5806 162.876C49.2632 163.6 48.5522 164.057 47.765 164.057H19.1992C18.9199 164.057 18.6914 163.828 18.6914 163.549C18.6914 163.27 18.9199 163.041 19.1992 163.041H29.2417L34.8406 149.33C35.031 148.873 35.4627 148.581 35.9452 148.581H54.1511C55.0017 148.581 55.5857 149.482 55.2302 150.269Z" fill="#3422F2"/>
<path d="M44.3503 156.566C44.2234 157.188 43.6901 157.594 43.1442 157.493C42.611 157.378 42.2809 156.794 42.3951 156.185C42.5221 155.563 43.0553 155.157 43.6012 155.258C44.1345 155.372 44.4646 155.956 44.3503 156.566Z" fill="white"/>
<path d="M34.3712 128.241C34.3712 128.343 33.0762 125.499 33.0762 125.499C33.0762 125.499 29.3436 130.311 29.2421 130.438C29.1405 130.565 24.8493 131.415 24.3668 123.696C23.9352 116.879 26.0681 117.945 27.2615 116.637C28.2264 115.596 29.9784 115.482 30.9941 115.647C31.4766 115.723 32.2383 116.053 32.8223 116.333C33.3428 116.587 33.8888 116.79 34.4347 116.98C41.0239 119.202 34.3712 128.14 34.3712 128.241Z" fill="#4E4E4E"/>
<path d="M26.9186 133.61L27.2657 127.028L31.0297 131.076L31.4041 133.785L31.4038 133.785L31.4059 133.795L31.4059 133.795L31.406 133.795L31.4064 133.797L31.408 133.805L31.4146 133.838C31.4202 133.867 31.4285 133.909 31.4386 133.964C31.4589 134.073 31.4867 134.23 31.5168 134.42C31.5771 134.802 31.6463 135.319 31.6824 135.858C31.7186 136.398 31.721 136.955 31.6508 137.421C31.5791 137.896 31.4378 138.235 31.2238 138.391C31.1505 138.443 31.041 138.455 30.8669 138.383C30.6926 138.312 30.484 138.167 30.2507 137.961C29.7858 137.551 29.2582 136.929 28.7581 136.276C28.2594 135.624 27.7932 134.947 27.4515 134.434C27.2807 134.177 27.1411 133.961 27.0444 133.809C26.996 133.733 26.9583 133.674 26.9327 133.633L26.9186 133.61Z" fill="#DCDCDC" stroke="black" stroke-width="0.3"/>
<path d="M30.8039 131.902L30.8028 131.902C30.4738 131.847 29.9993 131.642 29.478 131.286C28.9594 130.931 28.4043 130.433 27.9127 129.803C26.9303 128.544 26.2039 126.762 26.521 124.543L26.521 124.542C26.9084 121.793 28.6897 119.578 30.9796 119.198C33.1454 118.857 35.0947 120.598 35.0462 122.766C35.0209 123.752 34.945 124.977 34.7432 126.289C34.4993 127.858 33.8424 129.333 33.0709 130.382C32.6851 130.907 32.2745 131.319 31.8783 131.584C31.48 131.85 31.1126 131.957 30.8039 131.902Z" fill="#DCDCDC" stroke="black" stroke-width="0.3"/>
<path d="M27.363 125.067C27.2487 125.766 26.6774 126.248 26.1061 126.146C25.5348 126.058 25.1793 125.41 25.2935 124.699C25.4205 124.001 25.9791 123.518 26.5504 123.62C27.1218 123.709 27.4899 124.369 27.363 125.067Z" fill="#1B1B1B"/>
<path d="M26.0042 122.262C26.0042 122.262 26.6262 120.129 26.7024 119.926C26.7786 119.735 28.9496 117.945 28.9496 117.945C28.9496 117.945 31.7681 117.971 31.9966 117.971C32.2378 117.971 37.7479 121.399 34.8151 120.396C31.8824 119.405 29.5717 121.818 28.9369 122.935C28.2894 124.052 26.5501 123.62 26.5501 123.62L26.0042 122.262Z" fill="#4E4E4E"/>
<path d="M99.4015 124.202L96.2275 119.594L97.1797 118.946L100.341 123.555L99.4015 124.202ZM93.0789 114.985L89.9049 110.376L90.8571 109.729L94.0184 114.337L93.0789 114.985ZM86.7564 105.768L83.5824 101.159L84.5346 100.512L87.6959 105.12L86.7564 105.768ZM80.4338 96.5505L77.2598 91.9419L78.212 91.2817L81.3733 95.8903L80.4338 96.5505ZM74.0985 87.3333L70.9373 82.7246L71.8894 82.0771L75.0507 86.6858L74.0985 87.3333Z" fill="#3422F2"/>
<path d="M33.1035 98.4801C31.4277 99.3181 24.902 102.644 21.8168 95.6997C18.4905 88.2472 26.2477 84.9209 26.2477 84.9209C26.2477 84.9209 34.7794 97.6422 33.1035 98.4801Z" fill="#3422F2"/>
<path d="M40.429 96.9822C44.5043 100.727 47.5133 108.916 47.8815 110.58C48.2497 112.23 44.3901 114.363 42.7269 114.96C41.0638 115.569 40.2004 114.972 39.4133 110.275C38.5627 105.235 35.0967 99.3944 35.0967 99.3944C35.0967 99.3944 36.3663 93.2369 40.429 96.9822Z" fill="#CECECE"/>
<path d="M47.0308 64.1504L49.6081 71.4379L54.8007 83.0293L61.4914 92.6401L62.6087 94.8745L40.3781 96.36L35.4775 95.3951L30.7546 84.9082L32.2655 80.4774C35.8076 76.3639 46.561 63.0459 46.561 63.0459L47.0308 64.1504Z" fill="#CECECE"/>
<path d="M32.2652 80.4773C32.2652 80.4773 32.9889 90.2405 40.3779 96.3599C40.3779 96.3599 40.8604 96.982 40.3271 97.5914L36.6072 99.6862C36.6072 99.6862 34.9441 100.829 32.6715 98.5944C30.3989 96.3599 26.0443 91.1292 25.9173 84.1083C25.9173 84.1083 25.8284 82.2293 27.9232 81.3152L30.6783 79.9949C30.6783 79.9949 31.9098 79.4489 32.2652 80.4773Z" fill="#F3F3F3"/>
<path d="M46.5608 63.046C46.5608 63.046 49.3539 59.5546 51.3853 59.0721C53.4039 58.577 56.1335 60.7099 58.0252 62.5508C59.9169 64.379 65.6428 72.022 67.5091 77.7224C69.3881 83.4102 71.5464 91.6625 68.9818 93.4019C66.4172 95.1412 62.6085 94.8746 62.6085 94.8746C62.6085 94.8746 56.9969 92.1704 51.0552 80.6679C45.1135 69.1654 46.5608 63.046 46.5608 63.046Z" fill="#B1B1B1"/>
<path d="M55.1692 81.1118C45.8631 64.988 49.7354 59.9731 49.7354 59.9731C49.7354 59.9731 57.0355 60.9253 64.4626 78.2045C69.1855 89.1737 67.0653 94.2648 67.0653 94.2648C67.0653 94.2648 62.8376 94.3918 55.1692 81.1118Z" fill="#CECECE"/>
<path d="M59.3331 76.6305C61.9231 80.7186 59.13 83.3594 57.3018 84.6035C56.6162 83.5625 55.9052 82.3945 55.1689 81.1122C53.6834 78.5349 52.5281 76.2496 51.6521 74.2183C53.493 73.4946 56.9336 72.8344 59.3331 76.6305Z" fill="#F3F3F3"/>
<path fill-rule="evenodd" clip-rule="evenodd" d="M42.4096 115.15C41.8764 115.29 41.4701 115.264 41.1273 115.061C40.3529 114.604 39.8196 113.22 39.3245 110.287C38.6516 106.301 36.3664 101.832 35.3761 100.055C34.5001 100.029 33.6113 99.5975 32.7226 98.7595C29.9422 100.105 27.5427 100.435 25.6002 99.7371C23.9498 99.1277 22.6548 97.7819 21.7407 95.7379C20.4838 92.9067 20.6361 90.3548 22.1977 88.1204C23.4165 86.4064 25.1305 85.3907 25.8668 85.0099C25.8499 84.7136 25.8372 84.4174 25.8287 84.1211C25.8287 84.0957 25.778 82.166 27.8855 81.2392L30.6405 79.9188C30.6659 79.9061 31.3007 79.6268 31.8212 79.8553C32.0328 79.9399 32.1894 80.0923 32.291 80.3124C35.8712 76.1481 46.3961 63.1221 46.4977 62.9951C46.6119 62.8555 49.3289 59.4657 51.3602 58.9832C53.4296 58.4881 56.1593 60.621 58.089 62.4873C60.0061 64.3536 65.7066 71.9838 67.5856 77.697C69.6423 83.9434 71.5721 91.7514 69.0202 93.478C66.5191 95.1793 62.7865 94.9761 62.6088 94.9634L40.5179 96.4362C40.5941 96.5758 40.683 96.8043 40.6576 97.0837C42.7905 99.1277 44.5552 102.302 45.6598 104.612C46.9294 107.266 47.7673 109.691 47.9577 110.567C48.1735 111.519 47.069 112.535 46.1168 113.233C44.9742 114.045 43.603 114.731 42.7524 115.036C42.6339 115.078 42.5196 115.116 42.4096 115.15ZM32.748 98.5691L32.7988 98.6072C33.6748 99.4578 34.5635 99.8895 35.4268 99.9022H35.4776L35.503 99.9402C36.4806 101.692 38.804 106.212 39.4895 110.262C39.972 113.106 40.4925 114.502 41.2162 114.921C41.5844 115.137 42.0287 115.125 42.7016 114.883C44.2886 114.312 48.1481 112.179 47.8054 110.592C47.6149 109.729 46.777 107.329 45.5201 104.689C44.4155 102.378 42.6508 99.1912 40.5052 97.1725L40.4798 97.1344V97.0964C40.5433 96.7282 40.3148 96.4235 40.3148 96.4108L40.2132 96.2965L40.3656 96.2838L62.6088 94.7984H62.6215C62.6596 94.7984 66.4176 95.0396 68.9314 93.3384C70.0486 92.5893 70.3406 90.4691 69.8328 87.0539C69.4519 84.5528 68.6394 81.4169 67.4332 77.7478C65.5669 72.06 59.8792 64.4552 57.9748 62.6016C56.0704 60.7607 53.3916 58.6658 51.3983 59.1483C51.3814 59.1483 51.3602 59.1525 51.3348 59.161C49.367 59.6942 46.6627 63.0586 46.6246 63.0967C46.5231 63.2364 35.8204 76.4655 32.3291 80.5282L32.2402 80.6298L32.1894 80.5028C32.1047 80.2574 31.9609 80.0923 31.7577 80.0077C31.3134 79.8045 30.7167 80.0711 30.704 80.0711L27.9617 81.3915C25.943 82.2675 25.9938 84.0323 25.9938 84.1084C26.0023 84.4216 26.0192 84.7348 26.0446 85.0479V85.1114L25.9938 85.1368C24.8004 85.7462 18.9603 89.1106 21.8803 95.6617C22.7817 97.6804 24.0513 99.0007 25.6637 99.5848C27.5681 100.27 29.9422 99.9402 32.6972 98.5945L32.748 98.5691Z" fill="#1D1D1B"/>
<path d="M32.6846 98.7213C29.2821 95.4966 27.6063 91.9544 26.8064 89.5549C25.9431 86.9522 25.8796 85.0859 25.8796 85.0605H26.0447C26.0447 85.0732 26.1082 86.9269 26.9715 89.5168C27.7586 91.891 29.4218 95.4077 32.7989 98.6071L32.6846 98.7213Z" fill="#1D1D1B"/>
<path d="M40.3143 96.4231C38.5496 94.8869 37.0134 93.0841 35.7692 91.0781C34.7662 89.4785 33.9537 87.7391 33.3316 85.9109C32.2905 82.8131 32.189 80.5024 32.189 80.4771L32.354 80.4644C32.354 80.4897 32.4429 82.7877 33.484 85.8728C34.4488 88.7167 36.4294 92.8302 40.4286 96.3089L40.3143 96.4231Z" fill="#1D1D1B"/>
<path d="M36.0616 99.9147C35.7188 100.004 35.4776 100.054 35.4395 100.054L35.4141 99.902C35.4522 99.8893 39.1721 99.1529 40.4924 97.0581L40.6321 97.147C39.591 98.7974 37.2042 99.61 36.0616 99.9147Z" fill="#1D1D1B"/>
<path d="M67.027 94.3668C66.7858 94.4303 66.0114 94.4938 64.5006 93.3512C62.8628 92.107 59.9681 89.1107 55.5246 81.8868C53.3282 78.3192 51.6523 74.9548 50.5478 71.8697C49.659 69.4067 49.1258 67.1087 48.9735 65.0647C48.7069 61.5606 49.621 59.999 49.659 59.9355L49.7987 60.0244C49.7987 60.0371 48.8719 61.6114 49.1385 65.0774C49.3797 68.2641 50.7128 73.7614 55.6642 81.8106C60.057 88.933 62.9136 91.9292 64.5386 93.1734C66.3034 94.5319 67.0143 94.2018 67.027 94.2018L67.1032 94.3415C67.0905 94.3415 67.0651 94.3542 67.027 94.3668Z" fill="#1D1D1B"/>
<path d="M28.8628 86.8253L28.7231 86.7364L30.1578 84.54L30.2974 84.6289L28.8628 86.8253Z" fill="#1D1D1B"/>
<path d="M27.7964 85.9239L27.6694 85.8351L29.1041 83.6387L29.2437 83.7275L27.7964 85.9239Z" fill="#1D1D1B"/>
<path d="M137.464 40.0282C137.464 44.1416 136.029 47.925 133.655 50.9086C130.913 54.3365 126.888 56.7106 122.318 57.3073C121.573 57.4089 120.811 57.4596 120.032 57.4596C119.99 57.4596 119.943 57.4596 119.893 57.4596C119.19 57.4512 118.496 57.4046 117.811 57.32C117.633 57.2946 117.451 57.2692 117.265 57.2438C112.796 56.5328 108.885 54.1206 106.232 50.68C103.959 47.7346 102.601 44.0401 102.601 40.0282C102.601 30.4047 110.409 22.6094 120.032 22.6094C129.656 22.6094 137.464 30.4047 137.464 40.0282Z" fill="#3422F2"/>
<path d="M116.743 38.3274C116.743 38.3274 117.492 45.0181 118.483 45.0943C119.486 45.1578 117.797 53.0038 115.144 49.157C114.217 47.8112 114.255 39.0002 116.477 37.1213C118.698 35.2296 116.743 38.3274 116.743 38.3274Z" fill="#222222"/>
<path d="M120.946 34.8486C120.946 34.747 122.228 37.3624 122.228 37.3624L122.076 47.9381L117.607 48.4459L117.683 44.726C116.693 44.7006 116.287 44.1039 116.287 44.1039C115.461 42.974 116.376 36.6387 116.376 36.6387C116.376 36.6387 120.946 34.9628 120.946 34.8486Z" fill="#FE9F73"/>
<path d="M117.735 41.9201C117.481 41.8439 117.367 41.3741 117.354 41.3488V41.3234L117.367 41.298C117.638 41.1118 117.798 40.8748 117.849 40.587C117.938 40.1173 117.722 39.6729 117.722 39.6602C117.722 39.6475 117.722 39.6221 117.735 39.6094C117.748 39.5967 117.76 39.5967 117.773 39.6221C117.786 39.6348 118.001 40.1046 117.913 40.5997C117.849 40.9044 117.684 41.171 117.417 41.3615C117.456 41.463 117.57 41.7804 117.748 41.8439C117.76 41.8439 117.773 41.8693 117.773 41.8947C117.773 41.9074 117.76 41.9201 117.748 41.9201C117.739 41.9201 117.735 41.9201 117.735 41.9201Z" fill="#FB554B"/>
<path d="M117.658 45.9957L117.683 44.7261C117.683 44.7261 119.816 44.6372 121.149 43.8247C121.149 43.8247 119.334 45.5133 117.658 45.9957Z" fill="#FB554B"/>
<path d="M120.641 39.7998C120.603 39.7617 119.715 38.8222 118.864 39.4824C118.839 39.5078 118.788 39.5078 118.75 39.4697C118.724 39.4316 118.737 39.3808 118.762 39.3554C119.727 38.6064 120.743 39.6855 120.756 39.6855C120.794 39.7236 120.781 39.7744 120.756 39.7998C120.739 39.8167 120.718 39.8252 120.692 39.8252C120.675 39.8252 120.658 39.8167 120.641 39.7998Z" fill="#2F0E1B"/>
<path d="M117.315 39.5841C117.315 39.5841 116.681 39.0255 116.325 39.3302C116.3 39.3555 116.249 39.3555 116.211 39.3175C116.185 39.2794 116.185 39.2286 116.224 39.2032C116.681 38.8223 117.392 39.4444 117.43 39.4698C117.455 39.4952 117.468 39.546 117.43 39.5841C117.413 39.601 117.396 39.6095 117.379 39.6095C117.353 39.6095 117.332 39.601 117.315 39.5841Z" fill="#2F0E1B"/>
<path d="M119.308 40.0283C119.423 40.0283 119.524 40.1426 119.524 40.2568C119.524 40.3838 119.423 40.4854 119.296 40.4854C119.169 40.4854 119.067 40.3838 119.08 40.2568C119.08 40.1299 119.181 40.0283 119.308 40.0283Z" fill="#010103"/>
<path d="M116.668 40.0029C116.795 40.0029 116.896 40.1045 116.884 40.2315C116.884 40.3584 116.782 40.46 116.655 40.4473C116.541 40.4473 116.439 40.3457 116.439 40.2188C116.439 40.1045 116.541 40.0029 116.668 40.0029Z" fill="#010103"/>
<path d="M118.128 43.0249C117.544 43.0884 117.264 42.479 117.264 42.479C117.264 42.479 118.826 42.3013 118.851 42.3013C118.851 42.3013 118.712 42.9615 118.128 43.0249Z" fill="#FBFDFA"/>
<path d="M117.81 36.3975C117.658 36.3467 119.41 35.2676 119.41 35.2676L118.318 36.7657C118.318 36.7657 117.95 36.4483 117.81 36.3975Z" fill="#FC8759"/>
<path d="M121.581 36.0544C121.581 36.0544 121.263 38.4159 115.614 38.8856C115.614 38.8856 114.293 35.3943 118.407 34.2262C122.508 33.0582 122.876 36.2068 122.8 36.1814C122.711 36.156 121.581 36.0544 121.581 36.0544Z" fill="#222222"/>
<path d="M120.946 34.7725C122.85 33.2998 125.796 35.7501 125.834 38.175C125.885 42.0346 128.208 49.322 124.844 49.3728H124.171C120.362 49.9314 122.114 40.054 122.114 40.054C121.619 38.9368 120.717 37.3752 120.717 37.3752C120.717 37.3752 119.029 36.2452 120.946 34.7725Z" fill="#222222"/>
<path d="M122.559 40.0153C123.257 40.0153 123.816 40.5994 123.816 41.2976C123.803 41.9959 123.232 42.5418 122.533 42.5418C121.835 42.5291 121.276 41.9578 121.289 41.2595C121.289 40.5613 121.873 40.0027 122.559 40.0153Z" fill="#FE9F73"/>
<path d="M122.622 42.0598C122.597 42.0598 122.584 42.0344 122.584 42.009C122.584 41.9963 122.597 41.9709 122.622 41.9709C122.863 41.9836 123.003 41.7931 123.054 41.6408C123.105 41.4884 123.092 41.2726 122.901 41.1456C122.546 40.9298 122.254 41.2091 122.241 41.2218L122.127 41.3234L122.165 41.1837C122.224 40.9637 122.334 40.8113 122.495 40.7267C122.774 40.5743 123.105 40.6886 123.117 40.6886C123.143 40.7013 123.155 40.714 123.143 40.7394C123.143 40.7648 123.117 40.7775 123.092 40.7648C123.092 40.7648 122.787 40.6632 122.533 40.7902C122.423 40.8494 122.343 40.9467 122.292 41.0822C122.419 41.006 122.673 40.9044 122.939 41.0822C123.13 41.1964 123.206 41.425 123.13 41.6662C123.079 41.8566 122.889 42.0598 122.635 42.0598C122.626 42.0598 122.622 42.0598 122.622 42.0598Z" fill="#FB554B"/>
<path d="M115.969 37.7179L114.611 43.5961C114.167 37.6417 116.122 35.5723 116.122 35.5723L115.969 37.7179Z" fill="#222222"/>
<path d="M122.317 57.3076C121.573 57.4092 120.811 57.4599 120.032 57.4599C119.99 57.4599 119.943 57.4599 119.892 57.4599C119.19 57.4515 118.496 57.4049 117.81 57.3203L117.912 56.8886L119.473 50.3502L119.892 48.5855L119.994 48.1792L120.159 47.4556H127.586C128.373 47.4556 129.452 47.9761 129.503 48.0015C130.506 48.5347 132.055 49.5631 133.655 50.9089C130.912 54.3367 126.888 56.7109 122.317 57.3076Z" fill="#F3F3F3"/>
<path d="M119.893 47.4556V57.4599C119.19 57.4515 118.496 57.4049 117.811 57.3203C117.633 57.2949 117.451 57.2695 117.265 57.2441C112.796 56.5331 108.885 54.1209 106.232 50.6803C107.92 49.4742 109.533 48.5474 110.561 48.0015C110.599 47.9761 111.691 47.4556 112.478 47.4556H119.893Z" fill="#F3F3F3"/>
<path d="M115.601 47.4556H124.983C124.983 47.4556 123.282 50.401 120.045 50.3883C118.559 50.3756 116.96 49.8297 115.601 47.4556Z" fill="#FE9F73"/>
<path fill-rule="evenodd" clip-rule="evenodd" d="M120.032 58.0691C119.982 58.0691 119.931 58.0691 119.88 58.0691C119.169 58.0691 118.445 58.0183 117.734 57.9294C117.565 57.904 117.379 57.8744 117.176 57.8406C112.631 57.1169 108.581 54.7174 105.749 51.0609C103.299 47.8743 101.991 44.0655 101.991 40.0282C101.991 35.2164 103.87 30.684 107.273 27.2815C110.688 23.8663 115.208 22 120.032 22C124.844 22 129.377 23.8663 132.792 27.2815C136.194 30.684 138.073 35.2164 138.073 40.0282C138.073 44.1671 136.702 48.0647 134.125 51.2895C131.192 54.9586 127.028 57.3073 122.394 57.9167C121.632 58.0183 120.832 58.0691 120.032 58.0691ZM120.032 23.2188C110.764 23.2188 103.21 30.7602 103.21 40.0282C103.21 43.7862 104.429 47.341 106.714 50.3119C109.355 53.7144 113.138 55.9616 117.366 56.6344C117.557 56.6725 117.722 56.6979 117.887 56.7106C118.547 56.7995 119.22 56.8376 119.905 56.8503C119.948 56.8503 119.99 56.8503 120.032 56.8503C120.781 56.8503 121.518 56.7995 122.241 56.7106C126.558 56.1393 130.443 53.9429 133.173 50.5277C135.572 47.5188 136.854 43.8877 136.854 40.0282C136.854 30.7602 129.3 23.2188 120.032 23.2188Z" fill="white"/>
<path d="M136.854 134.841C136.854 137.532 136.321 140.097 135.356 142.446C135.339 142.496 135.318 142.551 135.292 142.611C135.284 142.619 135.28 142.632 135.28 142.649C134.366 144.807 133.083 146.775 131.509 148.463C131.467 148.514 131.42 148.565 131.369 148.616C131.318 148.667 131.268 148.717 131.217 148.768C127.573 152.539 122.469 154.888 116.807 154.888C113.709 154.888 110.777 154.189 108.161 152.932C107.679 152.704 107.201 152.45 106.727 152.171C106.65 152.128 106.574 152.082 106.498 152.031C106.286 151.904 106.075 151.773 105.863 151.637C105.796 151.595 105.724 151.549 105.647 151.498C104.213 150.533 102.905 149.378 101.75 148.083C101.335 147.609 100.941 147.118 100.569 146.61C99.7692 145.505 99.0709 144.312 98.5123 143.055C97.3823 140.541 96.7603 137.761 96.7603 134.841C96.7603 123.757 105.736 114.781 116.807 114.781C127.878 114.781 136.854 123.757 136.854 134.841Z" fill="#DCDCDC"/>
<path d="M110.446 125.598C110.446 125.598 108.91 122.068 112.947 119.148C116.997 116.228 117.619 121.231 119.168 121.713C120.73 122.183 123.548 121.649 124.564 124.57C125.58 127.49 124.983 129.622 126.621 130.092C128.246 130.562 133.591 134.777 132.144 140.224C130.696 145.683 125.377 145.315 125.377 145.315C125.377 145.315 104.492 145.962 103.146 140.516C101.788 135.069 103.832 132.746 106.511 130.943C108.148 129.838 111.437 128.937 110.446 125.598Z" fill="#222222"/>
<path d="M121.53 127.553L120.044 142.979L113.405 142.344L113.849 137.634C112.376 137.469 111.843 136.517 111.843 136.517C110.738 134.726 112.592 127.325 112.592 127.325L121.53 127.553Z" fill="#FE9F73"/>
<path d="M114.179 133.431C113.659 133.266 113.456 132.542 113.443 132.504L113.43 132.454L113.481 132.441C114.052 132.212 114.42 131.869 114.573 131.438C114.814 130.765 114.42 130.054 114.408 130.054C114.395 130.016 114.408 129.978 114.433 129.965C114.459 129.952 114.497 129.952 114.522 129.991C114.535 130.016 114.941 130.752 114.687 131.489C114.535 131.933 114.154 132.288 113.57 132.53C113.633 132.695 113.836 133.19 114.217 133.317C114.243 133.33 114.255 133.355 114.255 133.393C114.243 133.418 114.217 133.431 114.192 133.431C114.183 133.431 114.179 133.431 114.179 133.431Z" fill="#FB554B"/>
<path d="M113.671 139.525L113.849 137.633C113.849 137.633 117.073 137.76 119.156 136.707C119.156 136.707 116.248 139.017 113.671 139.525Z" fill="#F07162"/>
<path d="M118.115 130.562C118.064 130.499 116.845 128.975 115.499 129.864C115.448 129.902 115.372 129.889 115.334 129.826C115.296 129.775 115.309 129.699 115.372 129.661C116.896 128.658 118.292 130.384 118.305 130.41C118.356 130.46 118.343 130.537 118.292 130.575C118.267 130.6 118.237 130.609 118.203 130.6C118.17 130.6 118.14 130.587 118.115 130.562Z" fill="#2F0E1B"/>
<path d="M113.951 129.902C113.938 129.889 113.062 128.975 112.491 129.381C112.44 129.419 112.364 129.407 112.326 129.343C112.288 129.292 112.3 129.216 112.351 129.178C113.088 128.657 114.078 129.686 114.129 129.724C114.167 129.775 114.167 129.851 114.116 129.902C114.091 129.927 114.053 129.94 114.027 129.94C113.993 129.931 113.968 129.919 113.951 129.902Z" fill="#2F0E1B"/>
<path d="M112.922 130.435C113.1 130.448 113.24 130.613 113.227 130.803C113.202 130.994 113.037 131.121 112.859 131.108C112.669 131.095 112.529 130.93 112.554 130.74C112.567 130.549 112.732 130.41 112.922 130.435Z" fill="#010103"/>
<path d="M116.274 130.701C116.465 130.727 116.592 130.892 116.579 131.07C116.554 131.26 116.388 131.4 116.211 131.374C116.02 131.362 115.881 131.197 115.906 131.006C115.919 130.828 116.084 130.689 116.274 130.701Z" fill="#010103"/>
<path d="M121.746 131.172C122.787 131.273 123.561 132.2 123.459 133.241C123.358 134.295 122.431 135.057 121.39 134.955C120.336 134.853 119.575 133.927 119.676 132.885C119.778 131.844 120.704 131.07 121.746 131.172Z" fill="#FE9F73"/>
<path d="M121.581 134.244C121.556 134.244 121.53 134.206 121.53 134.181C121.53 134.142 121.568 134.117 121.594 134.117C121.962 134.155 122.19 133.901 122.292 133.673C122.381 133.457 122.381 133.127 122.114 132.911C121.619 132.543 121.124 132.924 121.111 132.949L120.946 133.089L121.01 132.873C121.128 132.551 121.314 132.335 121.568 132.225C122 132.048 122.482 132.251 122.495 132.263C122.533 132.276 122.546 132.314 122.533 132.34C122.521 132.365 122.483 132.378 122.444 132.365C122.444 132.365 122 132.175 121.619 132.34C121.441 132.416 121.302 132.551 121.2 132.746C121.416 132.644 121.797 132.53 122.178 132.822C122.457 133.025 122.533 133.381 122.406 133.724C122.279 134.016 121.987 134.282 121.594 134.244C121.594 134.244 121.59 134.244 121.581 134.244Z" fill="#FB554B"/>
<path d="M112.592 127.324C112.592 127.324 113.442 124.468 117.365 124.531C121.289 124.582 121.53 127.553 121.53 127.553L116.997 128.023L112.871 127.324H112.592Z" fill="#FE9F73"/>
<path d="M113.646 122.919C113.646 122.919 118.127 123.63 118.394 123.655C118.661 123.681 122.736 125.814 122.736 125.814C122.736 125.814 123.46 131.247 121.174 131.209C118.889 131.159 118.204 127.223 118.204 127.223C115.017 127.464 112.833 124.861 112.833 124.861L113.646 122.919Z" fill="#222222"/>
<path d="M113.506 134.219C113.544 134.206 115.817 133.965 115.817 133.965C115.817 133.965 115.601 134.93 114.763 135.019C113.913 135.107 113.506 134.219 113.506 134.219Z" fill="#FBFDFA"/>
<path d="M132.258 141.455C133.299 141.671 134.328 142.065 135.293 142.61C135.284 142.619 135.28 142.632 135.28 142.649C134.366 144.807 133.083 146.775 131.509 148.463C131.467 148.514 131.42 148.565 131.369 148.616C131.319 148.666 131.268 148.717 131.217 148.768C127.573 152.539 122.47 154.887 116.807 154.887C113.709 154.887 110.777 154.189 108.161 152.932C107.679 152.704 107.201 152.45 106.727 152.17C106.651 152.128 106.574 152.082 106.498 152.031C106.287 151.904 106.075 151.773 105.863 151.637C105.796 151.595 105.724 151.548 105.648 151.498C104.213 150.533 102.905 149.377 101.75 148.082C101.335 147.608 100.942 147.117 100.569 146.61C99.7694 145.505 99.0711 144.312 98.5125 143.055C99.5027 142.395 101.445 141.899 103.667 141.531C105.381 141.252 107.273 141.049 108.999 140.896C110.815 140.744 112.453 140.655 113.57 140.604C114.497 140.566 115.055 140.554 115.055 140.554C115.055 140.554 117.328 140.554 120.261 140.63C121.594 140.668 123.066 140.719 124.526 140.77C124.526 140.778 124.526 140.782 124.526 140.782C125.656 140.82 126.761 140.884 127.802 140.96C129.351 141.062 130.735 141.201 131.763 141.366C131.839 141.375 131.915 141.387 131.992 141.404C132 141.404 132.008 141.404 132.017 141.404C132.076 141.421 132.135 141.434 132.195 141.442C132.22 141.451 132.241 141.455 132.258 141.455Z" fill="#999999"/>
<path d="M135.356 142.445C135.339 142.496 135.318 142.551 135.293 142.61C135.284 142.619 135.28 142.632 135.28 142.649C134.899 142.445 134.518 142.28 134.137 142.153C133.46 141.933 132.639 141.739 131.674 141.569C130.591 141.375 129.334 141.214 127.904 141.087C127.84 141.074 127.802 141.023 127.802 140.973C127.802 140.964 127.802 140.96 127.802 140.96C127.815 140.896 127.865 140.858 127.916 140.871C129.376 140.998 130.659 141.163 131.763 141.366C131.839 141.375 131.915 141.387 131.992 141.404C132 141.404 132.009 141.404 132.017 141.404C132.102 141.421 132.182 141.438 132.258 141.455C133.003 141.607 133.651 141.772 134.201 141.95C134.59 142.077 134.975 142.242 135.356 142.445Z" fill="#010103"/>
<path d="M108.999 140.896C108.999 140.896 116.629 148.501 124.539 140.782C124.539 140.782 115.499 139.766 108.999 140.896Z" fill="#FE9F73"/>
<path fill-rule="evenodd" clip-rule="evenodd" d="M116.807 154.913C116.748 154.913 116.689 154.913 116.63 154.913C115.804 154.9 114.979 154.85 114.167 154.748C113.963 154.723 113.748 154.689 113.519 154.646C108.301 153.821 103.629 151.041 100.379 146.838C97.5477 143.182 96.0496 138.802 96.0496 134.155C96.0496 128.62 98.2079 123.402 102.131 119.479C106.054 115.568 111.259 113.41 116.807 113.41C122.343 113.41 127.561 115.568 131.484 119.479C135.394 123.402 137.553 128.62 137.553 134.155C137.553 138.916 135.991 143.398 133.02 147.105C129.643 151.32 124.857 154.037 119.524 154.735C118.636 154.85 117.721 154.913 116.807 154.913ZM116.807 114.807C106.143 114.807 97.4588 123.491 97.4588 134.155C97.4588 138.485 98.8554 142.573 101.496 145.988C104.518 149.898 108.872 152.488 113.735 153.263C113.951 153.301 114.154 153.326 114.344 153.351C115.106 153.453 115.881 153.504 116.655 153.504C116.706 153.504 116.757 153.504 116.807 153.504C117.658 153.504 118.521 153.453 119.347 153.339C124.311 152.691 128.78 150.165 131.928 146.229C134.696 142.776 136.156 138.599 136.156 134.155C136.156 123.491 127.472 114.807 116.807 114.807Z" fill="white"/>
<path d="M169.038 74.4341C178.421 74.4341 186.026 82.0389 186.026 91.4212C186.026 95.1411 184.819 98.5944 182.788 101.388C182.475 101.819 182.141 102.238 181.785 102.644C180.287 104.346 178.433 105.755 176.351 106.745C174.142 107.812 171.654 108.408 169.038 108.408C164.252 108.408 159.923 106.415 156.825 103.228C156.783 103.186 156.74 103.14 156.698 103.089C156.664 103.046 156.626 103.004 156.584 102.962C153.778 99.9402 152.051 95.8775 152.051 91.4212C152.051 82.0389 159.656 74.4341 169.038 74.4341Z" fill="#DCDCDC"/>
<path d="M176.352 106.745C174.143 107.811 171.655 108.408 169.039 108.408C164.253 108.408 159.924 106.415 156.826 103.228C156.784 103.186 156.741 103.139 156.699 103.089C158.464 101.667 160.952 100.41 164.456 99.8003C164.101 99.9527 164.989 99.7368 165.256 99.6606C165.307 99.6606 165.332 99.6479 165.332 99.6479C165.332 99.6479 165.446 99.6479 165.65 99.6606C166.64 99.6987 169.75 99.8257 172.835 100.016C172.946 100.016 173.051 100.02 173.153 100.029C175.324 100.168 177.457 100.334 178.79 100.511C180.009 100.676 180.986 101.489 181.786 102.644C180.288 104.345 178.434 105.755 176.352 106.745Z" fill="#999999"/>
<path d="M172.886 84.54L172.949 93.0844L172.81 95.2935C172.81 95.2935 173.318 99.8005 173.089 100.727C172.86 101.667 171.451 103.508 168.95 103.444C168.163 103.419 167.465 103.267 166.881 103.063C165.7 102.657 164.989 101.451 165.179 100.219L165.675 96.8805C163.491 96.5123 163.656 94.0112 163.656 94.0112L163.859 86.2159L172.886 84.54Z" fill="#FE9F73"/>
<path d="M170.803 94.8867C170.803 94.8867 170.549 99.0764 165.306 99.343L165.674 96.88C165.674 96.88 169.051 97.6544 170.803 94.8867Z" fill="#F07162"/>
<path d="M169.724 90.4306C169.674 90.3671 168.442 89.0468 167.261 89.9609C167.211 89.9863 167.147 89.9863 167.109 89.9355C167.071 89.8974 167.084 89.8212 167.134 89.7958C168.468 88.7675 169.864 90.2783 169.877 90.291C169.915 90.3291 169.915 90.3925 169.877 90.4306C169.851 90.456 169.826 90.4687 169.801 90.4687C169.775 90.4687 169.75 90.456 169.724 90.4306Z" fill="#2D0F28"/>
<path d="M173.418 89.4663L171.158 89.8725L170.74 90.2788C170.74 90.2788 171.032 86.5081 171.476 85.7844C171.92 85.0481 173.418 89.4663 173.418 89.4663Z" fill="#222222"/>
<path d="M165.446 89.6945C165.434 89.6945 164.57 88.9074 164.063 89.3137C164.024 89.3518 163.948 89.3518 163.91 89.301C163.885 89.2502 163.885 89.1867 163.936 89.1486C164.57 88.6281 165.548 89.5041 165.586 89.5422C165.637 89.5803 165.637 89.6438 165.599 89.6945C165.573 89.7199 165.548 89.7326 165.51 89.7326C165.493 89.7242 165.472 89.7115 165.446 89.6945Z" fill="#2D0F28"/>
<path d="M167.998 90.5325C168.175 90.5325 168.315 90.6722 168.302 90.8499C168.302 91.015 168.163 91.1546 167.985 91.1546C167.807 91.1419 167.68 91.0023 167.68 90.8372C167.68 90.6595 167.833 90.5198 167.998 90.5325Z" fill="#010103"/>
<path d="M164.684 90.1265C164.849 90.1265 164.989 90.2788 164.989 90.4439C164.976 90.6216 164.837 90.7613 164.659 90.7486C164.494 90.7486 164.354 90.6089 164.354 90.4312C164.367 90.2534 164.507 90.1265 164.684 90.1265Z" fill="#010103"/>
<path d="M172.199 88.9581C173.228 88.9835 174.053 89.8468 174.028 90.8879C174.002 91.9289 173.139 92.7415 172.098 92.7161C171.057 92.6907 170.244 91.8274 170.27 90.7863C170.295 89.7579 171.158 88.9327 172.199 88.9581Z" fill="#FE9F73"/>
<path d="M172.441 91.8907C172.403 91.8907 172.391 91.8653 172.391 91.8399C172.391 91.8019 172.416 91.7892 172.441 91.7892C172.441 91.7892 172.446 91.7892 172.454 91.7892C172.81 91.7892 173.025 91.5225 173.102 91.294C173.178 91.0655 173.152 90.7354 172.873 90.545C172.353 90.2022 171.895 90.6211 171.87 90.6465L171.73 90.7735L171.781 90.5957C171.874 90.2657 172.039 90.0414 172.276 89.9229C172.695 89.707 173.178 89.8721 173.203 89.8848C173.229 89.8975 173.241 89.9229 173.229 89.9483C173.216 89.9736 173.191 89.9863 173.165 89.9863C173.165 89.9736 172.708 89.8213 172.327 90.0117C172.158 90.1048 172.027 90.2572 171.934 90.4688C172.137 90.3418 172.518 90.1895 172.924 90.4561C173.203 90.6338 173.305 90.9766 173.203 91.3194C173.102 91.6114 172.835 91.9034 172.441 91.8907Z" fill="#FB554B"/>
<path d="M166.499 92.9064L165.382 92.5128L165.788 89.9736C165.801 89.9482 165.826 89.9229 165.852 89.9229C165.877 89.9355 165.902 89.9609 165.902 89.9863L165.496 92.4366L166.537 92.8175C166.563 92.8175 166.575 92.8556 166.575 92.881C166.563 92.9064 166.537 92.9191 166.524 92.9191C166.516 92.9191 166.508 92.9149 166.499 92.9064Z" fill="#FB554B"/>
<path d="M166.234 94.7349C165.472 94.6968 165.243 93.8462 165.243 93.8462C165.243 93.8462 167.275 93.9478 167.3 93.9478C167.3 93.9478 166.983 94.773 166.234 94.7349Z" fill="#FBFDFA"/>
<path d="M169.801 86.4443C166.462 87.4219 160.939 86.3046 161.587 84.032C162.221 81.7595 164.786 82.6609 164.786 82.6609C164.786 82.6609 164.024 81.8103 164.824 81.1501C165.624 80.4899 171.985 83.0418 173.064 84.4256C174.156 85.8222 173.419 89.4659 173.419 89.4659C171.972 87.1298 169.801 86.4443 169.801 86.4443Z" fill="#222222"/>
<path fill-rule="evenodd" clip-rule="evenodd" d="M169.077 109.462C169.026 109.462 168.979 109.462 168.937 109.462C168.226 109.462 167.528 109.411 166.842 109.322C166.673 109.306 166.487 109.28 166.284 109.246C161.865 108.548 157.917 106.199 155.162 102.632C152.763 99.5339 151.493 95.814 151.493 91.891C151.493 87.1935 153.321 82.7753 156.647 79.4617C159.961 76.1353 164.379 74.3071 169.077 74.3071C173.774 74.3071 178.18 76.1353 181.506 79.4617C184.82 82.7753 186.648 87.1935 186.648 91.891C186.648 95.9283 185.328 99.7116 182.814 102.86C179.957 106.428 175.894 108.726 171.375 109.322C170.626 109.411 169.851 109.462 169.077 109.462ZM169.077 75.5005C160.037 75.5005 152.686 82.8515 152.686 91.891C152.686 95.5474 153.867 99.0134 156.102 101.908C158.666 105.222 162.361 107.418 166.474 108.078C166.665 108.104 166.83 108.129 166.982 108.142C167.629 108.231 168.29 108.269 168.95 108.281C168.992 108.281 169.034 108.281 169.077 108.281C169.8 108.281 170.524 108.231 171.222 108.142C175.437 107.583 179.221 105.45 181.887 102.111C184.223 99.1911 185.467 95.649 185.467 91.891C185.467 82.8515 178.116 75.5005 169.077 75.5005Z" fill="#CFCFCF"/>
<path d="M70.5181 71.2602L69.9595 70.2572L74.8474 67.5403L75.406 68.5433L70.5181 71.2602ZM80.2813 65.801L79.7226 64.8107L84.6106 62.0811L85.1692 63.0841L80.2813 65.801ZM90.0444 60.3544L89.4858 59.3515L94.361 56.6345L94.9196 57.6248L90.0444 60.3544ZM99.8203 54.9079L99.2616 53.9049L104.137 51.188L104.695 52.191L99.8203 54.9079Z" fill="#3422F2"/>
<path d="M158.717 77.938L155.721 73.9134L156.647 73.2278L159.631 77.2524L158.717 77.938ZM152.394 69.4317L149.055 64.9501L149.969 64.2645L153.308 68.7462L152.394 69.4317ZM145.716 60.4557L142.377 55.9741L143.304 55.2885L146.643 59.7702L145.716 60.4557ZM139.038 51.4924L135.699 47.0108L136.613 46.3252L139.952 50.8068L139.038 51.4924Z" fill="#3422F2"/>
<path d="M135.572 124.964L134.823 124.088L139.076 120.457L139.825 121.333L135.572 124.964ZM144.078 117.702L143.329 116.838L147.582 113.207L148.331 114.071L144.078 117.702ZM152.584 110.452L151.835 109.576L156.088 105.945L156.837 106.821L152.584 110.452Z" fill="#3422F2"/>
<path d="M151.569 90.0626L148.738 89.6437L148.903 88.5137L151.747 88.9327L151.569 90.0626ZM143.19 88.8184L137.667 87.9932L137.832 86.8633L143.367 87.6885L143.19 88.8184ZM132.119 87.168L126.596 86.3554L126.761 85.2255L132.297 86.038L132.119 87.168ZM121.048 85.5302L115.525 84.7049L115.69 83.575L121.226 84.4002L121.048 85.5302ZM109.977 83.8797L104.454 83.0672L104.619 81.9245L110.155 82.7498L109.977 83.8797ZM98.9063 82.2419L93.3836 81.4167L93.5486 80.2868L99.0841 81.0993L98.9063 82.2419ZM87.8355 80.6042L82.3128 79.7916L82.4778 78.649L88.0132 79.4742L87.8355 80.6042ZM76.7647 78.9664L71.2419 78.1412L71.407 77.0112L76.9297 77.8238L76.7647 78.9664Z" fill="#3422F2"/>
<path d="M200.042 148.553C200.042 152.387 198.569 155.866 196.157 158.468C196.123 158.502 196.089 158.536 196.056 158.57C196.022 158.612 195.984 158.65 195.941 158.684C193.301 161.427 189.581 163.141 185.467 163.141C183.22 163.141 181.087 162.633 179.183 161.719C177.393 160.868 175.806 159.662 174.511 158.189C174.214 157.842 173.931 157.482 173.66 157.11C171.908 154.71 170.88 151.752 170.88 148.553C170.88 140.504 177.405 133.965 185.467 133.965C193.516 133.965 200.042 140.504 200.042 148.553Z" fill="#3422F2"/>
<path d="M182.496 155.358C182.496 155.358 182.394 155.561 182.204 155.929C182.128 156.065 182.047 156.217 181.963 156.386C181.645 156.983 181.226 157.783 180.744 158.71C180.702 158.794 180.659 158.875 180.617 158.951C180.173 159.814 179.678 160.754 179.182 161.719C177.392 160.868 175.805 159.662 174.51 158.189C174.214 157.842 173.931 157.482 173.66 157.11C173.837 156.932 174.032 156.784 174.244 156.666C176.402 155.447 180.465 155.345 181.937 155.345C182.293 155.345 182.496 155.358 182.496 155.358Z" fill="#DCF4FF"/>
<path d="M174.511 158.19C175.196 157.199 176.047 156.501 177.101 156.361C178.243 156.209 180.072 156.057 181.938 155.942C182.022 155.942 182.111 155.938 182.204 155.93C184.858 155.765 187.524 155.663 188.375 155.625C188.552 155.625 188.641 155.612 188.641 155.612C188.641 155.612 188.667 155.625 188.717 155.638C188.946 155.688 189.708 155.892 189.403 155.752C192.412 156.272 194.545 157.352 196.056 158.57C196.022 158.613 195.984 158.651 195.941 158.685C193.301 161.427 189.581 163.141 185.467 163.141C183.22 163.141 181.087 162.633 179.183 161.719C177.393 160.868 175.806 159.662 174.511 158.19Z" fill="#DCF4FF"/>
<path d="M185.365 159.382C183.423 159.394 181.861 157.236 181.937 154.621L182.128 150.901L188.273 150.863L188.552 154.646C188.73 157.3 187.359 159.356 185.365 159.382Z" fill="#FE9F73"/>
<path d="M182.128 150.901L188.273 150.863L188.438 153.288C187.943 155.916 183.157 156.157 182.052 153.491L182.128 150.901Z" fill="#F07162"/>
<path d="M190.596 145.213C191.522 145.213 192.284 145.962 192.284 146.889C192.297 147.829 191.535 148.59 190.608 148.59C189.669 148.603 188.92 147.841 188.907 146.915C188.907 145.975 189.656 145.213 190.596 145.213Z" fill="#FE9F73"/>
<path d="M190.723 147.943C190.685 147.943 190.659 147.917 190.672 147.892C190.672 147.867 190.697 147.841 190.723 147.841C191.04 147.841 191.23 147.587 191.294 147.384C191.345 147.181 191.332 146.876 191.065 146.724C190.596 146.432 190.202 146.826 190.177 146.838L190.05 146.978L190.088 146.788C190.164 146.491 190.308 146.284 190.52 146.165C190.888 145.962 191.332 146.102 191.357 146.102C191.383 146.115 191.396 146.14 191.383 146.178C191.383 146.204 191.345 146.216 191.319 146.204C191.319 146.204 190.9 146.077 190.57 146.254C190.426 146.339 190.316 146.474 190.24 146.661C190.431 146.546 190.761 146.407 191.116 146.635C191.383 146.788 191.484 147.092 191.396 147.41C191.319 147.676 191.078 147.943 190.735 147.943C190.727 147.943 190.723 147.943 190.723 147.943Z" fill="#F07162"/>
<path d="M190.152 145.721C190.863 136.669 176.758 132.899 180.262 148.603C182.065 155.396 190.469 154.558 190.152 145.721Z" fill="#FE9F73"/>
<path d="M180.96 146.953C180.96 147.892 180.211 148.641 179.284 148.654C178.345 148.654 177.583 147.905 177.583 146.966C177.57 146.039 178.332 145.277 179.259 145.277C180.198 145.264 180.96 146.026 180.96 146.953Z" fill="#FE9F73"/>
<path d="M179.158 148.006C178.802 148.006 178.561 147.74 178.485 147.473C178.383 147.156 178.485 146.851 178.751 146.699C179.107 146.47 179.437 146.597 179.627 146.711C179.551 146.534 179.437 146.403 179.285 146.318C178.955 146.14 178.548 146.267 178.548 146.28C178.523 146.28 178.485 146.267 178.472 146.242C178.472 146.216 178.485 146.178 178.51 146.178C178.523 146.166 178.967 146.026 179.335 146.229C179.555 146.339 179.704 146.542 179.78 146.838L179.831 147.029L179.691 146.889C179.665 146.876 179.272 146.496 178.802 146.788C178.548 146.953 178.523 147.245 178.586 147.448C178.65 147.651 178.84 147.905 179.158 147.892C179.183 147.892 179.208 147.918 179.221 147.956C179.221 147.981 179.196 148.006 179.158 148.006Z" fill="#F07162"/>
<path d="M183.449 145.861C183.449 146.051 183.296 146.216 183.106 146.216C182.915 146.216 182.75 146.064 182.75 145.874C182.75 145.683 182.903 145.518 183.093 145.518C183.283 145.518 183.449 145.67 183.449 145.861Z" fill="#010103"/>
<path d="M187.345 145.569C187.536 145.569 187.688 145.722 187.688 145.912C187.688 146.103 187.536 146.255 187.345 146.255C187.155 146.255 187.003 146.103 187.003 145.912C187.003 145.722 187.155 145.569 187.345 145.569Z" fill="#010103"/>
<path d="M188.768 145.302C188.704 145.302 188.641 145.29 188.59 145.239C187.778 144.566 186.61 144.947 186.597 144.947C186.445 144.998 186.292 144.921 186.241 144.769C186.191 144.629 186.267 144.464 186.419 144.414C186.47 144.401 187.892 143.918 188.946 144.807C189.073 144.909 189.085 145.086 188.984 145.201C188.933 145.277 188.844 145.302 188.768 145.302Z" fill="#222222"/>
<path d="M181.735 145.316C181.659 145.316 181.57 145.277 181.519 145.214C181.418 145.087 181.443 144.922 181.558 144.82C182.624 143.944 184.033 144.44 184.097 144.465C184.249 144.516 184.325 144.681 184.262 144.82C184.211 144.973 184.059 145.036 183.906 144.985C183.894 144.985 182.738 144.579 181.913 145.252C181.862 145.29 181.799 145.316 181.735 145.316Z" fill="#222222"/>
<path d="M184.248 149.518C184.286 149.505 186.343 149.454 186.343 149.454C186.343 149.454 186.089 150.305 185.315 150.33C184.553 150.356 184.248 149.518 184.248 149.518Z" fill="#FBFDFA"/>
<path d="M190.14 145.43C189.873 145.861 189.251 146.039 189.251 146.039C189.251 146.039 189.251 141.697 188.997 141.113C188.743 140.542 187.27 139.361 186.166 140.313C185.506 140.872 185.048 140.897 184.795 140.808C184.528 140.859 184.109 140.783 183.525 140.275C182.433 139.323 180.948 140.478 180.681 141.05C180.427 141.621 180.376 145.976 180.376 145.976C180.376 145.976 179.767 145.785 179.5 145.353C179.221 144.909 179.17 139.564 179.526 138.904C181.214 135.844 189.01 136.847 190.178 138.98C190.546 139.64 190.419 144.985 190.14 145.43Z" fill="#222222"/>
<path d="M185.963 147.93L184.82 147.651L184.96 145.086C184.96 145.061 184.985 145.036 185.011 145.036C185.036 145.048 185.061 145.061 185.061 145.099L184.922 147.562L185.988 147.829C186.014 147.829 186.039 147.854 186.026 147.892C186.026 147.905 186.001 147.93 185.988 147.93C185.98 147.93 185.971 147.93 185.963 147.93Z" fill="#F07162"/>
<path fill-rule="evenodd" clip-rule="evenodd" d="M184.794 153.529C182.865 153.288 181.912 147.956 184.604 148.083C185.239 148.032 185.975 148.007 186.572 148.172C187.219 148.349 187.651 148.946 187.664 149.606C187.702 151.523 187.714 153.923 184.794 153.529ZM185.086 150.762L185.62 150.736C186.394 152.564 187.029 150.558 186.978 149.543C186.965 149.289 186.788 149.06 186.546 148.984C185.696 148.692 184.033 148.819 183.842 149.213C183.41 149.835 184.375 153.212 185.086 150.762Z" fill="#222222"/>
<path fill-rule="evenodd" clip-rule="evenodd" d="M185.289 164.042C185.247 164.042 185.205 164.042 185.162 164.042C184.54 164.042 183.918 163.991 183.321 163.915C183.169 163.898 183.004 163.877 182.826 163.852C178.941 163.229 175.45 161.16 173.025 158.024C170.918 155.294 169.8 152.019 169.8 148.553C169.8 144.414 171.413 140.529 174.333 137.596C177.265 134.676 181.15 133.064 185.289 133.064C189.428 133.064 193.313 134.676 196.233 137.596C199.166 140.529 200.778 144.414 200.778 148.553C200.778 152.108 199.61 155.447 197.388 158.215C194.875 161.363 191.294 163.394 187.321 163.915C186.66 163.991 185.975 164.042 185.289 164.042ZM185.289 134.118C177.329 134.118 170.841 140.593 170.841 148.553C170.841 151.778 171.882 154.837 173.85 157.377C176.123 160.309 179.36 162.239 182.991 162.81C183.156 162.836 183.309 162.861 183.448 162.874C184.02 162.95 184.591 162.988 185.175 162.988C185.217 162.997 185.255 162.997 185.289 162.988C185.924 162.988 186.559 162.95 187.181 162.874C190.888 162.379 194.227 160.5 196.576 157.567C198.633 154.977 199.725 151.867 199.725 148.553C199.725 140.593 193.25 134.118 185.289 134.118Z" fill="white"/>
<path d="M169.775 149.124L165.674 148.959L165.712 147.816L169.826 147.982L169.775 149.124ZM160.075 148.743L154.489 148.527L154.54 147.372L160.126 147.601L160.075 148.743ZM148.903 148.299L143.317 148.083L143.355 146.928L148.941 147.156L148.903 148.299ZM137.73 147.855L132.144 147.639L132.195 146.496L137.781 146.712L137.73 147.855Z" fill="#3422F2"/>
<path d="M182.191 133.546L181.227 128.519L182.356 128.303L183.321 133.33L182.191 133.546ZM180.173 123.034L179.119 117.537L180.249 117.321L181.303 122.818L180.173 123.034ZM178.065 112.052L177.011 106.555L178.141 106.339L179.195 111.836L178.065 112.052Z" fill="#3422F2"/>
</svg>
