<svg width="16" height="13" viewBox="0 0 16 13" fill="none" xmlns="http://www.w3.org/2000/svg">
<path fill-rule="evenodd" clip-rule="evenodd" d="M7.95012 12.274C8.37512 11.955 8.86912 11.611 9.39412 11.242C12.0121 9.41502 15.5211 6.96802 15.5211 4.37402C15.5497 3.71653 15.4104 3.0626 15.1163 2.47387C14.8222 1.88514 14.383 1.38101 13.8401 1.00902C13.3417 0.682757 12.7739 0.47731 12.1821 0.409016C11.251 0.291243 10.3103 0.537506 9.55627 1.09644C8.80226 1.65538 8.29315 2.48383 8.13512 3.40902C8.12981 3.43342 8.11969 3.45653 8.10536 3.47698C8.09102 3.49743 8.07275 3.51482 8.05162 3.52814C8.03049 3.54145 8.00691 3.55042 7.98227 3.55452C7.95763 3.55862 7.93242 3.55777 7.90812 3.55202C7.87223 3.54323 7.83969 3.52417 7.81447 3.49717C7.78925 3.47018 7.77245 3.43641 7.76612 3.40002C7.65134 2.77642 7.37878 2.19262 6.97441 1.70422C6.57005 1.21583 6.04734 0.83913 5.45612 0.610016C4.90141 0.405535 4.30578 0.336954 3.71912 0.410016C3.12719 0.477839 2.55937 0.683324 2.06112 1.01002C1.51838 1.38192 1.07928 1.88588 0.785181 2.47443C0.491086 3.06297 0.351686 3.7167 0.380119 4.37402C0.380119 6.96902 3.88812 9.41601 6.50412 11.242C7.03212 11.612 7.52612 11.955 7.95112 12.274M9.61412 11.553C9.03912 11.953 8.50512 12.326 8.06712 12.659C8.03388 12.6846 7.99309 12.6985 7.95112 12.6985C7.90915 12.6985 7.86836 12.6846 7.83512 12.659C7.39712 12.326 6.86412 11.959 6.28812 11.553C3.60012 9.67902 0.00011896 7.16402 0.00011896 4.37402C-0.0293172 3.6534 0.125374 2.93718 0.449589 2.29295C0.773803 1.64871 1.25685 1.09773 1.85312 0.692015C2.39885 0.332551 3.02106 0.105651 3.67008 0.0294282C4.3191 -0.0467943 4.97695 0.0297723 5.59112 0.253016C6.13969 0.460713 6.63561 0.787041 7.04341 1.20867C7.45121 1.6303 7.76083 2.13682 7.95012 2.69202C8.13952 2.13672 8.44929 1.63014 8.85727 1.2085C9.26525 0.786863 9.76136 0.460589 10.3101 0.253016C10.9242 0.0296273 11.582 -0.0471052 12.231 0.0289435C12.8801 0.104992 13.5023 0.331716 14.0481 0.691015C14.6444 1.09694 15.1273 1.64813 15.4513 2.29255C15.7754 2.93696 15.9298 3.65333 15.9001 4.37402C15.9001 7.16402 12.3001 9.68002 9.61212 11.554" fill="#3422F2"/>
</svg>
