<svg width="30" height="21" viewBox="0 0 30 21" fill="none" xmlns="http://www.w3.org/2000/svg">
<path d="M22.128 1.475C22.128 1.0838 21.9726 0.708631 21.696 0.432014C21.4194 0.155398 21.0442 0 20.653 0H1.475C1.08381 0 0.708634 0.155398 0.432018 0.432014C0.155401 0.708631 0 1.0838 0 1.475C0 1.86619 0.155401 2.24137 0.432018 2.51798C0.708634 2.7946 1.08381 2.95 1.475 2.95H20.653C21.0442 2.95 21.4194 2.7946 21.696 2.51798C21.9726 2.24137 22.128 1.86619 22.128 1.475ZM1.475 8.851H28.029C28.4202 8.851 28.7954 9.0064 29.072 9.28301C29.3486 9.55963 29.504 9.9348 29.504 10.326C29.504 10.7172 29.3486 11.0924 29.072 11.369C28.7954 11.6456 28.4202 11.801 28.029 11.801H1.475C1.08381 11.801 0.708634 11.6456 0.432018 11.369C0.155401 11.0924 0 10.7172 0 10.326C0 9.9348 0.155401 9.55963 0.432018 9.28301C0.708634 9.0064 1.08381 8.851 1.475 8.851ZM1.475 17.702H14.752C15.1432 17.702 15.5184 17.8574 15.795 18.134C16.0716 18.4106 16.227 18.7858 16.227 19.177C16.227 19.5682 16.0716 19.9434 15.795 20.22C15.5184 20.4966 15.1432 20.652 14.752 20.652H1.475C1.08381 20.652 0.708634 20.4966 0.432018 20.22C0.155401 19.9434 1.75834e-07 19.5682 1.75834e-07 19.177C1.75834e-07 18.7858 0.155401 18.4106 0.432018 18.134C0.708634 17.8574 1.08381 17.702 1.475 17.702Z" fill="white"/>
</svg>
