<svg width="390" height="290" viewBox="0 0 390 290" fill="none" xmlns="http://www.w3.org/2000/svg">
<path d="M323.9 86.691C323.9 86.691 319.491 85.763 319.665 82.63C319.665 82.63 315.952 75.784 317.865 72.361C318.314 71.4141 318.987 70.5911 319.826 69.9637C320.665 69.3363 321.645 68.9234 322.68 68.761C322.68 68.761 320.88 59.769 325.465 56.404C325.465 56.404 328.888 54.373 335.908 56.81C336.995 59.2987 337.261 62.0693 336.666 64.7192C336.071 67.3692 334.648 69.7605 332.601 71.546C332.601 71.546 323.377 70.56 323.145 69.864C322.913 69.168 324.537 82.279 324.537 82.279L323.145 85.122L323.9 86.691Z" fill="#FBDBCC"/>
<path d="M189.657 110.804C194.785 110.522 199.745 111.609 204.708 112.656C212.144 114.224 219.692 115.304 227.015 117.356C243.114 121.724 258.802 127.487 273.901 134.578C278.625 136.847 283.339 139.198 287.939 141.739C292.521 144.091 297.307 146.021 302.239 147.504C314.227 151.51 326.333 155.155 338.459 158.738C345.879 160.931 353.311 163.103 360.731 165.304C364.097 166.304 367.611 166.953 370.866 168.233C378.026 171.048 382.457 176.255 383.466 184.062C384.12 189.106 384.575 194.174 385.144 199.223C385.644 203.699 385.966 208.176 386.319 212.657C387.075 222.233 379.47 231.102 369.899 231.511C363.571 231.782 357.23 231.804 350.894 231.833C347.823 231.847 345.045 231.123 343.837 227.555C342.097 235.442 337.818 242.54 331.655 247.761C332.46 248.158 333.367 248.301 334.255 248.172C352.103 248.183 369.951 248.191 387.799 248.196C388.482 248.196 389.466 247.796 389.799 248.486C390.146 249.214 389.422 250.027 388.89 250.497C386.973 252.186 385.231 253.997 382.239 253.997C265.867 253.945 149.495 253.935 33.1231 253.966C31.6215 253.994 30.1306 253.709 28.7455 253.128C27.3605 252.548 26.1117 251.684 25.0791 250.594C24.3633 249.92 23.894 249.025 23.7461 248.053H81.3891C78.9611 244.853 75.8081 242.721 74.0141 239.414C72.171 236.278 70.84 232.869 70.0711 229.314C69.8161 229.381 69.629 229.372 69.578 229.451C66.942 233.52 63.1441 233.027 59.1491 232.274C50.0971 230.568 41.0231 228.982 31.9491 227.391C30.4491 227.129 28.9751 227.628 27.3771 227.368C22.7244 226.666 18.3304 224.78 14.6171 221.89C14.0219 221.501 13.3958 221.161 12.745 220.875C10.716 219.78 10.5721 217.629 9.97207 215.775C8.85907 212.336 8.17204 211.843 4.61504 212.25C3.83944 212.366 3.05233 212.385 2.27206 212.306C1.95883 212.302 1.64964 212.235 1.36336 212.108C1.07709 211.981 0.819736 211.796 0.607017 211.566C0.394298 211.337 0.230682 211.066 0.126152 210.77C0.0216215 210.475 -0.021632 210.162 -0.000954167 209.849C0.0483792 203.838 0.101376 197.828 0.158042 191.818C0.171042 190.578 0.722063 189.887 2.09206 189.945C3.52706 190.005 4.96806 189.945 6.40606 189.923C9.07906 189.887 9.80105 189.065 9.92205 186.37C10.2297 179 10.9106 171.651 11.9621 164.35C13.5841 153.35 21.9521 146.267 33.0621 146.036C34.7621 146.001 36.4621 146.056 38.1561 146.136C40.5134 146.322 42.8752 145.837 44.9681 144.736C51.5851 141.047 58.6111 138.22 65.4481 134.998C69.4581 133.108 73.403 130.921 77.525 129.468C81.778 127.968 86.099 126.568 90.341 125.005C102.541 120.522 115.127 117.411 127.676 114.17C132.498 113.001 137.412 112.254 142.363 111.935C142.754 111.903 143.141 111.841 143.522 111.749C147.139 110.886 147.61 110.337 147.3 106.644C146.866 101.488 146.86 101.684 151.894 101.705C160.778 101.741 169.663 101.747 178.547 101.779C180.558 101.786 181 102.419 181.072 105.237C181.032 105.425 180.977 105.615 180.954 105.809C180.243 111.723 180.354 111.861 185.954 112.389C186.659 112.536 187.392 112.463 188.053 112.18C188.715 111.896 189.274 111.416 189.654 110.805M378.284 189.964C378.163 188.349 378.12 186.724 377.907 185.121C377.136 179.321 374.179 175.246 368.414 173.554C364.322 172.354 360.199 171.262 356.089 170.122C342.549 166.009 329.021 161.856 315.465 157.797C304.374 154.475 293.404 150.95 283.042 145.602C253.333 130.272 222.193 119.431 188.688 116.129C175.746 114.834 162.704 114.914 149.779 116.369C138.157 117.776 126.651 120.021 115.352 123.086C94.0681 128.834 73.4218 136.726 53.7301 146.64C46.7641 150.087 39.5301 152.278 31.5911 151.988C22.8531 151.669 17.9481 159.797 17.4111 165.505C17.2661 167.043 17.8611 167.644 19.3971 167.617C22.7971 167.557 26.1971 167.59 29.5971 167.588C30.5761 167.588 31.6971 167.403 31.646 168.938C31.599 170.356 30.5461 170.353 29.5391 170.348C26.0761 170.331 22.6111 170.336 19.1491 170.26C17.6301 170.227 16.8291 170.817 16.6941 172.36C15.8781 181.717 15.0474 191.072 14.202 200.426C14.043 202.166 14.5851 202.97 16.4551 202.915C19.6551 202.821 22.861 202.901 26.064 202.882C27.148 202.875 28.3841 202.805 28.34 204.282C28.303 205.514 27.2221 205.677 26.1491 205.661C22.8171 205.614 19.4831 205.63 16.1491 205.583C14.1091 205.554 13.5811 206.026 13.5661 208.053C13.6084 210.85 14.58 213.554 16.3277 215.739C18.0754 217.924 20.5001 219.465 23.2201 220.121C28.3101 221.495 33.5551 222.137 38.7381 223.066C45.9751 224.366 53.214 225.651 60.473 226.814C63.537 227.305 64.0651 226.794 64.0991 223.657C64.1228 221.049 64.4804 218.454 65.163 215.937C67.4909 207.212 72.9955 199.673 80.5963 194.798C88.1972 189.923 97.3456 188.065 106.246 189.588C122.423 192.288 135.057 206.821 135.559 223.3C135.692 227.659 136.237 228.183 140.67 228.139C152.303 228.024 163.936 227.905 175.57 227.782C187.857 227.657 200.144 227.534 212.431 227.412C232.498 227.212 252.564 227.017 272.631 226.827C275.708 226.798 276.295 226.304 276.331 223.195C276.417 220.134 276.887 217.096 277.731 214.152C281.792 198.936 299.876 184.877 318.743 188.458C328.368 190.285 336.661 194.681 342.752 202.658C347.422 208.771 349.324 215.858 350.125 223.343C350.361 225.543 350.953 226.183 353.025 226.174C358.384 226.149 363.745 226.174 369.1 225.99C372.129 225.901 375.012 224.669 377.168 222.54C379.324 220.411 380.594 217.544 380.721 214.517C380.794 209.93 380.06 205.417 379.621 200.875C379.455 199.16 378.566 198.547 376.894 198.575C372.711 198.636 368.526 198.599 364.343 198.592C363.394 198.592 362.367 198.516 362.309 197.292C362.244 195.921 363.292 195.824 364.345 195.828C367.352 195.838 370.36 195.838 373.367 195.828C378.922 195.8 379.167 195.498 378.286 189.971M282.381 222.543L281.901 222.605C281.801 223.799 281.741 224.998 281.586 226.185C280.959 230.985 279.535 232.185 274.722 232.232C265.968 232.318 257.215 232.471 248.461 232.561C229.581 232.756 210.701 232.938 191.82 233.109C174.179 233.27 156.537 233.386 138.896 233.581C135.333 233.62 132.138 233.104 130.158 229.7C130.127 229.647 129.925 229.693 129.658 229.693C128.031 237.031 123.683 242.752 117.969 247.947H294.95C291.537 244.155 287.85 241.026 285.808 236.498C283.855 232.083 282.696 227.359 282.382 222.542M338.096 223.116C338.11 218.185 336.662 213.362 333.936 209.253C331.21 205.145 327.328 201.936 322.78 200.032C318.231 198.129 313.221 197.615 308.381 198.557C303.542 199.498 299.089 201.853 295.587 205.323C292.084 208.793 289.688 213.223 288.701 218.054C287.714 222.884 288.181 227.899 290.042 232.465C291.903 237.031 295.075 240.943 299.158 243.707C303.24 246.472 308.051 247.964 312.981 247.997C319.611 248.028 325.981 245.423 330.691 240.757C335.401 236.091 338.065 229.746 338.096 223.116ZM74.9741 222.853C74.9561 226.166 75.5965 229.449 76.8582 232.513C78.1199 235.576 79.9777 238.358 82.3236 240.697C84.6696 243.037 87.457 244.887 90.5239 246.139C93.5909 247.392 96.8762 248.023 100.189 247.996C113.656 247.927 125.042 236.565 124.846 223.074C124.824 216.494 122.202 210.189 117.552 205.534C112.902 200.879 106.6 198.25 100.02 198.221C93.4397 198.192 87.1148 200.764 82.4234 205.378C77.732 209.992 75.0545 216.273 74.9741 222.853ZM168.467 111.107C171.191 110.93 173.598 110.792 176.002 110.612C177.527 110.497 178.645 109.967 178.502 108.112C178.277 105.141 177.827 104.502 175.553 104.533C171.774 104.586 167.995 104.686 164.216 104.833C160.303 104.988 156.405 104.783 152.5 104.606C150.449 104.513 149.647 105.606 149.656 108.112C149.662 109.858 150.656 110.738 152.585 110.677C153.493 110.648 154.4 110.571 155.309 110.551C159.701 110.471 164.094 110.659 168.464 111.112M8.82406 197.859H8.97704C8.97704 196.759 9.04906 195.646 8.96206 194.549C8.76206 192.069 8.31007 191.762 5.31707 191.882C2.95807 191.977 2.61706 192.465 2.39806 194.796C1.98806 199.085 2.64505 203.356 2.44305 207.636C2.36205 209.361 3.36304 210.079 4.97704 210.145C6.93504 210.225 7.92604 209.471 8.05904 207.769C8.31771 204.465 8.57272 201.161 8.82406 197.856" fill="#474A4C"/>
<path d="M189.657 110.804C189.277 111.415 188.718 111.895 188.056 112.178C187.395 112.462 186.662 112.535 185.957 112.388C180.357 111.86 180.245 111.721 180.957 105.808C180.98 105.614 181.035 105.424 181.075 105.236C181.175 106.2 181.339 107.159 181.355 108.121C181.387 110.066 182.462 110.766 184.247 110.702C186.048 110.471 187.872 110.505 189.663 110.802" fill="#EDB81B"/>
<path d="M378.287 189.963C379.171 195.49 378.923 195.792 373.368 195.82C370.361 195.835 367.353 195.835 364.346 195.82C363.293 195.82 362.246 195.913 362.31 197.284C362.368 198.508 363.395 198.584 364.344 198.584C368.528 198.591 372.713 198.628 376.896 198.567C378.567 198.543 379.457 199.155 379.623 200.867C380.062 205.408 380.795 209.922 380.723 214.509C380.596 217.539 379.326 220.408 377.168 222.538C375.01 224.668 372.124 225.9 369.093 225.987C363.739 226.167 358.377 226.147 353.018 226.171C350.945 226.181 350.353 225.543 350.118 223.34C349.318 215.855 347.418 208.768 342.745 202.655C336.653 194.681 328.36 190.285 318.736 188.455C299.869 184.874 281.786 198.933 277.724 214.149C276.88 217.093 276.41 220.131 276.324 223.192C276.289 226.3 275.701 226.792 272.624 226.824C252.557 227.014 232.491 227.209 212.424 227.409C200.137 227.53 187.85 227.653 175.563 227.778C163.93 227.896 152.297 228.015 140.663 228.135C136.23 228.179 135.685 227.654 135.552 223.296C135.052 206.817 122.416 192.286 106.24 189.584C97.3396 188.061 88.1912 189.919 80.5904 194.794C72.9895 199.669 67.4849 207.208 65.1571 215.933C64.4748 218.45 64.1172 221.045 64.093 223.653C64.059 226.79 63.5301 227.3 60.4671 226.81C53.2081 225.647 45.9671 224.359 38.7321 223.061C33.5491 222.132 28.3041 221.491 23.2141 220.116C20.4941 219.46 18.0695 217.919 16.3217 215.734C14.574 213.549 13.6024 210.845 13.5601 208.048C13.5741 206.021 14.1021 205.548 16.1421 205.578C19.4751 205.625 22.8081 205.609 26.1421 205.656C27.2151 205.671 28.2961 205.509 28.3331 204.277C28.3781 202.8 27.1411 202.87 26.0571 202.877C22.8571 202.896 19.6491 202.816 16.4481 202.91C14.5781 202.965 14.0361 202.161 14.1951 200.422C15.0517 191.069 15.8824 181.713 16.6871 172.356C16.8211 170.815 17.6231 170.225 19.1411 170.256C22.6041 170.332 26.0671 170.328 29.5311 170.344C30.5391 170.344 31.5911 170.351 31.6381 168.934C31.6891 167.399 30.5671 167.583 29.5891 167.584C26.1891 167.584 22.7891 167.554 19.3891 167.613C17.8521 167.64 17.2581 167.039 17.4031 165.501C17.9391 159.794 22.8451 151.665 31.5831 151.984C39.5261 152.274 46.7571 150.084 53.7221 146.636C73.4138 136.722 94.0601 128.83 115.344 123.082C126.643 120.016 138.149 117.771 149.771 116.364C162.696 114.91 175.738 114.829 188.68 116.125C222.18 119.425 253.324 130.267 283.034 145.598C293.396 150.945 304.366 154.471 315.457 157.792C329.013 161.852 342.541 166.005 356.081 170.118C355.353 172.275 355.058 174.555 355.215 176.827C355.569 179.472 355.486 182.135 355.647 184.784C355.856 188.225 358.288 190.26 361.719 190.36C367.247 190.522 372.747 189.66 378.276 189.96M167.428 150.726C167.503 151.175 167.612 151.621 167.646 152.073C167.961 156.238 167.62 156.609 163.516 156.609C152.732 156.609 141.948 156.609 131.163 156.609C126.463 156.609 121.755 156.568 117.051 156.537C115.94 156.53 115.097 156.796 115.123 158.148C115.148 159.448 116.032 159.538 117.014 159.542C118.185 159.542 119.357 159.602 120.529 159.602C172.228 159.602 223.928 159.602 275.629 159.602C276.672 159.602 277.715 159.502 278.758 159.439C279.628 159.383 280.308 159.056 280.313 158.055C280.319 157.013 279.534 156.771 278.721 156.698C277.812 156.617 276.893 156.62 275.979 156.621C242.646 156.636 209.312 156.653 175.979 156.674C170.579 156.674 170.351 156.433 170.93 151.143C200.536 151.143 230.142 151.14 259.747 151.134C260.463 151.176 261.182 151.143 261.891 151.034C262.577 150.884 263.348 150.599 263.391 149.711C263.434 148.823 263.749 147.838 262.701 147.255C262.137 146.941 261.586 146.616 261.001 146.331C252.432 142.173 243.594 138.674 234.666 135.379C226.486 132.387 218.125 129.915 209.633 127.979C203.687 126.604 197.685 125.596 191.642 124.729C186.489 123.99 181.312 123.583 176.142 123.361C167.164 123.064 158.178 123.541 149.282 124.785C142.317 125.685 135.444 127.036 128.634 128.617C119.448 130.784 110.401 133.504 101.543 136.763C93.4001 139.726 85.4201 143.086 77.4431 146.463C76.5731 146.831 75.809 147.251 75.929 148.444C76.055 149.68 76.9021 150.076 77.8951 150.272C78.5416 150.362 79.1953 150.389 79.8471 150.354C90.4664 150.354 101.086 150.354 111.706 150.354C120.299 150.354 128.895 150.477 137.486 150.322C147.477 150.141 157.449 150.858 167.435 150.737M206.943 217.377H261.243C261.766 217.377 262.289 217.387 262.811 217.367C263.699 217.332 264.321 216.994 264.344 215.982C264.368 214.889 263.726 214.472 262.754 214.422C261.782 214.372 260.798 214.34 259.82 214.34C224.203 214.336 188.587 214.338 152.97 214.345C152.122 214.347 151.276 214.418 150.44 214.558C150.107 214.586 149.799 214.745 149.584 215.001C149.368 215.256 149.263 215.586 149.291 215.919C149.278 216.252 149.395 216.577 149.618 216.824C149.841 217.072 150.153 217.222 150.485 217.243C151.196 217.338 151.912 217.381 152.629 217.373C170.731 217.379 188.833 217.381 206.936 217.378M95.7361 156.621V156.649C91.6841 156.649 87.6324 156.649 83.5811 156.649C82.5811 156.649 81.4811 156.571 81.4271 157.987C81.3661 159.51 82.5771 159.587 83.6101 159.595C91.6507 159.627 99.691 159.629 107.731 159.601C108.831 159.601 109.998 159.356 109.925 157.96C109.858 156.671 108.725 156.621 107.699 156.622C103.712 156.626 99.7244 156.626 95.7371 156.622M179.512 173.103C181.012 173.103 182.512 173.118 184.012 173.098C184.948 173.085 185.731 172.755 185.776 171.686C185.824 170.543 185.003 170.303 184.069 170.302C181.135 170.296 178.2 170.302 175.269 170.302C174.341 170.302 173.504 170.489 173.511 171.636C173.517 172.701 174.263 173.086 175.211 173.103C176.645 173.129 178.08 173.11 179.511 173.103" fill="#FCFCFC"/>
<path d="M282.384 222.535C282.698 227.352 283.858 232.076 285.811 236.491C287.848 241.019 291.54 244.148 294.953 247.94H117.964C123.678 242.745 128.026 237.024 129.653 229.686C129.923 229.686 130.126 229.639 130.153 229.693C132.134 233.093 135.328 233.613 138.891 233.574C156.532 233.374 174.174 233.263 191.815 233.102C210.696 232.93 229.576 232.747 248.456 232.554C257.21 232.463 265.963 232.31 274.717 232.225C279.531 232.178 280.954 230.975 281.581 226.178C281.736 224.991 281.794 223.792 281.897 222.599L282.376 222.536" fill="#FDFDFE"/>
<path d="M338.098 223.109C338.079 228.033 336.603 232.84 333.857 236.927C331.111 241.013 327.218 244.196 322.667 246.075C318.116 247.953 313.111 248.443 308.282 247.483C303.453 246.522 299.016 244.155 295.53 240.678C292.044 237.202 289.664 232.771 288.691 227.945C287.717 223.119 288.193 218.113 290.059 213.556C291.925 209 295.097 205.098 299.176 202.341C303.255 199.584 308.059 198.095 312.982 198.062C319.633 198.058 326.013 200.693 330.722 205.389C335.431 210.086 338.084 216.459 338.098 223.109ZM298.678 222.701C298.641 226.561 300.136 230.277 302.835 233.036C305.535 235.794 309.219 237.369 313.078 237.414C314.959 237.43 316.824 237.071 318.565 236.359C320.306 235.646 321.888 234.595 323.218 233.265C324.548 231.935 325.601 230.354 326.314 228.613C327.027 226.872 327.386 225.007 327.371 223.126C327.335 214.764 321.309 208.672 313.113 208.714C305.231 208.754 298.639 215.14 298.674 222.702" fill="#FBFBFB"/>
<path d="M74.9771 222.846C75.0574 216.266 77.7351 209.985 82.4265 205.371C87.1178 200.757 93.4427 198.185 100.023 198.214C106.603 198.243 112.905 200.872 117.555 205.527C122.205 210.182 124.827 216.487 124.849 223.067C125.049 236.558 113.659 247.921 100.192 247.989C96.8792 248.017 93.5939 247.385 90.527 246.133C87.4601 244.88 84.6726 243.03 82.3267 240.69C79.9807 238.351 78.1229 235.569 76.8612 232.506C75.5995 229.442 74.9591 226.159 74.9771 222.846ZM84.9501 222.773C85.0321 231.861 91.0051 238.111 99.5341 238.12C101.547 238.198 103.555 237.871 105.44 237.16C107.325 236.448 109.048 235.367 110.507 233.978C111.967 232.59 113.134 230.923 113.938 229.077C114.743 227.23 115.17 225.241 115.193 223.226C115.216 221.212 114.836 219.213 114.074 217.349C113.312 215.484 112.184 213.791 110.757 212.369C109.329 210.947 107.632 209.826 105.764 209.071C103.896 208.317 101.896 207.944 99.8821 207.975C97.9168 207.918 95.9603 208.26 94.1314 208.982C92.3025 209.704 90.6394 210.789 89.2429 212.174C87.8465 213.558 86.7459 215.211 86.0079 217.034C85.27 218.856 84.9101 220.809 84.9501 222.775" fill="#FBFBFB"/>
<path d="M378.287 189.963C372.758 189.663 367.259 190.525 361.731 190.363C358.299 190.263 355.867 188.228 355.658 184.787C355.497 182.137 355.58 179.474 355.226 176.829C355.07 174.557 355.364 172.277 356.092 170.12C360.201 171.26 364.325 172.351 368.416 173.552C374.182 175.244 377.139 179.317 377.91 185.119C378.123 186.719 378.166 188.347 378.287 189.962" fill="#EBF0F8"/>
<path d="M168.467 111.1C164.097 110.647 159.704 110.459 155.312 110.539C154.404 110.559 153.497 110.639 152.588 110.665C150.663 110.727 149.665 109.846 149.659 108.1C149.65 105.593 150.451 104.5 152.503 104.594C156.403 104.771 160.303 104.976 164.219 104.821C167.996 104.671 171.775 104.571 175.556 104.521C177.83 104.489 178.28 105.129 178.505 108.1C178.646 109.958 177.528 110.489 176.005 110.6C173.605 110.78 171.194 110.918 168.47 111.095" fill="#FAF9F7"/>
<path d="M8.82407 197.859C8.5694 201.164 8.31442 204.468 8.05908 207.772C7.92608 209.472 6.93508 210.228 4.97708 210.148C3.36408 210.082 2.36209 209.364 2.44309 207.639C2.64309 203.359 1.98807 199.088 2.39807 194.799C2.62107 192.468 2.95808 191.979 5.31708 191.885C8.31008 191.765 8.76607 192.072 8.96207 194.552C9.04907 195.652 8.97708 196.758 8.97708 197.862H8.82407" fill="#FBFAF5"/>
<path d="M167.426 150.726C157.44 150.847 147.468 150.126 137.477 150.311C128.886 150.466 120.291 150.343 111.697 150.343C101.077 150.343 90.4574 150.343 79.838 150.343C79.1862 150.379 78.5326 150.351 77.8861 150.261C76.8931 150.061 76.0451 149.67 75.9201 148.433C75.8001 147.241 76.564 146.821 77.434 146.453C85.409 143.078 93.389 139.717 101.534 136.753C110.392 133.495 119.439 130.774 128.625 128.607C135.434 127.026 142.308 125.677 149.273 124.775C158.169 123.531 167.156 123.054 176.134 123.35C181.304 123.572 186.48 123.98 191.634 124.718C197.678 125.585 203.679 126.593 209.625 127.968C218.117 129.904 226.478 132.376 234.658 135.368C243.586 138.663 252.424 142.162 260.993 146.32C261.58 146.605 262.131 146.93 262.693 147.245C263.741 147.828 263.422 148.828 263.383 149.701C263.344 150.59 262.573 150.874 261.883 151.024C261.174 151.133 260.455 151.166 259.739 151.124C230.133 151.13 200.527 151.133 170.921 151.133C170.864 144.358 170.805 137.582 170.744 130.806C170.744 130.224 170.688 129.642 170.578 129.07C170.506 128.746 170.312 128.461 170.036 128.275C169.761 128.089 169.424 128.016 169.096 128.07C168.764 128.057 168.439 128.17 168.187 128.386C167.935 128.603 167.774 128.907 167.737 129.237C167.686 129.755 167.674 130.276 167.701 130.796C167.608 137.438 167.514 144.08 167.421 150.721" fill="#EBF1F9"/>
<path d="M167.428 150.726C167.521 144.084 167.615 137.442 167.708 130.801C167.681 130.281 167.693 129.76 167.744 129.242C167.781 128.912 167.942 128.608 168.194 128.391C168.446 128.174 168.771 128.062 169.103 128.075C169.431 128.02 169.768 128.094 170.043 128.28C170.319 128.466 170.513 128.75 170.585 129.075C170.695 129.647 170.75 130.228 170.751 130.811C170.818 137.586 170.877 144.362 170.928 151.138C170.349 156.429 170.577 156.673 175.977 156.669C209.31 156.649 242.644 156.631 275.977 156.616C276.891 156.616 277.81 156.616 278.719 156.694C279.532 156.766 280.319 157.008 280.311 158.051C280.306 159.051 279.626 159.379 278.756 159.435C277.714 159.503 276.67 159.598 275.627 159.599C223.928 159.606 172.228 159.606 120.527 159.599C119.355 159.599 118.184 159.544 117.012 159.539C116.03 159.539 115.146 159.447 115.12 158.145C115.094 156.793 115.937 156.527 117.048 156.535C121.748 156.566 126.456 156.602 131.159 156.607C141.944 156.617 152.728 156.617 163.512 156.607C167.612 156.607 167.958 156.236 167.642 152.071C167.608 151.619 167.498 151.171 167.424 150.724" fill="#4F5254"/>
<path d="M206.937 217.366C188.834 217.366 170.732 217.364 152.63 217.361C151.913 217.369 151.197 217.326 150.486 217.232C150.153 217.211 149.842 217.06 149.619 216.813C149.396 216.565 149.279 216.24 149.292 215.907C149.264 215.574 149.37 215.244 149.585 214.989C149.801 214.734 150.108 214.575 150.441 214.547C151.277 214.408 152.123 214.336 152.971 214.334C188.588 214.324 224.204 214.322 259.821 214.329C260.799 214.329 261.778 214.361 262.755 214.411C263.732 214.461 264.369 214.878 264.345 215.971C264.322 216.982 263.7 217.321 262.812 217.356C262.29 217.377 261.766 217.366 261.244 217.366H206.937Z" fill="#505355"/>
<path d="M95.733 156.609C99.7203 156.609 103.708 156.609 107.695 156.609C108.72 156.609 109.853 156.658 109.921 157.947C109.994 159.347 108.821 159.586 107.727 159.588C99.687 159.607 91.6466 159.605 83.606 159.582C82.573 159.582 81.362 159.498 81.423 157.975C81.48 156.558 82.574 156.636 83.578 156.637C87.63 156.64 91.682 156.64 95.734 156.637L95.733 156.609Z" fill="#505355"/>
<path d="M179.508 173.091C178.073 173.091 176.639 173.111 175.208 173.086C174.258 173.069 173.508 172.686 173.508 171.619C173.501 170.472 174.338 170.285 175.266 170.285C178.2 170.285 181.134 170.285 184.066 170.285C185 170.285 185.821 170.527 185.773 171.669C185.728 172.738 184.945 173.069 184.009 173.081C182.509 173.101 181.009 173.086 179.509 173.088" fill="#46494B"/>
<path d="M298.676 222.701C298.64 215.139 305.233 208.753 313.115 208.713C321.315 208.671 327.337 214.764 327.373 223.125C327.388 225.006 327.029 226.871 326.316 228.612C325.603 230.352 324.55 231.934 323.22 233.263C321.89 234.593 320.308 235.645 318.567 236.357C316.826 237.07 314.961 237.429 313.08 237.413C309.221 237.367 305.537 235.793 302.837 233.034C300.138 230.276 298.643 226.559 298.68 222.7" fill="#3422F2"/>
<path d="M84.947 222.773C84.907 220.807 85.2669 218.854 86.0048 217.031C86.7428 215.209 87.8434 213.555 89.2398 212.171C90.6363 210.787 92.2994 209.701 94.1283 208.98C95.9572 208.258 97.9137 207.915 99.879 207.973C101.893 207.942 103.893 208.314 105.761 209.069C107.629 209.824 109.326 210.945 110.754 212.367C112.181 213.788 113.309 215.482 114.071 217.346C114.833 219.211 115.213 221.21 115.19 223.224C115.167 225.238 114.74 227.228 113.935 229.074C113.13 230.921 111.964 232.588 110.504 233.976C109.044 235.364 107.321 236.446 105.437 237.158C103.552 237.869 101.544 238.195 99.531 238.118C91.003 238.109 85.031 231.86 84.947 222.772" fill="#3422F2"/>
<path d="M248.273 109.507C246.54 108.313 245.573 106.425 244.173 104.922C242.573 103.197 241.365 101.109 239.846 99.297C236.434 95.227 235.617 90.69 236.683 85.541C237.107 83.494 237.323 81.383 237.733 79.306C238.581 75.2823 239.681 71.3161 241.028 67.431C241.966 64.605 242.976 61.803 243.986 59.001C244.451 57.712 244.799 56.374 245.158 55.072C245.788 53.0966 247.071 51.3936 248.795 50.242C250.225 49.2852 251.922 48.8085 253.641 48.881C255.218 48.8918 256.78 48.5687 258.223 47.933C259.798 48.125 261.27 47.501 262.804 47.36L262.386 48.414C262.572 49.23 263.38 49.272 263.863 49.77V52.728L265.552 53.87C266.11 54.581 265.543 55.378 266.123 55.897C266.701 56.612 267.777 56.557 268.312 57.275C268.467 58.124 268.151 58.975 268.295 59.288C269.18 60.851 270.437 60.055 271.378 60.721V63.903C273.266 64.47 274.404 66.183 276.309 66.558C277.551 68.32 279.648 68.781 281.335 69.865C281.34 72.2303 281.344 74.597 281.348 76.965C281.348 77.354 281.218 77.801 281.806 77.899C281.637 80.488 280.737 82.981 280.806 85.599C280.051 86.529 280.491 87.669 280.267 88.699C279.767 90.977 279.339 93.27 278.86 95.551C278.26 98.383 277.525 101.192 277.087 104.051C276.851 105.592 275.726 106.837 275.854 108.445C275.106 108.383 275.577 109.513 274.854 109.473C273.654 108.84 273.037 107.5 271.916 106.845C268.974 105.127 267.096 102.345 265.109 99.803C262.921 97.1455 261.198 94.1362 260.016 90.903C258.993 88.373 258.415 85.685 258.309 82.958C258.353 79.958 258.318 76.958 258.322 73.952C258.322 73.372 258.128 72.658 258.393 72.239C259.085 71.139 258.764 70.082 258.498 68.947C257.964 70.43 257.675 71.978 257.218 73.457C256.754 74.957 256.255 76.496 255.887 78.013C255.532 79.476 254.807 80.932 254.877 82.413C254.957 84.093 254.269 85.618 254.307 87.255C254.345 88.892 253.365 90.414 253.958 92.286C254.207 92.511 254.432 92.7625 254.627 93.036C257.477 97.3932 260.731 101.472 264.346 105.219C264.791 105.597 265.198 106.017 265.561 106.474C267.089 108.99 269.616 110.606 271.331 112.946C271.689 114.061 272.866 114.497 273.4 115.54C273.958 116.624 274.854 117.496 275.953 118.024C275.884 118.34 275.747 118.638 275.553 118.897C275.358 119.156 275.11 119.369 274.826 119.524C272.364 121.374 269.554 122.939 268.716 126.273C268.679 126.419 268.516 126.531 268.409 126.661C267.683 127.639 267.143 128.743 266.815 129.916C266.772 130.233 266.664 130.537 266.499 130.811C266.333 131.084 266.114 131.321 265.854 131.507C264.901 131.274 265.481 130.507 265.323 129.992C265.699 128.085 264.783 126.307 264.749 124.414C264.627 123.147 264.174 121.934 263.437 120.897C261.328 117.753 258.596 115.075 255.411 113.028C253.249 111.569 250.875 110.387 248.795 108.911C248.656 108.946 248.531 109.023 248.437 109.131C248.343 109.24 248.285 109.374 248.27 109.517" fill="#534E54"/>
<path d="M312.898 218.587C312.204 218.51 312.426 217.987 312.398 217.576C312.535 217.506 312.798 217.428 312.791 217.367C312.653 215.154 313.262 213.013 313.416 210.827C313.602 208.184 312.667 205.656 312.846 203.008C312.959 201.329 313.246 199.562 312.387 197.94C312.563 195.24 311.826 192.665 311.424 190.04C311.124 188.065 310.587 186.14 310.168 184.208C309.626 181.703 309.392 179.162 308.919 176.654C308.696 175.474 309.169 174.263 309.311 173.077C309.825 169.292 311.16 165.664 313.223 162.449C314.072 161.271 315.004 160.149 315.898 159.009C316.276 158.964 316.659 159.05 316.982 159.252C317.305 159.454 317.549 159.761 317.674 160.121C318.52 161.853 320.148 162.9 321.215 164.459C322.256 165.979 323.295 167.523 324.385 169.02C324.465 169.13 324.401 169.346 324.404 169.513C324.395 169.582 324.401 169.652 324.424 169.718C324.446 169.784 324.482 169.844 324.531 169.893C324.58 169.943 324.64 169.98 324.705 170.003C324.771 170.026 324.841 170.034 324.91 170.026C324.902 170.094 324.909 170.163 324.93 170.229C324.952 170.294 324.989 170.353 325.037 170.402C325.085 170.452 325.143 170.489 325.208 170.513C325.272 170.537 325.341 170.546 325.41 170.539C325.416 170.697 325.416 170.855 325.41 171.013C325.4 171.082 325.406 171.152 325.428 171.218C325.449 171.284 325.485 171.345 325.533 171.395C325.581 171.445 325.64 171.484 325.706 171.508C325.771 171.532 325.841 171.541 325.91 171.534C327.605 173.984 328.816 176.737 329.475 179.643C329.975 181.693 329.606 183.743 329.975 185.723C330.284 187.485 330.43 189.272 330.411 191.061C329.645 191.192 329.923 191.792 329.921 192.224C329.907 195.842 329.914 199.46 329.914 203.078C329.914 205.914 329.914 208.75 329.914 211.585C329.914 212.539 329.919 213.492 329.894 214.446C329.88 214.522 329.883 214.6 329.902 214.675C329.921 214.751 329.956 214.821 330.004 214.882C330.052 214.942 330.112 214.992 330.181 215.028C330.25 215.063 330.326 215.084 330.403 215.088C330.061 215.634 329.881 216.265 329.883 216.909C329.983 218.144 329.848 219.396 329.922 220.634C330.26 226.313 329.329 231.951 329.411 237.62C328.636 237.757 328.935 238.364 328.919 238.802C328.782 242.415 329.279 246.056 328.41 249.635C328.41 251.137 328.413 252.639 328.419 254.141C328.416 255.308 328.412 256.474 328.408 257.641C327.87 257.99 327.243 258.174 326.602 258.172C325.209 258.077 323.802 258.147 322.402 258.149H319.758C319.258 257.975 319.589 257.127 318.896 257.14C318.771 255.385 318.475 253.647 318.011 251.95C317.759 250.782 317.587 249.598 317.497 248.407C317.217 245.853 316.809 243.314 316.273 240.801C315.605 237.617 315.822 234.247 314.381 231.225C314.757 229.564 313.899 228.042 313.808 226.413C313.56 224.816 313.419 223.205 313.385 221.59C313.385 220.803 313.378 220.014 313.401 219.228C313.414 219.152 313.411 219.074 313.391 219C313.372 218.926 313.337 218.856 313.289 218.796C313.241 218.736 313.181 218.687 313.112 218.652C313.044 218.618 312.969 218.598 312.892 218.594" fill="#D2D2D2"/>
<path d="M299.373 248.122C299.367 247.959 299.367 247.795 299.373 247.632C299.192 247.132 299.831 246.366 298.878 246.121C298.809 246.13 298.739 246.123 298.673 246.1C298.608 246.077 298.548 246.04 298.5 245.99C298.451 245.94 298.415 245.88 298.394 245.814C298.373 245.748 298.367 245.678 298.378 245.609C299.061 245.072 299.058 244.65 298.369 244.118C298.301 244.126 298.231 244.118 298.167 244.095C298.102 244.073 298.043 244.035 297.995 243.985C297.948 243.936 297.912 243.876 297.891 243.811C297.87 243.745 297.865 243.676 297.875 243.608C298.561 243.071 298.558 242.645 297.864 242.115C297.788 242.114 297.714 242.097 297.645 242.065C297.576 242.033 297.516 241.986 297.467 241.929C297.418 241.871 297.382 241.803 297.362 241.73C297.341 241.657 297.337 241.581 297.349 241.506C297.372 241.043 297.361 240.578 297.365 240.114C297.184 239.614 297.823 238.847 296.865 238.608C296.859 238.445 296.858 238.283 296.865 238.12C296.689 237.62 297.329 236.845 296.365 236.602C296.359 236.442 296.359 236.282 296.365 236.123C296.184 235.623 296.826 234.852 295.865 234.606C295.865 234.142 295.856 233.677 295.878 233.214C295.89 233.139 295.886 233.063 295.866 232.99C295.846 232.916 295.81 232.849 295.761 232.791C295.712 232.733 295.65 232.687 295.582 232.655C295.513 232.623 295.438 232.607 295.362 232.607C295.362 232.141 295.356 231.674 295.378 231.207C295.39 231.132 295.385 231.056 295.364 230.983C295.343 230.91 295.307 230.843 295.258 230.786C295.208 230.729 295.147 230.683 295.078 230.652C295.009 230.621 294.934 230.606 294.858 230.607C294.858 230.141 294.853 229.674 294.875 229.207C294.887 229.132 294.883 229.055 294.862 228.981C294.842 228.908 294.805 228.84 294.756 228.782C294.706 228.725 294.644 228.678 294.575 228.647C294.506 228.615 294.43 228.599 294.354 228.6C294.354 228.133 294.354 227.666 294.371 227.2C294.383 227.125 294.378 227.049 294.357 226.976C294.336 226.903 294.3 226.835 294.25 226.778C294.2 226.721 294.138 226.675 294.069 226.645C294 226.614 293.925 226.599 293.849 226.6C293.855 226.133 293.849 225.665 293.87 225.2C293.883 225.125 293.88 225.048 293.859 224.974C293.839 224.9 293.802 224.832 293.752 224.775C293.702 224.717 293.639 224.672 293.569 224.641C293.499 224.611 293.423 224.597 293.347 224.6C293.354 224.134 293.347 223.668 293.373 223.2C293.388 223.125 293.385 223.048 293.365 222.974C293.345 222.901 293.309 222.833 293.259 222.775C293.209 222.718 293.146 222.672 293.076 222.643C293.005 222.614 292.929 222.601 292.853 222.605L292.839 222.589C292.716 222.065 293.293 221.318 292.352 221.053C292.343 220.92 292.337 220.784 292.334 220.646C292.408 219.197 292.434 217.758 291.344 216.592C291.437 215.97 291.397 215.335 291.224 214.731C291.052 214.126 290.751 213.565 290.344 213.086L290.349 213.091C290.513 210.78 289.605 208.674 289.019 206.518C288.747 205.518 288.766 204.337 287.842 203.573L287.848 203.578C287.82 202.319 288.155 200.957 286.848 200.065L286.854 200.071C286.854 199.606 286.845 199.14 286.869 198.671C286.881 198.596 286.877 198.519 286.857 198.446C286.836 198.373 286.801 198.305 286.752 198.246C286.703 198.188 286.642 198.141 286.573 198.108C286.505 198.076 286.43 198.058 286.354 198.057C286.173 197.557 286.811 196.794 285.854 196.557C285.255 195.859 284.901 194.983 284.848 194.064C284.802 193.664 285.048 193.123 284.348 193.053C284.305 192.653 284.548 192.115 283.848 192.053C283.804 191.653 284.048 191.117 283.348 191.053C283.303 190.653 283.54 190.121 282.848 190.048C282.052 188.956 281.384 187.777 280.857 186.534C281.457 186.452 281.301 185.995 281.357 185.601C281.366 184.708 281.448 183.818 281.603 182.939C282.475 179.958 284.616 178.147 287.066 176.671C288.886 175.696 290.755 174.818 292.666 174.038C294.7 173.18 296.365 171.63 297.366 169.663C297.547 169.29 297.115 168.614 298.015 168.547C298.723 168.762 298.338 169.515 298.545 169.982C299.954 173.163 301.221 176.402 302.464 179.653C302.739 180.855 303.214 182.001 303.87 183.045C303.898 183.332 303.926 183.618 303.961 183.976L304.885 184.038C304.892 184.197 304.892 184.357 304.885 184.516C305.066 185.016 304.407 185.804 305.393 186.04V186.034C305.406 186.592 305.501 187.146 305.677 187.676C306.882 190.645 307.456 193.832 307.361 197.035C307.275 198.529 308.095 199.835 307.924 201.346C307.834 202.75 307.823 204.158 307.891 205.564C307.891 206.851 307.891 208.139 307.871 209.425C307.857 209.502 307.86 209.581 307.88 209.657C307.899 209.733 307.934 209.804 307.983 209.866C308.032 209.927 308.093 209.977 308.163 210.013C308.232 210.049 308.309 210.07 308.387 210.074C308.387 210.246 308.387 210.418 308.387 210.591C308.387 212.203 308.387 213.816 308.37 215.428C308.356 215.505 308.359 215.585 308.378 215.661C308.397 215.737 308.432 215.808 308.481 215.87C308.529 215.931 308.59 215.982 308.66 216.018C308.729 216.055 308.806 216.076 308.884 216.081C308.884 217.781 308.892 219.481 308.884 221.188C308.884 221.603 308.822 222.01 309.389 222.088C310.082 222.171 309.852 222.698 309.877 223.101C309.723 223.216 309.597 223.366 309.511 223.539C309.425 223.711 309.38 223.901 309.38 224.094C309.38 224.287 309.425 224.477 309.511 224.649C309.597 224.822 309.723 224.972 309.877 225.087C309.801 228.107 310.577 231.069 310.55 234.068C310.539 235.142 310.913 236.153 310.838 237.146C310.61 240.204 311.622 243.165 311.394 246.21C311.294 247.51 312.086 248.672 311.934 250.038C311.739 251.25 311.87 252.493 312.314 253.638C312.702 254.553 312.355 255.767 312.398 256.846C312.427 257.56 312.087 258.368 312.879 258.889C309.8 260.016 306.664 259.536 303.572 259.647C303.188 259.66 302.943 259.547 302.872 259.153C302.882 258.76 302.794 258.37 302.618 258.019C302.441 257.668 302.18 257.366 301.859 257.139C301.865 256.67 301.859 256.201 301.882 255.734C301.894 255.658 301.89 255.581 301.869 255.507C301.848 255.434 301.811 255.366 301.761 255.308C301.711 255.25 301.648 255.204 301.578 255.173C301.508 255.142 301.433 255.126 301.356 255.128L301.363 255.136C301.191 254.636 301.832 253.853 300.85 253.624C300.783 253.63 300.715 253.621 300.652 253.597C300.59 253.573 300.533 253.535 300.487 253.486C300.441 253.437 300.406 253.378 300.387 253.314C300.367 253.25 300.362 253.182 300.372 253.115C301.06 252.582 301.057 252.154 300.362 251.621C300.362 251.156 300.354 250.689 300.377 250.221C300.389 250.146 300.385 250.069 300.364 249.996C300.344 249.922 300.308 249.854 300.259 249.797C300.209 249.739 300.148 249.692 300.079 249.66C300.01 249.628 299.935 249.611 299.859 249.611C299.68 249.111 300.319 248.343 299.359 248.104" fill="#D2D2D2"/>
<path d="M297.868 126.973C298.594 129.115 299.564 131.166 300.758 133.086C302.595 136.61 304.634 140.024 306.865 143.312C307.712 144.512 308.57 145.695 309.465 146.855C309.726 147.171 309.907 147.546 309.992 147.947C308.68 147.846 307.36 147.923 306.068 148.176C300.994 149.899 295.815 151.423 291.248 154.361C289.095 155.746 286.921 157.053 285.784 159.621C285.561 160.351 285.145 161.007 284.578 161.519C284.012 162.031 283.318 162.38 282.569 162.528C279.369 162.175 276.569 163.49 273.953 165.594C272.217 166.994 270.276 168.189 267.853 168.014L264.824 164.526C264.832 164.459 264.825 164.392 264.804 164.328C264.784 164.264 264.749 164.205 264.703 164.156C264.658 164.107 264.602 164.068 264.54 164.043C264.478 164.017 264.411 164.005 264.344 164.008L264.333 163.996C264.402 163.098 264.124 162.208 263.556 161.51C262.169 159.291 261.136 156.869 260.496 154.331C259.438 150.415 258.241 146.546 259.221 142.287C259.835 139.615 260.821 137.631 263.048 136.562C265.963 136.171 268.929 136.532 271.665 137.61C275.251 139.263 279.168 140.077 283.116 139.988C285.399 139.888 287.716 140.288 289.944 139.446H295.187C295.589 138.256 296.268 137.178 297.169 136.301C297.6 135.23 296.789 134.884 296.898 134.073C297.378 133.062 297.515 131.923 297.288 130.827C297.02 130.19 296.327 129.953 296.393 129.05C296.834 128.475 296.655 127.275 297.866 126.972" fill="#D2D2D2"/>
<path d="M302.385 103.475C303.571 106.134 304.389 108.942 304.816 111.822C304.855 112.039 304.703 112.291 304.64 112.522C301.315 110.312 297.367 109.232 293.381 109.441C292.535 109.627 291.881 108.508 291.081 108.974C289.541 109.874 287.7 108.981 286.172 109.913C285.964 110.006 285.734 110.038 285.509 110.004C285.284 109.97 285.074 109.872 284.903 109.722C284.875 109.492 284.838 109.178 284.803 108.863C284.803 108.223 284.801 107.583 284.796 106.943L285.32 106.726C285.269 106.623 285.183 106.543 285.078 106.498C284.973 106.453 284.855 106.448 284.746 106.483C284.213 106.12 284.209 105.757 284.746 105.395C285.074 105.423 285.332 105.353 285.353 104.957C285.374 104.561 285.112 104.464 284.792 104.431C284.921 101.383 284.562 98.307 285.301 95.292C285.178 87.872 286.084 80.4 284.119 72.7999C284.124 72.7069 283.487 73.0509 283.541 72.5669C283.905 72.0959 284.058 71.667 283.356 71.391L283.923 70.4369C284.608 70.5119 284.993 70.1019 285.369 69.4739C285.098 68.1129 285.769 66.8839 286.526 65.5809C286.113 64.5299 285.339 63.358 285.926 62.318C286.678 60.978 286.145 59.9789 285.61 58.8729C285.51 58.6589 285.431 58.431 285.365 58.264L286.365 56.381C286.45 55.3505 286.295 54.3144 285.912 53.354C285.385 52.4166 285.175 51.3344 285.312 50.2679L287.395 50.368L287.35 50.325C287.325 50.701 287.55 50.833 287.878 50.866C289.131 51.34 290.325 52.0499 291.75 51.8359C291.923 52.4169 292.514 52.4359 292.923 52.6089C296.082 53.9089 297.513 56.5209 298.366 59.5919C299.278 62.2666 299.786 65.0624 299.872 67.887C299.736 67.952 299.493 68 299.48 68.087C299.294 69.1633 299.298 70.2639 299.491 71.339L300.34 71.3959C300.365 71.8946 300.389 72.3946 300.413 72.8959C300.085 72.9459 299.813 73.0549 299.879 73.4679C299.945 73.8809 300.224 73.9009 300.552 73.8249C300.975 74.0999 300.901 74.51 300.852 74.915C300.728 74.9113 300.608 74.9554 300.516 75.0381C300.425 75.1208 300.368 75.2357 300.359 75.359C300.144 77.965 300.359 90.4529 300.946 93.1959C301.225 94.4959 301.122 95.8109 301.427 97.0359C302.01 99.1353 302.332 101.299 302.386 103.477" fill="#544F55"/>
<path d="M258.422 46.373C258.623 44.7257 259.273 43.1655 260.302 41.863C262.16 40.557 262.612 38.325 263.786 36.569C263.576 35.176 264.964 33.894 264.074 32.423C263.874 32.602 263.595 32.736 263.529 32.94C262.816 35.0767 261.375 36.8954 259.459 38.079C257.802 39.194 256.337 40.616 254.675 41.76C254.267 42.04 254.302 42.46 254.313 42.871C254.249 42.8649 254.185 42.8716 254.124 42.8909C254.063 42.9102 254.007 42.9416 253.958 42.9833C253.909 43.0249 253.87 43.076 253.841 43.1333C253.813 43.1907 253.797 43.2532 253.793 43.317L253.75 43.355C253.638 43.3583 253.53 43.4012 253.446 43.476C253.362 43.5508 253.307 43.6528 253.291 43.764C253.239 44.0188 253.12 44.255 252.946 44.4482C252.772 44.6414 252.55 44.7847 252.302 44.863C251.677 44.797 251.837 44.333 251.84 43.949C252.724 42.3714 253.859 40.9478 255.2 39.734C256.941 38.2108 258.524 36.5155 259.925 34.674C261.019 33.1445 261.768 31.3953 262.118 29.5476C262.469 27.7 262.414 25.7981 261.956 23.974C261.583 21.7768 261.777 19.5208 262.518 17.419C264.774 9.41204 270.164 4.47704 277.848 1.89004C280.075 1.0482 282.452 0.67739 284.83 0.801039C287.283 0.441039 288.505 2.20104 289.83 3.59304C289.989 4.24304 289.53 4.89304 290.316 5.34104C290.849 4.78804 291.803 5.12504 292.343 4.43004C293.024 4.22969 293.752 4.26064 294.414 4.51804C294.566 4.99004 294.986 4.73304 295.275 4.83504C297.043 4.98704 297.787 6.38104 298.304 7.70804C299.298 10.257 300.104 12.886 300.853 15.519C301.418 17.3841 301.75 19.3122 301.84 21.259C301.976 23.419 301.684 25.5846 300.98 27.6313C300.277 29.678 299.176 31.5654 297.74 33.185C297.411 33.554 297.116 33.953 296.806 34.338C296.659 34.3454 296.513 34.349 296.366 34.349C296.327 33.7423 296.414 33.1341 296.62 32.5623C296.827 31.9905 297.149 31.4672 297.566 31.025C298.644 29.47 299.442 27.7387 299.925 25.909C299.195 24.5275 298.346 23.2119 297.388 21.977C295.768 20.0563 294.873 17.6285 294.859 15.116C294.917 13.622 294.87 12.124 294.87 10.583C293.983 10.067 293.962 8.85504 293 8.30504L292.151 8.35204L289.851 14.073L290.366 14.324C290.265 14.5357 290.149 14.7393 290.017 14.933C288.227 17.191 285.767 18.533 283.283 19.838C281.304 19.323 279.329 18.914 277.42 20.086C277.663 20.467 278.45 20.229 278.396 20.945C278.31 21.0785 278.205 21.1985 278.084 21.301C276.398 22.162 275.069 23.5876 274.327 25.329C273.521 25.8474 272.826 26.52 272.282 27.308C271.42 27.281 270.753 28.181 269.822 27.823L269.855 27.854C270.185 27.154 270.515 26.448 270.827 25.784V22.843C270.908 22.824 271.047 22.826 271.061 22.785C271.815 20.562 272.742 18.485 275.027 17.363C275.443 17.163 275.471 16.708 275.044 16.348C273.581 16.608 272.677 17.94 271.281 18.334C270.19 18.709 269.245 19.4183 268.581 20.361C267.389 21.7228 266.544 23.3522 266.118 25.1107C265.691 26.8692 265.696 28.7047 266.131 30.461C266.625 32.6394 266.644 34.8985 266.188 37.085C265.427 40.712 262.947 43.371 260.163 45.675C259.939 45.9088 259.668 46.0918 259.367 46.2115C259.066 46.3313 258.743 46.385 258.42 46.369M278.344 13.821C278.129 13.851 277.894 13.862 277.976 14.191C278.305 14.272 278.315 14.037 278.345 13.822C278.561 13.793 278.795 13.782 278.713 13.453C278.383 13.372 278.374 13.607 278.344 13.821ZM276.161 15.321C275.861 15.578 275.771 15.844 275.996 16.167C276.056 16.2175 276.126 16.2542 276.202 16.2748C276.277 16.2953 276.356 16.2991 276.433 16.286C276.511 16.2729 276.584 16.2431 276.649 16.1987C276.713 16.1543 276.767 16.0964 276.807 16.029C276.829 15.697 276.829 15.379 276.162 15.322M279.262 12.533L279.102 12.363L278.93 12.528L279.179 12.703L279.265 12.537" fill="black"/>
<path d="M304.884 184.515C304.889 184.356 304.889 184.196 304.884 184.037C304.838 183.787 304.716 183.558 304.534 183.38C304.353 183.203 304.121 183.085 303.87 183.045C303.214 182.001 302.739 180.854 302.464 179.652C301.221 176.401 299.954 173.161 298.546 169.981C298.339 169.513 298.724 168.76 298.015 168.546C297.115 168.613 297.547 169.289 297.366 169.662C296.365 171.629 294.7 173.179 292.666 174.037C290.755 174.817 288.885 175.695 287.066 176.67C284.615 178.146 282.475 179.957 281.603 182.938C281.449 183.817 281.367 184.708 281.358 185.6C281.304 185.994 281.458 186.451 280.858 186.533C279.253 183.229 277.415 180.043 275.358 176.999C275.043 176.521 274.743 176.583 274.358 176.544C274.843 174.695 276.016 173.101 277.637 172.087C279.258 171.073 281.205 170.716 283.08 171.088C284.846 172.411 287.115 172.806 289.257 173.458C289.815 173.622 290.408 173.635 290.972 173.494C291.537 173.354 292.055 173.065 292.471 172.658C292.956 172.204 293.392 171.7 293.848 171.221C293.848 169.608 293.938 168.021 293.826 166.45C293.737 165.58 293.911 164.703 294.324 163.933C294.738 163.163 295.373 162.534 296.147 162.127C297.411 161.22 298.87 160.619 300.407 160.374C301.569 159.16 302.666 157.898 303.884 156.766C306.77 154.087 310.984 153.142 314.462 155.421L314.045 155.621C314.196 156.464 314.667 157.217 315.36 157.721C315.556 157.866 315.709 158.061 315.803 158.287C315.896 158.512 315.926 158.759 315.89 159C314.996 160.145 314.064 161.263 313.215 162.441C311.156 165.658 309.825 169.287 309.315 173.072C309.173 174.259 308.7 175.472 308.923 176.649C309.396 179.157 309.63 181.698 310.172 184.203C310.591 186.14 311.126 188.06 311.428 190.035C311.828 192.663 312.566 195.241 312.391 197.935C313.247 199.557 312.963 201.324 312.85 203.003C312.671 205.651 313.606 208.179 313.42 210.822C313.266 213.008 312.657 215.149 312.795 217.362C312.795 217.423 312.539 217.501 312.402 217.571C312.421 215.061 312.082 212.561 311.396 210.147C311.378 210.065 311.378 209.98 311.396 209.898C311.739 207.498 310.596 205.198 310.916 202.817C311.111 201.381 310.276 200.138 310.375 198.725C310.564 197.405 310.543 196.063 310.312 194.749C310.034 193.649 309.895 192.519 309.898 191.385L306.498 186.407C306.368 186.245 306.194 186.124 305.998 186.057C305.801 185.989 305.59 185.979 305.388 186.027V186.032C305.237 185.518 305.809 184.763 304.88 184.508" fill="#D2D2D2"/>
<path d="M314.473 155.419C310.992 153.141 306.781 154.085 303.895 156.764C302.676 157.896 301.58 159.159 300.418 160.372C298.881 160.617 297.422 161.218 296.157 162.125C295.383 162.532 294.748 163.161 294.335 163.931C293.921 164.702 293.747 165.578 293.836 166.448C293.948 168.019 293.859 169.606 293.859 171.219C293.403 171.698 292.966 172.202 292.482 172.656C292.066 173.063 291.549 173.352 290.984 173.492C290.419 173.633 289.826 173.62 289.268 173.456C287.125 172.803 284.857 172.408 283.091 171.085C281.216 170.713 279.269 171.07 277.648 172.084C276.027 173.098 274.854 174.692 274.369 176.541C274.192 177.918 273.612 179.241 273.869 180.797L272.583 181.928C270.746 182.379 269.597 180.786 267.856 180.428V168.008C270.275 168.182 272.216 166.983 273.956 165.588C276.575 163.488 279.373 162.168 282.572 162.521C283.321 162.373 284.015 162.024 284.581 161.512C285.148 161 285.564 160.344 285.787 159.614C286.923 157.047 289.097 155.74 291.251 154.354C295.818 151.416 300.997 149.892 306.071 148.169C307.363 147.917 308.683 147.84 309.995 147.94C311.836 149.803 313.85 151.487 316.009 152.969C317.26 153.72 318.701 153.994 319.866 154.7C319.956 155.47 319.423 155.648 319.029 155.968C317.497 156.02 315.929 156.192 314.477 155.412" fill="#D2D2D2"/>
<path d="M289.947 139.448C287.724 140.295 285.402 139.888 283.119 139.99C279.17 140.079 275.254 139.266 271.667 137.612C268.931 136.534 265.965 136.173 263.051 136.564C260.819 137.633 259.838 139.617 259.224 142.289C258.245 146.548 259.441 150.417 260.499 154.333C261.14 156.87 262.172 159.292 263.559 161.511C264.128 162.209 264.406 163.099 264.337 163.997C262.666 162.87 261.667 161.107 260.359 159.65C258.077 157.297 256.172 154.606 254.711 151.672C253.134 148.21 251.976 144.572 251.262 140.835C250.676 137.757 250.016 134.677 250.417 131.564C251.069 126.51 251.745 121.436 253.779 116.683C253.856 116.447 253.911 116.204 253.944 115.957C254.763 115.831 255.119 116.501 255.538 116.963C256.993 118.404 258.561 119.727 260.227 120.918C261.338 121.711 262.277 122.72 262.99 123.885C263.702 125.05 264.172 126.346 264.372 127.696C264.384 128.552 264.726 129.371 265.326 129.981C265.484 130.493 264.904 131.263 265.857 131.496C266.176 133.925 266.663 134.552 268.629 134.94C268.919 134.377 269.153 133.786 269.326 133.177C269.374 132.89 269.484 132.618 269.648 132.378C269.813 132.138 270.027 131.937 270.277 131.789C271.135 131.188 271.843 130.397 272.347 129.478C273.213 130.068 274 130.767 274.687 131.559C275.174 131.971 275.531 132.572 276.28 132.565C277.654 133.983 279.028 135.401 280.402 136.818C280.985 137.386 281.711 137.785 282.502 137.975C284.349 138.555 286.26 138.904 288.193 139.014C288.779 139.029 289.544 138.607 289.951 139.448" fill="#D2D2D2"/>
<path d="M289.947 139.447C289.54 138.606 288.775 139.028 288.189 139.013C286.256 138.902 284.345 138.553 282.498 137.974C281.706 137.784 280.981 137.384 280.398 136.816C279.026 135.397 277.652 133.979 276.276 132.563C276.236 130.234 276.609 127.917 277.376 125.718C277.916 124.243 278.69 122.854 279.359 121.427L280.349 121.476C281.277 122.251 282.406 122.746 283.605 122.901C284.804 123.057 286.023 122.867 287.118 122.355C287.875 121.972 288.726 121.812 289.57 121.896C290.414 121.98 291.217 122.303 291.884 122.828C290.795 125 290.795 125 287.856 126.464C286.818 126.328 285.766 126.594 284.918 127.208C288.063 128.762 290.311 128.908 292.825 127.724L292.883 126.996C294.583 126.119 295.091 124.235 296.308 122.951C296.773 122.951 296.959 123.343 297.376 123.718C297.302 124.826 297.473 125.937 297.876 126.972C296.665 127.272 296.844 128.472 296.403 129.05C296.336 129.95 297.029 130.19 297.298 130.828C297.525 131.924 297.388 133.063 296.908 134.074C296.8 134.886 297.608 135.231 297.179 136.302C296.278 137.179 295.599 138.257 295.197 139.448L289.947 139.447ZM295.425 131.597C295.835 131.214 295.945 130.951 295.719 130.627C294.819 130.727 294.819 130.727 295.425 131.597Z" fill="#FBDBCC"/>
<path d="M319.903 73.401C319.98 73.4014 320.057 73.3843 320.127 73.3508C320.196 73.3174 320.258 73.2686 320.306 73.208C320.354 73.1474 320.388 73.0767 320.405 73.0012C320.421 72.9256 320.421 72.8473 320.403 72.772C320.355 72.372 320.345 71.982 320.88 71.892C321.88 71.678 321.224 70.892 321.399 70.392C322.352 70.159 321.732 69.404 321.891 68.908C323.455 68.525 324.885 69.391 326.408 69.394C326.766 70.916 327.675 72.276 327.538 74.08C328.799 73.541 330.068 73.674 330.868 72.613L327.939 71.157C328.039 70.509 327.189 70.128 327.409 69.39C327.411 69.3138 327.429 69.2389 327.463 69.1703C327.496 69.1018 327.544 69.0412 327.602 68.9926C327.661 68.944 327.73 68.9085 327.803 68.8886C327.877 68.8686 327.954 68.8647 328.029 68.877C328.653 68.897 329.277 68.89 329.901 68.893L330.91 68.886C332.514 69.8049 334.351 70.2345 336.196 70.122C335.166 69.241 335.486 68.161 335.388 67.173C334.788 66.608 334.445 65.727 333.418 65.887L332.396 62.955C332.606 62.415 331.959 61.535 333.037 61.339L334.907 61.416C335.253 63.366 336.534 64.499 338.357 65.582C338.402 64.7031 338.223 63.8272 337.838 63.036C337.107 61.37 336.838 59.304 334.857 58.42C334.709 58.4113 334.562 58.3977 334.415 58.379V57.237C334.681 56.783 335.107 56.904 335.478 56.858C336.191 56.592 336.625 57.593 337.351 57.272C337.689 58.272 338.741 58.672 339.397 59.854C339.918 61.1814 340.073 62.6243 339.846 64.032C339.254 64.952 339.005 66.367 337.959 67.14C337.744 68.01 338.359 68.495 338.412 68.729C338.468 70.506 337.226 70.893 336.43 71.629V74.559C335.111 76.159 333.173 76.351 331.466 76.859C330.1 77.2116 328.835 77.8751 327.768 78.7978C326.701 79.7205 325.862 80.8774 325.316 82.178C324.666 83.634 323.568 84.915 323.984 86.783C322.901 86.412 321.944 86.383 321.184 85.507C319.649 83.743 319.457 82.738 320.794 80.793C321.542 79.7699 321.932 78.5291 321.905 77.262C321.045 75.945 318.978 75.484 319.405 73.407H319.905" fill="#FBDBCC"/>
<path d="M280.34 121.477L279.35 121.428L278.84 120.464C279.02 120.488 279.203 120.472 279.377 120.419C279.55 120.366 279.711 120.276 279.847 120.156C279.983 120.036 280.091 119.888 280.166 119.722C280.24 119.556 280.277 119.377 280.276 119.195C278.954 118.307 277.338 118.575 275.956 118.02C274.857 117.492 273.961 116.62 273.404 115.536C272.87 114.493 271.692 114.057 271.334 112.942C273.56 112.342 273.996 111.914 274.856 109.463C275.583 109.504 275.111 108.373 275.856 108.435L278.83 108.48C278.85 108.601 278.914 108.711 279.009 108.789C279.104 108.868 279.224 108.909 279.347 108.906C281.163 108.906 282.98 108.886 284.796 108.873C284.833 109.187 284.871 109.502 284.896 109.732C285.067 109.882 285.277 109.98 285.502 110.014C285.727 110.048 285.957 110.016 286.165 109.923C287.693 108.991 289.533 109.881 291.074 108.984C291.874 108.518 292.53 109.636 293.374 109.451C293.038 111.391 294.074 113.201 293.92 115.132C293.899 115.391 294.206 115.676 294.361 115.948C294.361 116.295 294.359 116.641 294.355 116.986C294.283 117.453 294.549 117.98 294.018 118.475C291.177 118.251 288.35 119.075 285.508 119.553C283.662 119.795 281.895 120.453 280.34 121.477Z" fill="#D2D2D2"/>
<path d="M302.94 82.818C303.782 83.18 303.763 84.229 304.697 84.88C306.84 85.521 308.49 83.92 310.208 82.809C312.369 81.5369 314.129 79.6835 315.288 77.46L316.855 80.26C316.855 81.798 316.888 83.3 316.847 84.799C316.877 86.7718 317.494 88.691 318.619 90.312C319.419 91.5154 320.66 92.3562 322.075 92.653C319.254 93.6966 316.51 94.9367 313.862 96.364C313.153 95.364 311.873 96.358 310.989 95.503C310.603 95.13 309.555 95.44 308.808 95.44C308.539 95.2604 308.261 95.0955 307.974 94.946C307.155 94.6266 306.414 94.1348 305.801 93.5041C305.189 92.8733 304.719 92.1182 304.424 91.29C303.459 88.5703 302.957 85.7078 302.939 82.822" fill="#544F55"/>
<path d="M318.901 257.137C319.593 257.124 319.258 257.971 319.763 258.145H322.407C322.418 259.788 323.207 261.213 323.72 262.707C325.146 266.554 327.292 270.094 330.044 273.137C332.505 276.004 334.763 279.07 337.624 281.537C339.624 283.265 341.535 285.063 343.589 287.08H338.575C338.215 286.3 338.538 285.374 338.442 284.761C337.234 281.648 334.668 280.532 332.042 279.711C329.781 278.917 327.661 277.769 325.76 276.311C324.189 275.115 322.716 273.795 321.355 272.365C319.95 271.118 318.769 269.64 317.862 267.995C317.449 267.378 316.956 266.817 316.396 266.329C317.477 263.312 317.696 260.087 318.903 257.129" fill="#FCEBE4"/>
<path d="M302.94 82.8181C302.958 85.7039 303.46 88.5664 304.425 91.2861C304.72 92.1144 305.19 92.8695 305.803 93.5003C306.415 94.1311 307.157 94.6228 307.976 94.942C308.263 95.0915 308.541 95.2565 308.81 95.4361C309.557 95.4361 310.605 95.1261 310.991 95.4991C311.876 96.3551 313.155 95.358 313.864 96.36C310.521 98.91 307.234 101.549 303.302 103.187C303.008 103.31 302.693 103.38 302.387 103.475C302.333 101.297 302.011 99.1334 301.428 97.0341C301.123 95.8081 301.228 94.4931 300.947 93.1931C300.358 90.4511 300.147 77.9631 300.36 75.3571C300.369 75.2338 300.426 75.1189 300.517 75.0362C300.609 74.9535 300.729 74.9094 300.853 74.9131L302.942 82.8131" fill="#2C272D"/>
<path d="M258.423 46.3731C258.746 46.3891 259.069 46.3354 259.37 46.2156C259.671 46.0959 259.942 45.9129 260.166 45.6791C262.95 43.3791 265.43 40.7161 266.191 37.0891C266.647 34.9025 266.628 32.6434 266.134 30.465C265.699 28.7087 265.694 26.8732 266.12 25.1146C266.547 23.3561 267.392 21.7267 268.584 20.3651C269.249 19.4224 270.193 18.7132 271.284 18.3381C272.684 17.9441 273.584 16.6121 275.047 16.3521C275.474 16.7111 275.447 17.1631 275.03 17.3671C272.745 18.4871 271.818 20.5671 271.064 22.7891C271.05 22.8301 270.911 22.829 270.83 22.848C270.31 22.672 269.892 22.1481 269.095 22.4481C268.384 22.8902 267.787 23.4952 267.356 24.2131C267.129 26.4141 267.634 28.6286 268.794 30.5131C269.463 31.5131 270.866 30.9131 271.556 31.8201C271.345 33.1761 271.133 34.5314 270.921 35.886L269.816 39.8101C269.356 39.9901 268.833 39.6431 268.068 40.2261C268.001 41.7861 267.15 43.4471 266.755 45.2491C266.333 45.4101 266.295 45.788 266.243 46.1581C265.02 46.2933 263.843 46.7035 262.801 47.358C261.268 47.5 259.795 48.1231 258.22 47.9321C258.232 47.7893 258.212 47.6456 258.16 47.512C258.108 47.3785 258.026 47.2587 257.92 47.162L258.42 46.3761" fill="black"/>
<path d="M291.752 51.844C290.327 52.058 289.133 51.344 287.88 50.873C287.881 50.8028 287.868 50.733 287.842 50.6678C287.816 50.6025 287.778 50.543 287.729 50.4928C287.68 50.4426 287.621 50.4026 287.556 50.3752C287.492 50.3477 287.422 50.3334 287.352 50.333L287.397 50.376C286.093 48.6848 284.581 47.1648 282.897 45.852C282.853 45.279 282.81 44.705 282.767 44.139C282.334 43.789 281.781 43.547 281.779 42.876L281.851 41.859C283.227 41.9288 284.598 41.6458 285.834 41.037C288.231 39.8122 290.299 38.0287 291.862 35.837L292.468 35.867C292.163 37.86 291.632 39.846 291.468 41.824C291.042 45.1568 291.138 48.5356 291.751 51.839" fill="black"/>
<path d="M290.364 14.3279L289.849 14.0769L292.149 8.35594L292.998 8.30994C293.96 8.85994 293.982 10.0709 294.868 10.5869C294.868 12.1279 294.916 13.6259 294.857 15.1199C294.871 17.6325 295.767 20.0605 297.387 21.9809C298.345 23.2158 299.194 24.5314 299.924 25.9129C299.441 27.7425 298.643 29.4739 297.565 31.0289C297.148 31.4712 296.826 31.9945 296.62 32.5663C296.413 33.1381 296.327 33.7462 296.365 34.3529C296 34.3629 295.884 34.1279 295.844 33.8199C295.804 33.5119 296.018 33.1899 295.722 32.9059C295.027 33.0859 294.75 33.9869 293.934 33.9199L293.834 33.8199C293.775 33.1248 293.951 32.43 294.334 31.8469L297.049 26.6109C296.511 26.0389 296.628 25.1869 295.86 24.8309L295.895 24.8609C295.901 24.7833 295.889 24.7053 295.86 24.6331C295.831 24.5608 295.786 24.4962 295.728 24.4443C295.67 24.3923 295.6 24.3545 295.525 24.3336C295.45 24.3127 295.372 24.3094 295.295 24.3239C295.133 24.3315 294.972 24.3549 294.814 24.3939C294.848 24.2494 294.874 24.1027 294.889 23.9549C294.896 23.4959 295.043 22.9749 294.378 22.8199C292.669 20.4731 291.933 17.5567 292.323 14.6799C292.381 13.9315 292.401 13.1805 292.382 12.4299C292.373 11.9299 292.572 11.3659 292.13 10.8889C291.28 11.9699 291.503 13.4949 290.364 14.3279Z" fill="black"/>
<path d="M280.344 121.477C281.899 120.451 283.667 119.792 285.515 119.549C288.358 119.066 291.184 118.249 294.025 118.471C294.557 117.971 294.29 117.449 294.362 116.982C295.045 118.457 295.534 120.014 295.818 121.614C295.924 122.105 296.263 122.467 296.302 122.951C295.085 124.236 294.575 126.12 292.877 126.996C291.418 126.996 289.958 126.981 288.499 126.996C288.421 127.009 288.341 127.006 288.264 126.986C288.188 126.966 288.116 126.929 288.055 126.88C287.994 126.83 287.943 126.767 287.908 126.696C287.873 126.626 287.853 126.548 287.85 126.469C290.788 125.005 290.788 125.005 291.877 122.833C291.21 122.309 290.408 121.985 289.563 121.902C288.719 121.818 287.869 121.977 287.112 122.36C286.017 122.873 284.798 123.062 283.599 122.906C282.4 122.751 281.271 122.256 280.343 121.481" fill="#D2D2D2"/>
<path d="M265.326 129.982C264.726 129.371 264.385 128.552 264.374 127.696C264.174 126.346 263.704 125.049 262.992 123.885C262.28 122.72 261.34 121.711 260.229 120.918C258.563 119.727 256.994 118.404 255.539 116.962C255.12 116.499 254.764 115.83 253.945 115.956C252.109 113.756 249.852 111.93 248.272 109.508C248.287 109.365 248.345 109.23 248.439 109.122C248.533 109.013 248.658 108.936 248.797 108.901C250.877 110.377 253.251 111.558 255.413 113.018C258.598 115.065 261.33 117.743 263.439 120.887C264.176 121.924 264.629 123.137 264.751 124.404C264.785 126.297 265.702 128.075 265.325 129.982" fill="#2C272D"/>
<path d="M294.368 115.943C294.213 115.67 293.907 115.385 293.927 115.127C294.082 113.196 293.045 111.385 293.381 109.445C297.367 109.236 301.315 110.317 304.64 112.526C304.682 112.597 304.752 112.664 304.761 112.738C304.773 112.914 304.775 113.091 304.767 113.267C301.247 113.948 297.583 114.095 294.367 115.943" fill="#0E080D"/>
<path d="M337.351 57.273C336.625 57.594 336.192 56.593 335.478 56.859C335.361 56.1313 335.474 55.3853 335.802 54.725C336.776 52.783 337.545 50.738 338.502 48.785C338.949 47.87 339.261 46.754 340.477 46.436C340.917 46.536 341.102 46.928 341.427 47.281C341.171 48.523 340.736 49.7212 340.135 50.838C339.072 52.9222 338.143 55.0718 337.353 57.274" fill="#544F55"/>
<path d="M254.32 42.865C254.308 42.451 254.274 42.034 254.681 41.754C256.343 40.61 257.809 39.188 259.466 38.073C261.382 36.8892 262.823 35.0706 263.536 32.934C263.602 32.734 263.884 32.597 264.081 32.418C264.971 33.889 263.581 35.17 263.792 36.564C262.618 38.32 262.166 40.552 260.309 41.858C260.335 40.733 261.329 39.98 261.448 38.891C261.918 38.691 261.929 38.375 261.704 37.976C261.488 38.0276 261.288 38.1313 261.121 38.2781C260.954 38.4249 260.826 38.6102 260.747 38.818C258.767 40.151 256.789 41.487 254.802 42.809C254.682 42.889 254.483 42.85 254.32 42.867" fill="black"/>
<path d="M330.91 68.889L329.901 68.896C329.777 68.0151 329.98 67.1193 330.47 66.377C331.181 65.277 331.383 63.886 332.396 62.957L333.418 65.889C333.081 66.589 332.734 67.278 332.41 67.981C332.307 68.2849 332.1 68.5427 331.826 68.7087C331.551 68.8747 331.227 68.9382 330.91 68.888" fill="#544F55"/>
<path d="M327.408 69.392C327.189 70.13 328.036 70.512 327.939 71.16L330.867 72.615C330.067 73.676 328.798 73.544 327.537 74.082C327.673 72.282 326.766 70.918 326.407 69.396H327.407" fill="#F3B8A1"/>
<path d="M324.556 288.841C328.282 288.619 332.006 288.39 335.733 288.184C336.115 288.163 336.565 288 336.965 288.625C335.733 288.412 334.797 289.194 333.653 289.184C330.616 289.157 327.579 289.175 324.542 289.175L324.556 288.842" fill="#DFE8E4"/>
<path d="M292.345 4.43203C291.805 5.12703 290.851 4.78903 290.318 5.34303C289.528 4.89803 289.991 4.24303 289.832 3.59503C288.51 2.20303 287.288 0.443032 284.832 0.803032C285.442 -0.124968 286.332 0.603032 286.884 0.417032C288.557 1.10503 289.99 1.81703 290.746 3.43203C290.888 3.73539 291.114 3.99125 291.398 4.1687C291.682 4.34615 292.011 4.43761 292.346 4.43203" fill="black"/>
<path d="M328.41 249.627C329.279 246.048 328.782 242.406 328.919 238.794C328.936 238.356 328.636 237.749 329.411 237.611C329.406 241.955 329.402 246.299 329.398 250.643C329.151 250.612 328.925 250.487 328.919 250.243C328.909 249.873 328.78 249.668 328.41 249.628" fill="#D2D2D2"/>
<path d="M329.914 203.068C329.914 199.45 329.907 195.832 329.921 192.215C329.921 191.782 329.644 191.183 330.41 191.052V203.067C330.245 203.067 330.079 203.067 329.91 203.067" fill="#D2D2D2"/>
<path d="M334.415 58.384C334.562 58.403 334.709 58.416 334.857 58.425C334.98 59.203 334.745 60.033 335.349 60.745C335.57 61.005 335.278 61.334 334.906 61.421L333.036 61.344C333.148 60.2299 333.634 59.1866 334.415 58.384Z" fill="#544F55"/>
<path d="M251.844 43.949C251.844 44.333 251.681 44.797 252.307 44.863C252.334 46.116 250.946 46.879 251.323 48.223C250.706 48.152 250.573 47.762 250.273 47.436C250.784 46.272 250.715 44.856 251.845 43.949" fill="#544F55"/>
<path d="M329.911 203.068C330.076 203.063 330.242 203.063 330.411 203.068C330.411 205.903 330.411 208.739 330.411 211.575C330.247 211.583 330.083 211.583 329.919 211.575C329.919 208.74 329.919 205.904 329.919 203.067" fill="#D2D2D2"/>
<path d="M295.844 33.82C295.884 34.128 296 34.362 296.365 34.353C296.512 34.353 296.659 34.353 296.806 34.342L295.036 38.019C294.767 36.339 294.727 34.973 295.845 33.819" fill="#544F55"/>
<path d="M300.343 71.394L299.494 71.337C299.301 70.2619 299.297 69.1614 299.483 68.085C299.496 68.002 299.738 67.953 299.875 67.885C300.025 67.9198 300.156 68.0109 300.241 68.1395C300.325 68.2682 300.357 68.4245 300.33 68.576C300.312 69.513 300.336 70.451 300.343 71.39" fill="#534E54"/>
<path d="M309.387 222.089C308.82 222.013 308.878 221.606 308.882 221.189C308.895 219.489 308.887 217.789 308.882 216.083C309.447 216.167 309.382 216.578 309.382 216.988C309.373 218.688 309.382 220.388 309.382 222.088" fill="#F3B8A1"/>
<path d="M300.5 281.479V277.218C300.894 278.841 300.82 280.489 301.442 282.166C301.054 282.061 300.719 281.816 300.5 281.48" fill="#F7D4C5"/>
<path d="M328.41 249.624C328.78 249.665 328.91 249.87 328.919 250.239C328.925 250.484 329.151 250.608 329.398 250.639C328.98 251.752 328.81 252.942 328.898 254.128C328.739 254.128 328.58 254.128 328.421 254.128C328.421 252.626 328.418 251.124 328.412 249.622" fill="#D2D2D2"/>
<path d="M308.883 216.082C308.805 216.077 308.728 216.056 308.659 216.02C308.589 215.983 308.528 215.933 308.48 215.871C308.431 215.81 308.396 215.738 308.377 215.662C308.358 215.586 308.355 215.507 308.369 215.43C308.39 213.817 308.383 212.205 308.386 210.592C308.765 210.647 308.896 210.859 308.892 211.244C308.874 212.857 308.884 214.47 308.883 216.082Z" fill="#F3B8A1"/>
<path d="M301.083 265.667C300.363 264.06 301.546 263.013 301.473 261.759C301.909 263.096 301.909 263.096 301.083 265.667Z" fill="#F3B8A1"/>
<path d="M308.382 210.074C308.304 210.07 308.227 210.049 308.157 210.014C308.088 209.978 308.026 209.927 307.978 209.866C307.929 209.805 307.894 209.734 307.874 209.658C307.855 209.582 307.852 209.502 307.866 209.425C307.889 208.138 307.881 206.851 307.885 205.564C307.963 205.569 308.04 205.59 308.109 205.626C308.179 205.662 308.24 205.712 308.288 205.774C308.337 205.835 308.373 205.906 308.392 205.982C308.412 206.058 308.415 206.137 308.402 206.214C308.379 207.501 308.386 208.787 308.382 210.074Z" fill="#F7D4C5"/>
<path d="M328.419 254.131C328.578 254.131 328.736 254.131 328.896 254.131C328.904 255.087 328.901 256.044 328.927 257C328.941 257.076 328.938 257.155 328.919 257.23C328.899 257.305 328.863 257.375 328.814 257.435C328.765 257.496 328.703 257.544 328.633 257.578C328.563 257.612 328.487 257.63 328.409 257.631L328.42 254.131" fill="#D2D2D2"/>
<path d="M329.914 211.58C330.078 211.586 330.242 211.586 330.406 211.58C330.406 212.749 330.406 213.915 330.406 215.08C330.329 215.076 330.253 215.056 330.184 215.02C330.115 214.984 330.055 214.935 330.006 214.874C329.958 214.813 329.924 214.743 329.905 214.668C329.886 214.593 329.883 214.514 329.897 214.438C329.922 213.485 329.913 212.531 329.917 211.577" fill="#D2D2D2"/>
<path d="M312.898 218.585C312.975 218.589 313.05 218.609 313.118 218.644C313.187 218.679 313.247 218.728 313.295 218.788C313.343 218.847 313.378 218.917 313.397 218.991C313.417 219.066 313.42 219.143 313.407 219.219C313.384 220.006 313.394 220.794 313.391 221.581C313.314 221.579 313.238 221.559 313.169 221.525C313.1 221.491 313.04 221.442 312.991 221.382C312.943 221.323 312.907 221.253 312.888 221.178C312.869 221.104 312.866 221.026 312.879 220.95C312.901 220.162 312.894 219.373 312.898 218.585Z" fill="#D2D2D2"/>
<path d="M300.609 268.718C300.322 267.819 300.264 266.863 300.44 265.936C300.81 266.817 300.87 267.798 300.609 268.718Z" fill="#F7D4C5"/>
<path d="M309.878 225.088C309.724 224.972 309.598 224.823 309.512 224.65C309.426 224.478 309.381 224.288 309.381 224.095C309.381 223.902 309.426 223.712 309.512 223.54C309.598 223.367 309.724 223.217 309.878 223.102C309.878 223.764 309.878 224.426 309.878 225.088Z" fill="#F3B8A1"/>
<path d="M260.745 38.817C260.824 38.6094 260.952 38.4243 261.119 38.2778C261.286 38.1312 261.486 38.0276 261.702 37.976C261.927 38.376 261.915 38.695 261.446 38.891L260.746 38.817" fill="#DFE8E4"/>
<path d="M292.465 35.872L291.859 35.842C291.85 35.6808 291.85 35.5192 291.859 35.358L292.874 34.87C292.894 35.0079 292.888 35.1482 292.857 35.284C292.878 35.584 292.817 35.823 292.466 35.873" fill="#534E54"/>
<path d="M292.856 35.283C292.887 35.1472 292.893 35.0069 292.873 34.869C292.873 34.451 292.737 33.963 293.368 33.849L293.386 34.409C293.318 34.765 293.463 35.252 292.857 35.283" fill="#2C272D"/>
<path d="M350.064 278.731C349.436 279.388 348.992 279.061 348.379 279.176C348.979 278.284 349.424 278.853 350.064 278.731Z" fill="#DFE8E4"/>
<path d="M308.386 280.166C308.633 280.215 308.859 280.336 309.037 280.514C309.215 280.692 309.337 280.919 309.386 281.166L308.886 281.173C308.214 281.09 308.416 280.573 308.386 280.173V280.166Z" fill="#F3B8A1"/>
<path d="M302.145 260.185C302.369 260.448 302.517 260.713 302.189 261.032C301.623 260.78 301.863 260.486 302.145 260.185Z" fill="#FBDBCC"/>
<path d="M295.277 4.83701C294.989 4.73701 294.569 4.99101 294.416 4.52001C294.79 4.38801 295.216 4.12001 295.277 4.83701Z" fill="black"/>
<path d="M287.848 203.571C288.772 204.335 288.748 205.512 289.026 206.517C289.612 208.672 290.52 210.778 290.356 213.089C289.278 212.101 289.356 210.641 289.087 209.415C288.666 207.473 287.525 205.665 287.848 203.571Z" fill="#D2D2D2"/>
<path d="M291.354 216.596C292.446 217.761 292.417 219.196 292.344 220.65C291.307 219.472 291.307 218.04 291.354 216.596Z" fill="#D2D2D2"/>
<path d="M286.85 200.061C288.16 200.954 287.825 202.316 287.85 203.575C287.453 203.088 287.16 202.525 286.988 201.921C286.816 201.317 286.769 200.684 286.85 200.061Z" fill="#D2D2D2"/>
<path d="M290.351 213.084C290.758 213.563 291.059 214.124 291.231 214.728C291.404 215.333 291.444 215.968 291.351 216.59C290.127 215.675 290.379 214.34 290.351 213.084Z" fill="#D2D2D2"/>
<path d="M301.865 257.141C302.187 257.368 302.447 257.67 302.624 258.022C302.801 258.373 302.888 258.763 302.878 259.156L301.865 259.039V257.141Z" fill="#D2D2D2"/>
<path d="M295.365 232.603C295.441 232.603 295.516 232.619 295.585 232.651C295.653 232.683 295.715 232.729 295.764 232.787C295.813 232.845 295.849 232.912 295.869 232.985C295.889 233.059 295.893 233.135 295.881 233.21C295.859 233.674 295.871 234.138 295.868 234.602C294.855 234.148 295.576 233.259 295.368 232.602" fill="#D2D2D2"/>
<path d="M294.862 230.604C294.938 230.603 295.013 230.618 295.082 230.649C295.151 230.68 295.213 230.725 295.262 230.783C295.312 230.84 295.348 230.907 295.369 230.98C295.39 231.053 295.395 231.129 295.383 231.204C295.361 231.67 295.37 232.136 295.366 232.604C294.355 232.149 295.072 231.258 294.866 230.604" fill="#D2D2D2"/>
<path d="M294.361 228.601C294.437 228.6 294.513 228.616 294.582 228.648C294.651 228.679 294.713 228.725 294.763 228.783C294.812 228.841 294.849 228.909 294.869 228.982C294.89 229.056 294.894 229.133 294.882 229.208C294.86 229.673 294.869 230.14 294.865 230.608C293.849 230.153 294.574 229.26 294.365 228.603" fill="#D2D2D2"/>
<path d="M293.859 226.601C293.935 226.6 294.01 226.615 294.079 226.646C294.148 226.677 294.21 226.722 294.26 226.779C294.31 226.836 294.346 226.904 294.367 226.977C294.388 227.05 294.393 227.126 294.381 227.201C294.36 227.667 294.368 228.134 294.364 228.601C293.336 228.149 294.074 227.253 293.859 226.601Z" fill="#D2D2D2"/>
<path d="M293.359 224.602C293.435 224.599 293.511 224.613 293.581 224.644C293.651 224.674 293.714 224.719 293.764 224.777C293.814 224.834 293.851 224.903 293.871 224.976C293.892 225.05 293.895 225.127 293.882 225.202C293.86 225.669 293.867 226.136 293.861 226.602C292.833 226.151 293.571 225.257 293.361 224.602" fill="#D2D2D2"/>
<path d="M292.862 222.607C292.938 222.602 293.014 222.615 293.085 222.645C293.155 222.674 293.218 222.72 293.268 222.777C293.318 222.834 293.354 222.903 293.374 222.976C293.394 223.05 293.397 223.127 293.382 223.202C293.359 223.667 293.364 224.134 293.356 224.602C292.33 224.151 293.061 223.265 292.862 222.61" fill="#D2D2D2"/>
<path d="M286.355 198.06C286.431 198.061 286.506 198.079 286.574 198.112C286.643 198.144 286.704 198.191 286.752 198.25C286.801 198.308 286.837 198.376 286.857 198.449C286.878 198.522 286.882 198.599 286.87 198.674C286.846 199.138 286.858 199.604 286.855 200.074C285.85 199.612 286.562 198.724 286.355 198.064" fill="#D2D2D2"/>
<path d="M301.365 255.135C301.441 255.134 301.517 255.149 301.587 255.18C301.657 255.211 301.719 255.257 301.77 255.315C301.82 255.373 301.857 255.441 301.878 255.515C301.899 255.588 301.903 255.665 301.891 255.741C301.868 256.209 301.875 256.678 301.868 257.141C300.845 256.685 301.582 255.788 301.368 255.13" fill="#D2D2D2"/>
<path d="M299.87 249.625C299.946 249.625 300.021 249.642 300.09 249.674C300.159 249.706 300.22 249.752 300.27 249.81C300.319 249.868 300.355 249.936 300.375 250.01C300.396 250.083 300.4 250.16 300.388 250.235C300.365 250.7 300.377 251.166 300.374 251.635C299.353 251.18 300.087 250.285 299.874 249.628" fill="#D2D2D2"/>
<path d="M297.873 242.116C298.567 242.646 298.573 243.072 297.884 243.609C297.884 243.109 297.876 242.609 297.873 242.116Z" fill="#D2D2D2"/>
<path d="M285.859 196.557C286.813 196.799 286.175 197.565 286.359 198.057C285.415 197.812 286.031 197.057 285.859 196.557Z" fill="#D2D2D2"/>
<path d="M296.367 236.603C297.331 236.846 296.691 237.618 296.867 238.121C295.924 237.871 296.538 237.108 296.367 236.603Z" fill="#D2D2D2"/>
<path d="M296.87 238.614C297.828 238.853 297.189 239.623 297.37 240.12C296.422 239.878 297.042 239.114 296.87 238.614Z" fill="#D2D2D2"/>
<path d="M298.878 246.12C299.831 246.366 299.191 247.133 299.373 247.631C298.431 247.382 299.044 246.624 298.878 246.12Z" fill="#D2D2D2"/>
<path d="M300.372 251.628C301.067 252.161 301.072 252.59 300.382 253.122C300.379 252.624 300.375 252.126 300.372 251.628Z" fill="#D2D2D2"/>
<path d="M300.859 253.63C301.841 253.859 301.2 254.638 301.372 255.142C300.43 254.899 301.051 254.127 300.859 253.63Z" fill="#D2D2D2"/>
<path d="M299.372 248.125C300.332 248.364 299.693 249.134 299.872 249.632C298.928 249.388 299.545 248.625 299.372 248.125Z" fill="#D2D2D2"/>
<path d="M292.361 221.056C293.302 221.321 292.724 222.068 292.848 222.592C291.898 222.33 292.521 221.569 292.361 221.056Z" fill="#D2D2D2"/>
<path d="M298.375 244.118C299.063 244.65 299.066 245.073 298.383 245.609C298.383 245.112 298.38 244.615 298.375 244.118Z" fill="#D2D2D2"/>
<path d="M295.871 234.605C296.829 234.851 296.187 235.622 296.371 236.122C295.434 235.869 296.043 235.11 295.871 234.605Z" fill="#D2D2D2"/>
<path d="M282.854 190.051C283.546 190.125 283.31 190.661 283.354 191.057C282.684 190.972 282.893 190.45 282.854 190.051Z" fill="#D2D2D2"/>
<path d="M283.849 192.051C284.549 192.118 284.31 192.658 284.349 193.051C283.675 192.969 283.887 192.444 283.849 192.051Z" fill="#D2D2D2"/>
<path d="M284.349 193.052C285.049 193.122 284.807 193.665 284.849 194.063C284.175 193.978 284.386 193.452 284.349 193.052Z" fill="#D2D2D2"/>
<path d="M283.35 191.05C284.05 191.119 283.809 191.658 283.85 192.05C283.18 191.966 283.387 191.444 283.35 191.05Z" fill="#D2D2D2"/>
<path d="M334.915 268.153C334.247 268.076 334.441 267.559 334.407 267.158L334.429 267.137C335.098 267.226 334.9 267.737 334.929 268.145L334.915 268.153Z" fill="#EDAB93"/>
<path d="M300.555 73.824C300.227 73.9 299.949 73.87 299.882 73.467C299.815 73.064 300.082 72.945 300.415 72.895L300.555 73.824Z" fill="#534E54"/>
<path d="M310.406 282.646C310.811 282.671 311.306 282.512 311.415 283.141L311.356 283.2C310.956 283.16 310.456 283.318 310.367 282.685L310.406 282.646Z" fill="#EDAB93"/>
<path d="M313.892 285.172C313.592 285.131 313.24 285.283 312.952 284.939C313.422 284.461 313.711 284.571 313.893 285.171L313.892 285.172Z" fill="#F3B8A1"/>
<path d="M293.386 34.41L293.368 33.85L293.598 33.812H293.831L293.931 33.912C293.911 34.0453 293.846 34.1675 293.745 34.2571C293.645 34.3467 293.516 34.398 293.381 34.402" fill="#560E0B"/>
<path d="M253.298 43.757C253.314 43.6457 253.369 43.5437 253.453 43.4689C253.537 43.3941 253.645 43.3513 253.757 43.348C253.757 43.661 253.641 43.833 253.298 43.757Z" fill="#560E0B"/>
<path d="M253.799 43.31C253.802 43.2461 253.819 43.1835 253.847 43.1261C253.875 43.0687 253.915 43.0176 253.964 42.9759C254.012 42.9342 254.069 42.9028 254.13 42.8836C254.191 42.8644 254.255 42.8577 254.319 42.864C254.319 42.9291 254.305 42.9936 254.278 43.0528C254.251 43.112 254.211 43.1646 254.162 43.2071C254.112 43.2495 254.054 43.2806 253.992 43.2984C253.929 43.3162 253.863 43.3201 253.799 43.31Z" fill="#560E0B"/>
<path d="M325.914 171.525C325.845 171.532 325.775 171.523 325.71 171.499C325.645 171.475 325.586 171.437 325.538 171.386C325.49 171.336 325.453 171.276 325.432 171.21C325.411 171.144 325.404 171.074 325.414 171.005C325.482 171.003 325.55 171.014 325.613 171.04C325.676 171.065 325.733 171.104 325.781 171.153C325.828 171.202 325.864 171.261 325.887 171.325C325.91 171.389 325.919 171.457 325.914 171.525Z" fill="#F3B8A1"/>
<path d="M332.079 263.266C332.138 263.266 332.213 263.243 332.25 263.266C332.397 263.373 332.365 263.5 332.156 263.596C332.132 263.607 332.029 263.496 332.002 263.426C331.987 263.386 332.052 263.315 332.079 263.262" fill="#DFE8E4"/>
<path d="M332.579 264.266C332.639 264.266 332.713 264.242 332.751 264.266C332.898 264.374 332.866 264.502 332.657 264.599C332.633 264.61 332.529 264.499 332.502 264.427C332.486 264.387 332.552 264.315 332.58 264.262" fill="#DFE8E4"/>
<path d="M333.406 265.653C333.187 265.62 332.955 265.599 333.042 265.271C333.37 265.186 333.387 265.422 333.422 265.637L333.406 265.653Z" fill="#DFE8E4"/>
<path d="M333.425 265.638C333.492 265.632 333.559 265.642 333.622 265.665C333.686 265.688 333.743 265.725 333.791 265.772C333.838 265.82 333.875 265.877 333.898 265.94C333.921 266.003 333.93 266.071 333.925 266.138L333.418 266.147C333.415 265.982 333.412 265.818 333.41 265.653L333.425 265.638Z" fill="#DFE8E4"/>
<path d="M333.418 266.148L333.925 266.139C333.932 266.305 333.933 266.472 333.925 266.639L333.907 266.657C333.84 266.661 333.773 266.65 333.71 266.626C333.648 266.601 333.591 266.564 333.545 266.515C333.498 266.467 333.462 266.41 333.44 266.346C333.417 266.283 333.408 266.216 333.414 266.149" fill="#EDAB93"/>
<path d="M334.407 267.156C334.339 267.165 334.27 267.158 334.206 267.136C334.141 267.114 334.082 267.077 334.034 267.029C333.986 266.981 333.949 266.922 333.927 266.857C333.905 266.793 333.898 266.724 333.907 266.656L333.925 266.638C334.263 266.632 334.416 266.813 334.425 267.138L334.407 267.156Z" fill="#EDAB93"/>
<path d="M325.409 170.53C325.341 170.537 325.271 170.528 325.207 170.504C325.142 170.481 325.084 170.443 325.036 170.394C324.988 170.344 324.951 170.285 324.93 170.22C324.908 170.155 324.901 170.085 324.909 170.017C324.977 170.011 325.046 170.021 325.11 170.045C325.174 170.069 325.232 170.107 325.28 170.156C325.327 170.205 325.364 170.264 325.386 170.329C325.408 170.393 325.416 170.462 325.409 170.53Z" fill="#F3B8A1"/>
<path d="M334.923 268.145C335.265 268.138 335.423 268.319 335.423 268.645C335.355 268.653 335.287 268.645 335.223 268.622C335.159 268.6 335.101 268.563 335.053 268.515C335.005 268.467 334.968 268.409 334.946 268.345C334.923 268.281 334.915 268.213 334.923 268.145Z" fill="#EDAB93"/>
<path d="M335.421 268.651C335.489 268.643 335.558 268.65 335.623 268.672C335.688 268.694 335.747 268.731 335.796 268.779C335.845 268.827 335.883 268.885 335.907 268.949C335.93 269.014 335.939 269.083 335.933 269.151L335.919 269.166C335.85 269.173 335.781 269.164 335.717 269.14C335.652 269.116 335.594 269.078 335.546 269.029C335.498 268.979 335.462 268.919 335.44 268.854C335.419 268.789 335.412 268.719 335.421 268.651Z" fill="#EDAB93"/>
<path d="M335.933 269.152C336 269.145 336.067 269.154 336.13 269.176C336.194 269.198 336.251 269.235 336.299 269.282C336.347 269.329 336.383 269.386 336.407 269.449C336.43 269.512 336.439 269.579 336.433 269.646L336.415 269.664C336.348 269.671 336.28 269.664 336.216 269.641C336.152 269.618 336.094 269.582 336.047 269.534C335.999 269.485 335.963 269.427 335.942 269.363C335.92 269.299 335.913 269.231 335.921 269.164L335.933 269.152Z" fill="#F7D4C5"/>
<path d="M336.429 269.642C336.645 269.679 336.88 269.698 336.788 270.026C336.461 270.109 336.442 269.878 336.411 269.66L336.429 269.642Z" fill="#F7D4C5"/>
<path d="M337.421 271.153C337.203 271.124 336.967 271.111 337.054 270.779C337.385 270.7 337.394 270.936 337.422 271.152L337.421 271.153Z" fill="#F7D4C5"/>
<path d="M324.912 170.023C324.843 170.031 324.773 170.023 324.707 170C324.642 169.978 324.582 169.94 324.533 169.89C324.485 169.841 324.448 169.781 324.426 169.715C324.403 169.649 324.397 169.579 324.406 169.51C324.474 169.506 324.542 169.516 324.606 169.54C324.67 169.565 324.728 169.602 324.776 169.651C324.824 169.7 324.861 169.758 324.884 169.822C324.908 169.886 324.917 169.955 324.912 170.023Z" fill="#F3B8A1"/>
<path d="M350.859 279.376L350.771 279.544L350.516 279.368L350.691 279.2L350.859 279.376Z" fill="#DFE8E4"/>
<path d="M308.383 280.165C308.155 280.148 307.949 280.109 308.003 279.798C308.345 279.709 308.354 279.947 308.386 280.162L308.383 280.165Z" fill="#F3B8A1"/>
<path d="M308.887 281.168L309.387 281.16C309.411 281.321 309.416 281.485 309.404 281.647L309.374 281.678C309.307 281.68 309.241 281.668 309.18 281.643C309.118 281.618 309.063 281.58 309.017 281.532C308.971 281.484 308.935 281.426 308.913 281.364C308.891 281.301 308.882 281.234 308.887 281.168Z" fill="#EDAB93"/>
<path d="M309.4 281.65C309.468 281.642 309.537 281.649 309.601 281.671C309.666 281.694 309.725 281.73 309.773 281.778C309.822 281.826 309.859 281.885 309.882 281.949C309.905 282.013 309.913 282.082 309.906 282.15L309.866 282.19C309.799 282.192 309.733 282.18 309.671 282.155C309.609 282.131 309.553 282.093 309.506 282.046C309.459 281.999 309.423 281.942 309.399 281.88C309.374 281.818 309.363 281.752 309.366 281.685L309.4 281.65Z" fill="#EDAB93"/>
<path d="M310.369 282.688C310.303 282.69 310.237 282.678 310.176 282.653C310.114 282.629 310.058 282.592 310.012 282.545C309.965 282.498 309.928 282.443 309.904 282.381C309.879 282.32 309.867 282.254 309.869 282.188L309.909 282.148C309.976 282.141 310.044 282.149 310.108 282.172C310.172 282.195 310.23 282.231 310.278 282.279C310.326 282.327 310.362 282.385 310.385 282.449C310.408 282.513 310.416 282.581 310.409 282.648L310.369 282.688Z" fill="#EDAB93"/>
<path d="M264.348 164.009C264.415 164.006 264.482 164.018 264.544 164.043C264.606 164.069 264.662 164.107 264.708 164.157C264.754 164.206 264.788 164.265 264.809 164.329C264.829 164.393 264.836 164.46 264.828 164.527C264.762 164.527 264.696 164.513 264.635 164.486C264.575 164.46 264.52 164.421 264.475 164.372C264.43 164.324 264.395 164.267 264.374 164.204C264.352 164.141 264.343 164.075 264.348 164.009Z" fill="#AB2C05"/>
<path d="M311.87 283.695C311.803 283.7 311.736 283.691 311.673 283.669C311.61 283.646 311.552 283.611 311.504 283.564C311.456 283.518 311.418 283.462 311.393 283.4C311.368 283.338 311.356 283.271 311.359 283.204L311.418 283.145C311.484 283.145 311.549 283.158 311.61 283.184C311.671 283.209 311.726 283.247 311.772 283.295C311.818 283.342 311.854 283.398 311.878 283.46C311.902 283.521 311.913 283.587 311.911 283.653L311.87 283.695Z" fill="#EDAB93"/>
<path d="M311.909 283.649C312.13 283.69 312.365 283.718 312.267 284.049C311.938 284.149 311.901 283.921 311.867 283.692L311.909 283.649Z" fill="#EDAB93"/>
<path d="M313.892 285.171C314.108 285.2 314.344 285.209 314.261 285.54C313.931 285.624 313.916 285.392 313.89 285.173L313.892 285.171Z" fill="#F3B8A1"/>
<path d="M337.422 271.153C337.639 271.181 337.872 271.192 337.792 271.521C337.461 271.605 337.451 271.37 337.421 271.154L337.422 271.153Z" fill="#F7D4C5"/>
<path d="M274.859 109.455C273.999 111.906 273.559 112.337 271.337 112.933C269.621 110.594 267.096 108.978 265.567 106.462C265.203 106.005 264.796 105.585 264.351 105.207C260.736 101.46 257.482 97.3813 254.633 93.0241C254.438 92.7507 254.213 92.4992 253.964 92.2741C253.371 90.4021 254.35 88.8741 254.312 87.2431C254.274 85.6121 254.962 84.0801 254.882 82.4011C254.811 80.9171 255.536 79.4611 255.891 78.0011C256.259 76.4851 256.758 74.9481 257.222 73.4451C257.679 71.9661 257.968 70.4191 258.502 68.9351C258.768 70.0701 259.089 71.1351 258.397 72.2271C258.132 72.6471 258.326 73.3601 258.326 73.9401C258.326 76.9401 258.357 79.9451 258.313 82.9471C258.419 85.6741 258.997 88.3622 260.021 90.8921C261.203 94.1252 262.925 97.1345 265.113 99.7921C267.1 102.333 268.978 105.116 271.92 106.834C273.041 107.489 273.654 108.834 274.858 109.462" fill="#2C272D"/>
<path d="M262.805 47.356C263.847 46.7015 265.024 46.2912 266.247 46.156C266.31 47.3585 266.635 48.5327 267.198 49.597C268.521 52.3993 270.094 55.0768 271.898 57.597C273.508 59.8842 275.398 61.961 277.524 63.779C278.823 64.8371 280.346 65.5857 281.977 65.968L282.856 64.468C283.556 61.482 283.332 58.445 283.347 55.421C283.355 53.844 283.325 52.266 283.364 50.69C283.375 50.255 283.064 49.671 283.755 49.39C284.336 49.557 284.869 49.8597 285.31 50.273C285.173 51.3394 285.383 52.4216 285.91 53.359C286.292 54.3195 286.448 55.3556 286.363 56.386L285.363 58.269C285.43 58.436 285.505 58.669 285.609 58.878C286.144 59.983 286.677 60.978 285.925 62.323C285.341 63.363 286.115 64.536 286.525 65.587C285.77 66.887 285.096 68.119 285.367 69.48C284.992 70.107 284.607 70.517 283.922 70.442C283.777 70.4101 283.644 70.3402 283.535 70.2394C283.427 70.1387 283.347 70.0108 283.305 69.869C283.005 69.221 282.872 69.256 282.331 69.959L281.337 69.859C279.649 68.775 277.552 68.314 276.311 66.552C274.411 66.177 273.268 64.464 271.38 63.897V60.715C270.439 60.05 269.18 60.846 268.297 59.282C268.152 58.967 268.469 58.118 268.314 57.269C267.778 56.55 266.703 56.605 266.125 55.89C265.545 55.371 266.112 54.574 265.554 53.863L263.865 52.724V49.766C263.381 49.266 262.574 49.226 262.388 48.41L262.805 47.356Z" fill="#F8F8F8"/>
<path d="M278.836 108.475L275.862 108.43C275.733 106.822 276.862 105.577 277.095 104.036C277.533 101.181 278.272 98.372 278.868 95.536C279.348 93.254 279.779 90.962 280.275 88.684C280.499 87.657 280.059 86.517 280.814 85.584C280.741 82.964 281.641 80.471 281.814 77.884C282.543 76.991 282.155 75.877 282.409 74.89C282.718 74.942 283.088 74.804 283.366 75.283C283.364 76.8595 283.506 78.4328 283.793 79.983C284.059 82.111 283.755 84.304 283.893 86.458C284.031 88.612 283.055 90.633 283.357 92.779C283.348 92.9373 283.311 93.0927 283.248 93.238C282.448 96.381 281.773 99.56 280.818 102.653C280.218 104.603 279.951 106.687 278.846 108.472" fill="#DFE8E4"/>
<path d="M275.957 118.016C277.339 118.571 278.957 118.302 280.277 119.191C280.278 119.373 280.241 119.552 280.166 119.718C280.092 119.884 279.984 120.032 279.848 120.152C279.712 120.272 279.551 120.362 279.378 120.415C279.204 120.468 279.021 120.484 278.841 120.46C278.029 120.34 277.541 121.005 276.823 121.271V123.227L275.781 124.352C274.468 124.699 273.14 123.909 272.343 125.307V129.479C271.839 130.398 271.131 131.189 270.273 131.79C270.023 131.939 269.809 132.14 269.645 132.38C269.48 132.62 269.37 132.892 269.322 133.179C269.15 133.788 268.918 134.379 268.629 134.942C266.664 134.554 266.176 133.927 265.857 131.498C266.117 131.312 266.336 131.075 266.502 130.802C266.667 130.528 266.775 130.224 266.818 129.907C267.146 128.734 267.686 127.631 268.412 126.653C268.512 126.523 268.683 126.411 268.719 126.265C269.558 122.932 272.367 121.365 274.829 119.516C275.113 119.362 275.361 119.148 275.556 118.889C275.75 118.63 275.887 118.332 275.956 118.016" fill="#F8F8F8"/>
<path d="M282.404 74.896C282.151 75.883 282.539 76.996 281.809 77.89C281.221 77.79 281.351 77.345 281.351 76.956C281.351 74.5913 281.347 72.2246 281.338 69.856L282.333 69.956C282.502 70.436 282.963 70.812 282.845 71.394C283.03 72.602 282.201 73.682 282.404 74.894" fill="#2C272D"/>
<path d="M303.866 183.045C304.117 183.085 304.349 183.203 304.53 183.38C304.712 183.558 304.834 183.787 304.88 184.037L303.957 183.975L303.866 183.045Z" fill="#EDAB93"/>
<path d="M304.884 184.515C305.812 184.77 305.241 185.525 305.392 186.039C304.406 185.803 305.065 185.019 304.884 184.515Z" fill="#FEFEFE"/>
<path d="M285.315 50.273C284.874 49.8598 284.342 49.5572 283.761 49.39C283.061 49.667 283.38 50.25 283.369 50.69C283.33 52.267 283.36 53.844 283.352 55.421C283.336 58.445 283.564 61.482 282.861 64.467L281.982 65.967C280.351 65.5847 278.829 64.8361 277.53 63.778C275.404 61.96 273.514 59.8832 271.904 57.596C270.1 55.0757 268.527 52.3983 267.204 49.596C266.64 48.5318 266.316 47.3575 266.253 46.155C266.304 45.785 266.342 45.408 266.764 45.246C267.454 46.239 268.223 47.187 268.821 48.233C270.907 51.879 273.03 55.491 276.121 58.41C276.38 58.6203 276.606 58.8676 276.793 59.144C277.724 60.806 279.331 61.398 280.912 61.976C281.523 61.543 282.038 60.9876 282.423 60.345C281.967 56.269 283.182 51.935 281.413 48.088C280.404 47.588 279.475 48.268 278.713 47.349C279.913 46.133 281.585 46.449 282.893 45.849C284.577 47.1612 286.089 48.6809 287.393 50.372L285.31 50.272" fill="#DFE8E4"/>
<path d="M282.404 74.9C282.204 73.689 283.03 72.609 282.845 71.4H283.358C284.058 71.68 283.907 72.1 283.543 72.576C283.488 73.06 284.125 72.716 284.121 72.809C286.086 80.409 285.179 87.881 285.303 95.301C284.565 98.315 284.923 101.391 284.794 104.439L284.747 105.404C284.208 105.765 284.213 106.128 284.747 106.491C284.817 106.634 284.835 106.797 284.797 106.952C284.797 107.592 284.799 108.232 284.804 108.872C282.988 108.885 281.171 108.904 279.355 108.905C279.232 108.908 279.112 108.867 279.017 108.789C278.922 108.71 278.858 108.6 278.838 108.479C279.938 106.694 280.208 104.61 280.81 102.659C281.765 99.566 282.445 96.387 283.241 93.244C283.304 93.099 283.341 92.9439 283.35 92.786C283.05 90.64 284.018 88.613 283.886 86.465C283.754 84.317 284.057 82.119 283.786 79.99C283.499 78.4398 283.356 76.8665 283.359 75.29C283.081 74.811 282.712 74.949 282.402 74.897" fill="#F8F8F8"/>
<path d="M283.357 71.397H282.844C282.963 70.815 282.501 70.439 282.332 69.959C282.873 69.259 283.006 69.222 283.306 69.869C283.348 70.0108 283.428 70.1388 283.536 70.2395C283.645 70.3403 283.778 70.4102 283.923 70.442L283.356 71.396" fill="#DFE8E4"/>
<path d="M284.746 105.4L284.793 104.436C285.113 104.47 285.374 104.567 285.353 104.962C285.332 105.357 285.074 105.428 284.746 105.4Z" fill="#534E54"/>
<path d="M287.352 50.333C287.422 50.3334 287.492 50.3477 287.556 50.3751C287.621 50.4026 287.68 50.4426 287.729 50.4928C287.778 50.543 287.816 50.6025 287.842 50.6677C287.868 50.733 287.881 50.8028 287.88 50.873C287.554 50.84 287.328 50.709 287.352 50.333Z" fill="#DFE8E4"/>
<path d="M284.794 106.948C284.832 106.794 284.814 106.631 284.744 106.488C284.853 106.453 284.971 106.458 285.076 106.503C285.181 106.548 285.267 106.628 285.318 106.731L284.794 106.948Z" fill="#534E54"/>
<path d="M291.861 35.356C291.852 35.5172 291.852 35.6787 291.861 35.84C290.298 38.0316 288.23 39.8151 285.833 41.04C284.597 41.6486 283.226 41.9313 281.85 41.861L281.837 41.854C279.988 40.7182 278.325 39.305 276.905 37.664C275.171 35.84 273.084 34.313 272.024 31.911C271.986 31.824 271.714 31.841 271.551 31.811C270.861 30.903 269.458 31.506 268.789 30.504C267.629 28.6195 267.124 26.405 267.351 24.204C267.783 23.4861 268.379 22.8811 269.09 22.439C269.89 22.147 270.305 22.667 270.825 22.839V25.786L269.853 27.856C269.666 27.895 269.418 27.872 269.499 28.194C269.813 28.246 269.825 28.042 269.82 27.824C270.751 28.182 271.42 27.282 272.28 27.309C272.746 27.423 273.262 27.196 273.79 27.578C273.819 28.061 273.852 28.612 273.882 29.13L275.964 31.23C280.223 32.317 279.308 31.895 281.33 30.547V28.656C280.609 27.6017 279.577 26.7978 278.379 26.356C277.422 26.356 276.596 26.376 275.772 26.344C275.521 26.334 275.372 26.106 275.347 25.835C276.773 24.6397 278.332 23.612 279.993 22.772C280.401 23.487 281.151 23.334 281.87 23.32C282 24.11 281.517 24.955 282.104 25.765C284.204 26.16 283.431 24.122 284.258 23.558C283.531 22.44 282.617 22.982 281.858 22.843C281.903 22.414 281.705 21.858 282.458 21.828C282.708 21.818 282.825 21.585 282.858 21.336C283.708 21.096 284.486 22.436 285.458 21.483C285.082 20.389 283.697 20.743 283.289 19.835C285.773 18.528 288.233 17.188 290.023 14.93C290.155 14.7363 290.271 14.5326 290.372 14.321C291.511 13.488 291.287 11.964 292.137 10.882C292.579 11.359 292.381 11.922 292.389 12.423C292.408 13.1738 292.388 13.9251 292.33 14.674C291.94 17.5504 292.676 20.4663 294.385 22.813C294.317 23.501 293.785 23.29 293.385 23.325C292.904 23.465 292.285 22.925 291.906 23.607C292.314 23.9276 292.782 24.1621 293.283 24.2961C293.784 24.4302 294.308 24.4611 294.821 24.387C294.761 25.073 295.096 25.487 295.863 25.787V24.828C296.632 25.184 296.514 26.036 297.053 26.608L294.338 31.844C293.145 31.6384 291.919 31.915 290.93 32.613C290.889 33.258 290.163 33.689 290.371 34.406C290.465 34.7182 290.668 34.9862 290.944 35.161C291.219 35.3358 291.548 35.4057 291.871 35.358M292.837 26.812C293.479 26.76 294.168 27.033 294.818 26.666C294.708 26.3792 294.5 26.1406 294.231 25.9925C293.962 25.8445 293.649 25.7964 293.348 25.857L292.24 25.318L291.398 26.052C291.498 26.762 291.069 27.564 291.809 28.544L292.837 26.81M288.377 33.857C288.85 33.805 289.031 33.401 289.29 33.118C289.766 31.618 288.918 30.454 288.409 29.424C288.429 28.0108 288.366 26.5977 288.22 25.192C287.826 25.7495 287.571 26.3936 287.478 27.0701C287.385 27.7465 287.455 28.4355 287.684 29.079C288.33 30.5768 288.563 32.2205 288.359 33.839C287.919 33.969 287.323 33.539 287.02 34.227C287.553 34.363 288.111 34.671 288.376 33.857M281.827 35.463C281.913 35.915 281.68 36.426 282.081 36.819C282.596 37.2861 283.209 37.631 283.876 37.828C284.155 37.956 284.676 38.049 284.844 37.49C285.725 37.351 286.683 37.331 286.952 35.943C285.163 35.0096 283.283 34.2617 281.342 33.711C281.465 34.502 281.115 35.087 281.828 35.463" fill="#F7D4C5"/>
<path d="M275.345 25.843C275.367 26.114 275.519 26.343 275.77 26.352C276.595 26.384 277.421 26.364 278.377 26.364C279.575 26.8059 280.607 27.6097 281.328 28.664V30.549C279.306 31.897 280.222 32.319 275.962 31.232L273.88 29.132C273.849 28.613 273.816 28.063 273.788 27.58C273.259 27.198 272.744 27.425 272.278 27.311C272.822 26.5229 273.517 25.8503 274.323 25.332L275.345 25.843Z" fill="#F7D4C5"/>
<path d="M275.346 25.8429L274.325 25.3319C275.067 23.5908 276.396 22.1655 278.082 21.3049C278.203 21.2018 278.308 21.0815 278.394 20.9479C279.64 20.9169 280.886 20.8899 282.132 20.8549C282.498 20.8439 282.774 20.9409 282.851 21.3429C282.822 21.5919 282.705 21.8259 282.451 21.8349C281.695 21.8659 281.893 22.4219 281.851 22.8499C281.859 23.0093 281.864 23.1686 281.867 23.3279C281.149 23.3419 280.398 23.4959 279.99 22.7799C278.329 23.62 276.77 24.6477 275.344 25.8429" fill="#F7D4C5"/>
<path d="M282.851 21.343C282.773 20.943 282.498 20.843 282.132 20.855C280.886 20.891 279.64 20.918 278.394 20.949C278.448 20.234 277.662 20.471 277.418 20.09C279.328 18.918 281.302 19.327 283.281 19.842C283.689 20.749 285.073 20.396 285.45 21.49C284.479 22.447 283.701 21.103 282.85 21.343" fill="black"/>
<path d="M276.163 15.329C276.83 15.387 276.83 15.704 276.809 16.037C276.769 16.1043 276.715 16.1621 276.65 16.2064C276.586 16.2507 276.512 16.2804 276.435 16.2934C276.358 16.3065 276.279 16.3025 276.203 16.2819C276.128 16.2613 276.058 16.2245 275.998 16.174C275.773 15.852 275.865 15.586 276.163 15.328" fill="black"/>
<path d="M278.347 13.826C278.317 14.041 278.307 14.276 277.978 14.195C277.895 13.866 278.13 13.855 278.346 13.825L278.347 13.826Z" fill="black"/>
<path d="M278.347 13.825C278.377 13.61 278.387 13.375 278.716 13.457C278.798 13.786 278.564 13.797 278.348 13.826L278.347 13.825Z" fill="black"/>
<path d="M279.264 12.538L279.178 12.704L278.929 12.529L279.101 12.364L279.264 12.538Z" fill="black"/>
<path d="M272.343 129.477V125.304C273.143 123.904 274.468 124.697 275.781 124.35L276.822 123.225V121.269C277.538 121.003 278.029 120.339 278.841 120.458L279.353 121.427C278.684 122.854 277.911 124.244 277.37 125.718C276.604 127.917 276.233 130.235 276.275 132.563C275.527 132.57 275.169 131.969 274.682 131.557C273.995 130.765 273.208 130.066 272.342 129.476" fill="#EDAB93"/>
<path d="M287.851 126.464C287.854 126.543 287.874 126.621 287.909 126.691C287.945 126.762 287.995 126.825 288.056 126.874C288.118 126.924 288.189 126.961 288.265 126.981C288.342 127.001 288.422 127.004 288.5 126.991C289.959 126.982 291.418 126.991 292.877 126.991C292.858 127.236 292.838 127.481 292.819 127.72C290.306 128.905 288.057 128.758 284.913 127.204C285.761 126.589 286.812 126.323 287.851 126.459" fill="#D2D2D2"/>
<path d="M295.426 131.598C294.826 130.729 294.826 130.729 295.721 130.628C295.946 130.951 295.836 131.215 295.426 131.598Z" fill="#D2D2D2"/>
<path d="M330.91 68.888C331.227 68.9382 331.551 68.8747 331.826 68.7087C332.1 68.5427 332.307 68.2849 332.41 67.981C332.733 67.281 333.081 66.581 333.418 65.889C334.445 65.729 334.79 66.61 335.388 67.175C335.488 68.163 335.166 69.244 336.195 70.124C334.35 70.2362 332.513 69.8066 330.909 68.888" fill="#EDAB93"/>
<path d="M334.907 61.417C335.278 61.33 335.57 61.001 335.35 60.741C334.745 60.029 334.981 59.198 334.857 58.421C336.839 59.304 337.107 61.371 337.838 63.036C338.223 63.8272 338.401 64.7032 338.356 65.582C336.533 64.5 335.256 63.367 334.907 61.417Z" fill="#EDAB93"/>
<path d="M282.894 45.8519C281.586 46.4519 279.919 46.1379 278.714 47.3519C279.474 48.2709 280.403 47.5919 281.414 48.0909C283.183 51.9379 281.968 56.2719 282.424 60.3469C282.039 60.9895 281.524 61.545 280.913 61.9779C279.332 61.4009 277.725 60.8079 276.794 59.1459C276.607 58.8696 276.381 58.6223 276.122 58.4119C273.027 55.4919 270.904 51.8809 268.822 48.2349C268.222 47.1889 267.455 46.2409 266.765 45.2479C267.165 43.4479 268.011 41.7859 268.078 40.2259C268.843 39.6439 269.367 39.9909 269.826 39.8099C270.274 40.9969 271.369 41.3789 272.326 41.8559C273.171 41.7555 274.025 41.7676 274.867 41.8919C277.146 42.3825 279.458 42.711 281.784 42.8749C281.784 43.5459 282.339 43.7879 282.772 44.1379C282.815 44.7039 282.858 45.2779 282.902 45.8519" fill="#FEFEFE"/>
<path d="M281.777 42.876C279.451 42.7118 277.14 42.3833 274.86 41.893C274.019 41.7687 273.164 41.7566 272.32 41.857C271.363 41.381 270.267 40.998 269.82 39.811C270.185 38.499 270.552 37.1863 270.92 35.873C271.122 35.8356 271.331 35.853 271.524 35.9233C271.718 35.9936 271.889 36.1143 272.02 36.273C272.683 37.0177 273.39 37.7213 274.139 38.38C276.382 40.241 278.745 41.88 281.844 41.857L281.857 41.864L281.777 42.876Z" fill="#FBDBCC"/>
<path d="M281.836 41.853C278.736 41.873 276.374 40.237 274.131 38.376C273.382 37.7174 272.675 37.0137 272.012 36.269C271.881 36.1104 271.71 35.9898 271.516 35.9195C271.323 35.8492 271.114 35.8317 270.912 35.869C271.124 34.5136 271.336 33.1583 271.547 31.803C271.71 31.835 271.982 31.818 272.02 31.903C273.079 34.303 275.167 35.832 276.9 37.657C278.32 39.2978 279.984 40.7109 281.833 41.847" fill="#F7D4C5"/>
<path d="M291.861 35.358C291.538 35.406 291.209 35.3364 290.934 35.1617C290.659 34.9871 290.455 34.7192 290.361 34.407C290.153 33.69 290.879 33.259 290.92 32.614C291.909 31.916 293.135 31.6394 294.328 31.845C293.945 32.4281 293.769 33.1229 293.828 33.818L293.595 33.812L293.365 33.85C292.735 33.964 292.873 34.45 292.87 34.87L291.858 35.359" fill="#F7D4C5"/>
<path d="M294.815 24.394C294.301 24.4679 293.778 24.4367 293.277 24.3025C292.776 24.1682 292.308 23.9337 291.9 23.613C292.283 22.933 292.9 23.471 293.379 23.332C293.61 24.2 294.44 23.616 294.889 23.955C294.874 24.1032 294.849 24.2502 294.815 24.395" fill="#2C272D"/>
<path d="M294.889 23.9549C294.44 23.6159 293.61 24.1989 293.379 23.3319C293.779 23.2969 294.31 23.5079 294.379 22.8199C295.044 22.9759 294.897 23.4969 294.89 23.9549" fill="#EDAB93"/>
<path d="M295.853 24.83V25.789C295.086 25.489 294.753 25.079 294.81 24.389C294.968 24.3499 295.129 24.3265 295.291 24.319C295.391 24.605 295.527 24.856 295.891 24.857L295.853 24.83Z" fill="#2C272D"/>
<path d="M295.888 24.858C295.528 24.858 295.394 24.606 295.288 24.32C295.365 24.3056 295.443 24.3091 295.518 24.3301C295.593 24.3511 295.663 24.3891 295.721 24.4411C295.779 24.4931 295.824 24.5577 295.853 24.63C295.882 24.7023 295.894 24.7803 295.888 24.858Z" fill="#EDAB93"/>
<path d="M281.819 35.466C281.107 35.09 281.457 34.505 281.333 33.714C283.274 34.2647 285.154 35.0126 286.943 35.946C286.674 37.334 285.716 37.354 284.835 37.493C284.609 36.8807 284.197 36.3552 283.655 35.9912C283.114 35.6273 282.471 35.4435 281.819 35.466Z" fill="black"/>
<path d="M288.351 33.841C288.556 32.2225 288.323 30.5787 287.676 29.081C287.448 28.4375 287.377 27.7486 287.47 27.0722C287.564 26.3958 287.818 25.7517 288.212 25.194C288.358 26.5997 288.421 28.0128 288.401 29.426C288.909 30.455 289.757 31.621 289.282 33.12C289.024 33.403 288.841 33.807 288.369 33.859L288.351 33.841Z" fill="#EDAB93"/>
<path d="M281.869 23.3279C281.869 23.1679 281.864 23.0086 281.853 22.8499C282.615 22.9899 283.53 22.4499 284.253 23.5649C283.426 24.1289 284.199 26.1649 282.099 25.7719C281.512 24.9619 281.999 24.1169 281.865 23.3269" fill="black"/>
<path d="M281.819 35.466C282.471 35.4434 283.114 35.6273 283.655 35.9912C284.197 36.3552 284.61 36.8807 284.835 37.493C284.672 38.053 284.147 37.959 283.867 37.831C283.199 37.6342 282.584 37.2893 282.067 36.822C281.667 36.429 281.9 35.922 281.814 35.465" fill="#EDAB93"/>
<path d="M292.827 26.812L291.799 28.5459C291.059 27.5659 291.487 26.7649 291.388 26.0539L292.231 25.3199L293.339 25.8579L292.827 26.812Z" fill="black"/>
<path d="M292.827 26.813L293.339 25.8591C293.64 25.7988 293.952 25.8469 294.221 25.995C294.49 26.1431 294.698 26.3815 294.808 26.6681C294.158 27.0341 293.469 26.761 292.827 26.813Z" fill="#EDAB93"/>
<path d="M288.368 33.86C288.104 34.674 287.545 34.366 287.012 34.23C287.312 33.54 287.912 33.972 288.351 33.842L288.368 33.86Z" fill="#EDAB93"/>
<path d="M269.819 27.825C269.824 28.043 269.811 28.247 269.498 28.195C269.416 27.873 269.664 27.895 269.851 27.857L269.819 27.825Z" fill="#73150F"/>
<path d="M326.407 58.421C327.698 57.073 328.693 57.451 332.915 58.171C332.202 58.9421 331.318 59.5361 330.335 59.9055C329.352 60.275 328.296 60.4096 327.251 60.2989C327.251 60.2989 325.117 59.769 326.407 58.421Z" fill="#F3B8A1"/>
<path d="M318.8 256.562C318.8 256.562 314.287 265.151 317.053 279.127L320.62 275.488C320.62 275.488 330.665 291.574 353.666 285.242C353.666 285.242 358.252 280.442 349.007 276.942C349.007 276.942 334.668 273.742 328.844 255.542L318.8 256.562Z" fill="black"/>
<path d="M302.8 259.562C302.8 259.562 298.287 268.151 301.053 282.127L304.62 278.488C304.62 278.488 314.665 294.574 337.666 288.242C337.666 288.242 342.252 283.442 333.007 279.942C333.007 279.942 318.668 276.742 312.844 258.542L302.8 259.562Z" fill="black"/>
</svg>
