<svg width="47" height="47" viewBox="0 0 47 47" fill="none" xmlns="http://www.w3.org/2000/svg">
<path d="M23.5 47C36.4787 47 47 36.4787 47 23.5C47 10.5213 36.4787 0 23.5 0C10.5213 0 0 10.5213 0 23.5C0 36.4787 10.5213 47 23.5 47Z" fill="white"/>
<path d="M30.5351 17.715C30.4736 17.6786 30.404 17.6581 30.3326 17.6557C30.2612 17.6532 30.1904 17.6687 30.1265 17.7007C30.0627 17.7328 30.008 17.7804 29.9673 17.8392C29.9267 17.8979 29.9015 17.9659 29.8941 18.037C29.8791 18.177 29.8551 18.317 29.8251 18.464C28.9891 22.264 27.3091 24.106 24.6891 24.106H20.8441C20.7457 24.1061 20.6503 24.1402 20.5741 24.2025C20.498 24.2648 20.4457 24.3516 20.4261 24.448L19.1441 30.455L18.9151 31.984C18.88 32.1687 18.886 32.3589 18.9327 32.541C18.9794 32.7231 19.0655 32.8928 19.1851 33.0378C19.3047 33.1829 19.4548 33.2999 19.6247 33.3804C19.7945 33.461 19.9801 33.5032 20.1681 33.504H22.7401C23.0264 33.5048 23.3046 33.4093 23.5301 33.2328C23.7555 33.0563 23.9151 32.8091 23.9831 32.531L25.0221 28.378H27.2511C29.8821 28.378 31.7001 26.278 32.3701 22.472C32.5863 21.5866 32.5264 20.6562 32.1983 19.8058C31.8703 18.9555 31.2899 18.2258 30.5351 17.715Z" fill="#03A9F4"/>
<path d="M29.7309 14.523C29.3134 14.0497 28.8009 13.6695 28.2269 13.4071C27.6529 13.1447 27.03 13.006 26.3989 13H19.3249C18.8129 12.9972 18.317 13.1794 17.9286 13.5131C17.5402 13.8467 17.2853 14.3094 17.2109 14.816L15.0109 29.469C14.9833 29.6521 14.9957 29.8391 15.0473 30.017C15.0988 30.1948 15.1883 30.3594 15.3096 30.4994C15.4309 30.6394 15.581 30.7515 15.7497 30.8279C15.9184 30.9043 16.1017 30.9432 16.2869 30.942H19.5679C19.6663 30.9419 19.7617 30.9078 19.8378 30.8455C19.914 30.7832 19.9663 30.6964 19.9859 30.6L21.1869 24.961H24.6869C27.7269 24.961 29.7349 22.836 30.6579 18.639C30.6949 18.4716 30.7232 18.3023 30.7429 18.132C30.8496 17.493 30.8142 16.8384 30.6393 16.2147C30.4644 15.5909 30.1542 15.0133 29.7309 14.523Z" fill="#283593"/>
</svg>
