<svg width="16" height="16" viewBox="0 0 16 16" fill="none" xmlns="http://www.w3.org/2000/svg">
<path d="M7.99999 0C7.71698 0 7.44557 0.112438 7.24545 0.312557C7.04533 0.512676 6.93289 0.784086 6.93289 1.0671V6.93292H1.0671C0.784086 6.93292 0.512676 7.04533 0.312557 7.24545C0.112438 7.44557 0 7.71698 0 7.99999C0 8.283 0.112438 8.55443 0.312557 8.75455C0.512676 8.95467 0.784086 9.06708 1.0671 9.06708H6.93289V14.9329C6.93289 15.2159 7.04533 15.4873 7.24545 15.6874C7.44557 15.8876 7.71698 16 7.99999 16C8.283 16 8.55443 15.8876 8.75455 15.6874C8.95467 15.4873 9.06708 15.2159 9.06708 14.9329V9.06708H14.9329C15.2159 9.06708 15.4873 8.95467 15.6874 8.75455C15.8876 8.55443 16 8.283 16 7.99999C16 7.71698 15.8876 7.44557 15.6874 7.24545C15.4873 7.04533 15.2159 6.93292 14.9329 6.93292H9.06708V1.0671C9.06708 0.784086 8.95467 0.512676 8.75455 0.312557C8.55443 0.112438 8.283 0 7.99999 0Z" fill="#3422F2"/>
</svg>
