<svg width="36" height="34" viewBox="0 0 36 34" fill="none" xmlns="http://www.w3.org/2000/svg">
<path d="M28.3531 32.6282C28.2731 32.6282 28.1938 32.6076 28.1177 32.567L18.7057 27.5487C18.4893 27.4333 18.2453 27.3723 18 27.3723C17.7547 27.3723 17.5107 27.4333 17.2943 27.5487L7.88236 32.567C7.80618 32.6076 7.72695 32.6282 7.64688 32.6282C7.49967 32.6282 7.35381 32.5576 7.2567 32.4394C7.19005 32.3583 7.11858 32.2212 7.1566 32.0288L9.15819 21.9008C9.25954 21.3881 9.08214 20.8512 8.6952 20.4997L0.953327 13.4676C0.732837 13.2673 0.790217 13.0176 0.813057 12.9458C0.835897 12.8741 0.933397 12.6371 1.22909 12.6011L11.8194 11.3119C12.3276 11.25 12.7643 10.9381 12.9877 10.4776L17.5501 1.07287C17.6357 0.896443 17.8039 0.791103 18 0.791103C18.1961 0.791103 18.3643 0.896443 18.4499 1.07287L23.0123 10.4776C23.2357 10.9381 23.6724 11.25 24.1806 11.3119L34.7709 12.6011C35.0666 12.6371 35.1641 12.8741 35.187 12.9458C35.2098 13.0176 35.2672 13.2673 35.0467 13.4676L27.3048 20.4997C26.9179 20.8511 26.7405 21.388 26.8418 21.9008L28.8434 32.0288C28.8814 32.2212 28.81 32.3583 28.7433 32.4394C28.6462 32.5576 28.5003 32.6282 28.3531 32.6282Z" fill="#F4F4F4"/>
<path d="M17.9998 1.2911L13.4374 10.6958C13.1395 11.3099 12.5572 11.7257 11.8796 11.8082L1.28929 13.0975C1.28929 13.0975 1.28928 13.0975 1.28928 13.0975C1.28928 13.0975 1.28928 13.0975 1.28928 13.0975L9.03115 20.1296C9.54707 20.5982 9.78361 21.3141 9.64848 21.9978L7.64688 32.1258L17.0588 27.1075C17.3474 26.9536 17.6727 26.8723 17.9998 26.8723C18.3268 26.8723 18.6522 26.9536 18.9408 27.1075L28.3527 32.1257C28.3527 32.1257 28.3527 32.1257 28.3527 32.1258L26.3511 21.9978C26.216 21.314 26.4525 20.5982 26.9684 20.1296L34.7103 13.0975C34.7103 13.0975 34.7103 13.0975 34.7103 13.0975L24.1199 11.8082C23.4424 11.7257 22.8601 11.3099 22.5622 10.6958L17.9998 1.29111C17.9998 1.29111 17.9998 1.29111 17.9998 1.2911ZM17.9998 0.291107C18.3585 0.291107 18.7172 0.478951 18.8995 0.854633L23.4619 10.2593C23.6102 10.565 23.9035 10.7745 24.2408 10.8155L34.8311 12.1048C35.6809 12.2083 36.0163 13.2621 35.3826 13.8377L27.6408 20.8698C27.3813 21.1055 27.2641 21.46 27.3321 21.8039L29.3337 31.9319C29.4972 32.7591 28.6263 33.4049 27.8822 33.0082L18.4703 27.9899C18.1762 27.8331 17.8234 27.8331 17.5293 27.9899L8.11737 33.0082C7.37327 33.4049 6.50237 32.7591 6.66586 31.9319L8.66745 21.8039C8.73543 21.46 8.61831 21.1055 8.35879 20.8698L0.61692 13.8377C-0.0167589 13.2621 0.318641 12.2083 1.16843 12.1048L11.7588 10.8155C12.096 10.7745 12.3894 10.565 12.5377 10.2593L17.1001 0.854633C17.2823 0.478951 17.641 0.291107 17.9998 0.291107Z" fill="#D9D9D9"/>
</svg>
