<svg width="35" height="34" viewBox="0 0 35 34" fill="none" xmlns="http://www.w3.org/2000/svg">
<path d="M27.5502 32.6048C27.4683 32.6048 27.3876 32.5833 27.3101 32.5409L18.2206 27.5635C18.0004 27.4429 17.7513 27.3792 17.5002 27.3792C17.2491 27.3792 17 27.4429 16.7797 27.5635L7.69024 32.5409C7.61281 32.5833 7.53203 32.6048 7.45017 32.6048C7.30324 32.6048 7.15751 32.5345 7.06035 32.4169C6.99376 32.3363 6.92214 32.1999 6.95909 32.0078L8.9066 21.8872C9.00475 21.3772 8.83661 20.8612 8.45684 20.5069L0.904469 13.4615C0.688629 13.2602 0.746859 13.0129 0.769849 12.9419C0.792839 12.8709 0.890609 12.6364 1.18351 12.5998L11.4668 11.314C11.9791 11.25 12.4165 10.9331 12.637 10.4663L17.0481 1.12784C17.1736 0.862054 17.4259 0.841404 17.5002 0.841404C17.5745 0.841404 17.8267 0.862054 17.9523 1.12784L22.3633 10.4663C22.5838 10.9331 23.0213 11.25 23.5335 11.314L33.8169 12.5998C34.1098 12.6364 34.2075 12.8709 34.2305 12.9419C34.2535 13.0129 34.3117 13.2602 34.0959 13.4615L26.5435 20.5069C26.1638 20.8612 25.9956 21.3772 26.0938 21.8872L28.0413 32.0078C28.0782 32.1998 28.0066 32.3362 27.94 32.4168C27.8428 32.5345 27.6971 32.6048 27.5502 32.6048Z" fill="#FDF239"/>
<path d="M17.5 1.3414L17.5 1.3414L13.0889 10.6798C12.7949 11.3022 12.2116 11.7248 11.5287 11.8102L1.24533 13.0959C1.24533 13.0959 1.24533 13.0959 1.24533 13.0959L8.7977 20.1413C9.30406 20.6137 9.52824 21.3017 9.39738 21.9817L7.44987 32.1023L16.5394 27.125C16.833 26.9642 17.1652 26.8792 17.5 26.8792C17.8348 26.8792 18.1669 26.9642 18.4606 27.125L27.5501 32.1023C27.5501 32.1023 27.5501 32.1023 27.5501 32.1023L25.6026 21.9817C25.4717 21.3016 25.6959 20.6136 26.2023 20.1413L33.7546 13.0959C33.7546 13.0959 33.7546 13.0959 33.7546 13.0959L23.4713 11.8102C22.7883 11.7248 22.205 11.3022 21.911 10.6798L17.5 1.3414L17.5 1.3414ZM17.5 0.3414C17.8619 0.3414 18.2238 0.532364 18.4042 0.914295L22.8152 10.2527C22.9614 10.5622 23.2557 10.7754 23.5954 10.8179L33.8787 12.1036C34.7205 12.2089 35.0571 13.2485 34.4368 13.8271L26.8844 20.8725C26.6328 21.1072 26.5195 21.4548 26.5846 21.7927L28.5321 31.9134C28.692 32.7443 27.8119 33.3858 27.0698 32.9794L17.9803 28.0021C17.681 27.8382 17.3189 27.8382 17.0197 28.0021L7.93017 32.9794C7.18803 33.3858 6.308 32.7443 6.46789 31.9134L8.4154 21.7927C8.48042 21.4548 8.36716 21.1072 8.11556 20.8725L0.56319 13.8271C-0.0571106 13.2485 0.27951 12.2089 1.12126 12.1036L11.4046 10.8179C11.7442 10.7754 12.0385 10.5622 12.1847 10.2527L16.5958 0.914295C16.7762 0.532364 17.1381 0.3414 17.5 0.3414Z" fill="#707070"/>
</svg>
