<svg width="21" height="23" viewBox="0 0 21 23" fill="none" xmlns="http://www.w3.org/2000/svg">
<path d="M10.3369 11.0149C11.0617 11.0247 11.7808 10.8865 12.4504 10.6088C13.1199 10.3311 13.7258 9.91975 14.2309 9.39987C14.7504 8.89459 15.1614 8.28866 15.4387 7.61912C15.7161 6.94958 15.8539 6.23051 15.8439 5.50588C15.8537 4.78117 15.7157 4.06208 15.4382 3.39254C15.1607 2.72301 14.7495 2.11711 14.2299 1.61188C13.7186 1.1004 13.1115 0.694657 12.4434 0.417836C11.7752 0.141015 11.0591 -0.00146484 10.3359 -0.00146484C9.61268 -0.00146484 8.89654 0.141015 8.2284 0.417836C7.56025 0.694657 6.95319 1.1004 6.44189 1.61188C5.9222 2.11707 5.51102 2.72297 5.23351 3.39251C4.95599 4.06205 4.81798 4.78117 4.82789 5.50588C4.8181 6.23066 4.95629 6.94981 5.23397 7.61936C5.51166 8.28891 5.92302 8.89476 6.44289 9.39987C6.94807 9.91965 7.55395 10.331 8.22348 10.6086C8.89301 10.8863 9.61213 11.0245 10.3369 11.0149ZM7.39089 2.56088C7.77777 2.17382 8.23711 1.86678 8.74268 1.65729C9.24825 1.44781 9.79014 1.33999 10.3374 1.33999C10.8846 1.33999 11.4265 1.44781 11.9321 1.65729C12.4377 1.86678 12.897 2.17382 13.2839 2.56088C13.6794 2.94128 13.9921 3.39934 14.2022 3.90631C14.4123 4.41327 14.5154 4.95819 14.5049 5.50688C14.5155 6.05572 14.4125 6.60084 14.2024 7.10798C13.9923 7.61513 13.6796 8.07335 13.2839 8.45388C12.897 8.84093 12.4377 9.14797 11.9321 9.35746C11.4265 9.56694 10.8846 9.67476 10.3374 9.67476C9.79014 9.67476 9.24825 9.56694 8.74268 9.35746C8.23711 9.14797 7.77777 8.84093 7.39089 8.45388C6.99518 8.07339 6.68244 7.61517 6.47232 7.10802C6.26219 6.60086 6.15923 6.05573 6.16989 5.50688C6.15937 4.95819 6.26239 4.41325 6.47251 3.90627C6.68263 3.3993 6.99531 2.94125 7.39089 2.56088Z" fill="#474747"/>
<path d="M19.9739 17.5827C19.9381 17.098 19.8763 16.6157 19.7889 16.1377C19.7025 15.6461 19.5839 15.1607 19.4339 14.6847C19.2811 14.2135 19.0801 13.7594 18.8339 13.3297C18.5924 12.8967 18.2892 12.5013 17.9339 12.1557C17.5593 11.8034 17.1198 11.5273 16.6399 11.3427C16.1134 11.1393 15.5532 11.0375 14.9889 11.0427C14.6578 11.0771 14.3445 11.2094 14.0889 11.4227C13.8209 11.5977 13.5069 11.7997 13.1569 12.0227C12.7781 12.2492 12.3726 12.4279 11.9499 12.5547C10.9919 12.8726 9.95685 12.8726 8.99887 12.5547C8.57643 12.4283 8.17133 12.2499 7.79287 12.0237C7.44587 11.8017 7.13187 11.5997 6.85987 11.4237C6.6057 11.2112 6.29423 11.079 5.96487 11.0437C5.40052 11.0384 4.84029 11.1402 4.31387 11.3437C3.83393 11.5283 3.39445 11.8044 3.01987 12.1567C2.66457 12.5019 2.36139 12.8971 2.11987 13.3297C1.87372 13.7595 1.67266 14.2135 1.51987 14.6847C1.36992 15.1604 1.25133 15.6454 1.16487 16.1367C1.07726 16.6147 1.01551 17.097 0.979866 17.5817C0.949866 18.0187 0.933866 18.4727 0.933866 18.9317C0.910441 19.4628 0.998734 19.993 1.19304 20.4879C1.38734 20.9827 1.68333 21.4313 2.06187 21.8047C2.85265 22.5277 3.89726 22.9087 4.96787 22.8647H15.9779C17.0485 22.9086 18.093 22.5276 18.8839 21.8047C19.2624 21.4313 19.5584 20.9827 19.7527 20.4879C19.947 19.993 20.0353 19.4628 20.0119 18.9317C20.0119 18.4707 19.9959 18.0167 19.9659 17.5807L19.9739 17.5827ZM17.9679 20.8357C17.6993 21.0758 17.386 21.2604 17.0458 21.379C16.7057 21.4976 16.3455 21.5478 15.9859 21.5267H4.97587C4.61633 21.5479 4.25614 21.4979 3.916 21.3795C3.57585 21.2611 3.26247 21.0766 2.99387 20.8367C2.74789 20.5881 2.55729 20.2903 2.43457 19.9629C2.31186 19.6354 2.25982 19.2857 2.28187 18.9367C2.28187 18.5087 2.29587 18.0847 2.32387 17.6787C2.35617 17.2427 2.41192 16.8087 2.49087 16.3787C2.56676 15.9453 2.67098 15.5174 2.80287 15.0977C2.92667 14.7153 3.08953 14.3467 3.28887 13.9977C3.46652 13.6782 3.6895 13.3862 3.95087 13.1307C4.20052 12.8983 4.49293 12.7166 4.81187 12.5957C5.14913 12.4678 5.50621 12.4001 5.86687 12.3957C5.91387 12.4207 5.99687 12.4687 6.13287 12.5567C6.40787 12.7367 6.72587 12.9407 7.07687 13.1647C7.55125 13.4527 8.05989 13.6802 8.59087 13.8417C9.81701 14.2464 11.1407 14.2464 12.3669 13.8417C12.8982 13.6802 13.4071 13.4528 13.8819 13.1647C14.2409 12.9347 14.5499 12.7367 14.8249 12.5567C14.9599 12.4687 15.0439 12.4207 15.0909 12.3957C15.4519 12.4 15.8093 12.4677 16.1469 12.5957C16.4654 12.7168 16.7574 12.8985 17.0069 13.1307C17.2683 13.3861 17.4913 13.6781 17.6689 13.9977C17.8683 14.3466 18.0312 14.7152 18.1549 15.0977C18.2872 15.5174 18.3917 15.9453 18.4679 16.3787C18.5466 16.8087 18.6024 17.2427 18.6349 17.6787C18.6629 18.0787 18.6779 18.5057 18.6779 18.9357C18.6999 19.2847 18.6479 19.6344 18.5252 19.9619C18.4024 20.2893 18.2118 20.5871 17.9659 20.8357H17.9679Z" fill="#474747"/>
</svg>
