<svg width="62" height="18" viewBox="0 0 62 18" fill="none" xmlns="http://www.w3.org/2000/svg">
<path d="M22.9724 17.3366L26.0304 0.55957H30.8083L27.8458 17.3366H22.9724Z" fill="white"/>
<path d="M22.9724 17.3366L26.8896 0.55957H30.8068L27.8443 17.3366H22.9724Z" fill="white"/>
<path d="M45.1389 0.746012C43.7335 0.234417 42.2429 -0.0181845 40.7429 0.00101804C35.965 0.00101804 32.5251 2.33059 32.5251 5.686C32.5251 8.20327 34.9134 9.50705 36.8242 10.3466C38.7351 11.1862 39.3079 11.7449 39.3079 12.4957C39.3079 13.6146 37.7789 14.1734 36.4409 14.1734C34.859 14.2074 33.2901 13.8884 31.8539 13.2407L31.1856 12.9542L30.5203 16.7781C32.2636 17.405 34.1084 17.7209 35.9664 17.7108C41.0308 17.7108 44.3752 15.3812 44.3752 11.8366C44.3752 9.87955 43.1326 8.38811 40.2626 7.17603C38.5427 6.33646 37.491 5.87083 37.491 5.02696C37.491 4.28195 38.3503 3.53551 40.2626 3.53551C41.5066 3.49887 42.7443 3.7211 43.8934 4.1874L44.3707 4.37363L45.1345 0.738864L45.1389 0.746012Z" fill="white"/>
<path d="M45.1389 0.746012C43.7335 0.234417 42.2429 -0.0181845 40.7429 0.00101804C35.965 0.00101804 33.3858 2.33059 33.3858 5.686C33.3791 6.71814 33.7085 7.72571 34.3268 8.56336C34.945 9.40101 35.8201 10.0255 36.8257 10.3466C38.7351 11.1848 39.3094 11.7449 39.3094 12.4957C39.3094 13.6146 37.7804 14.1734 36.4423 14.1734C34.8605 14.2074 33.2916 13.8884 31.8554 13.2407L31.1871 12.9542L30.5203 16.7781C32.2636 17.405 34.1084 17.7209 35.9664 17.7108C41.0308 17.7108 44.3752 15.3812 44.3752 11.8366C44.3752 9.87955 43.1326 8.38811 40.2626 7.17603C38.5427 6.33646 37.491 5.87083 37.491 5.02696C37.491 4.28195 38.3503 3.53551 40.2626 3.53551C41.5066 3.49887 42.7443 3.7211 43.8934 4.1874L44.3707 4.37363L45.1345 0.738864L45.1389 0.746012Z" fill="white"/>
<path d="M53.3586 0.55957C52.2115 0.55957 51.3522 0.652708 50.8749 1.77166L43.7073 17.3366H48.8671L49.8232 14.54H55.9392L56.512 17.3366H61.099L57.0863 0.55957H53.3586ZM51.1554 11.7448C51.4492 10.9066 53.0648 6.80477 53.0648 6.80477C53.0648 6.80477 53.4467 5.77894 53.7331 5.12706L54.0268 6.71164C54.0268 6.71164 54.983 10.9052 55.174 11.8379H51.1613L51.1554 11.7448Z" fill="white"/>
<path d="M54.5042 0.55957C53.3571 0.55957 52.4979 0.652708 52.0205 1.77166L43.7073 17.3366H48.8671L49.8232 14.54H55.9392L56.512 17.3366H61.099L57.0863 0.55957H54.5042ZM51.1598 11.7448C51.5417 10.8121 53.0692 6.80477 53.0692 6.80477C53.0692 6.80477 53.4511 5.77894 53.7375 5.12706L54.0312 6.71164C54.0312 6.71164 54.9874 10.9052 55.1784 11.8379H51.1657L51.1598 11.7448Z" fill="white"/>
<path d="M14.182 12.3036L13.7046 9.88094C12.5033 6.69297 10.1153 4.06324 7.01587 2.51536L11.315 17.4285H16.4747L24.2151 0.652832H19.0598L14.182 12.3036Z" fill="white"/>
<path d="M14.182 12.3036L13.7046 9.88094C12.5033 6.69297 10.1153 4.06324 7.01587 2.51536L11.315 17.4285H16.4747L24.2151 0.652832H20.0115L14.182 12.3036Z" fill="white"/>
<path d="M0.899902 0.559526L1.75913 0.745786C7.87508 2.14411 12.0787 5.68578 13.7032 9.87932L11.9832 1.95643C11.6895 0.837481 10.8361 0.558105 9.78008 0.558105L0.899902 0.559526Z" fill="white"/>
<path d="M0.899902 0.55957C7.01586 1.9579 12.0787 5.59269 13.7032 9.78624L12.0787 3.16854C11.9608 2.6626 11.6692 2.21118 11.2522 1.8891C10.8352 1.56702 10.3178 1.39363 9.78595 1.39772L0.899902 0.55957Z" fill="white"/>
<path d="M0.899902 0.55957C7.01586 1.9579 12.0787 5.59269 13.7032 9.78624L12.5575 6.14716C12.501 5.56283 12.2852 5.00392 11.9323 4.52849C11.5795 4.05307 11.1026 3.67846 10.5512 3.44362L0.899902 0.55957Z" fill="white"/>
<path d="M18.9596 11.7451L15.7107 8.5759L14.1817 12.1176L13.7999 9.78797C12.5982 6.60053 10.2102 3.97136 7.11108 2.42383L11.4102 17.3369H16.57L18.9596 11.7451Z" fill="white"/>
<path d="M27.846 17.3353L23.7335 13.2349L22.9697 17.3353H27.846Z" fill="white"/>
<path d="M38.835 11.5571C39.2168 11.9296 39.4078 12.209 39.3123 12.583C39.3123 13.7019 37.7833 14.2607 36.4453 14.2607C34.8634 14.2946 33.2945 13.9756 31.8583 13.328L31.19 13.0414L30.5217 16.8696C32.2651 17.4966 34.1099 17.8125 35.9679 17.8023C37.2312 17.8892 38.4996 17.7278 39.6977 17.3276C40.8959 16.9275 41.9995 16.2967 42.9431 15.4727L38.835 11.5571Z" fill="white"/>
<path d="M44.3767 17.3365H48.8682L49.8244 14.5399H55.9403L56.5131 17.3365H61.1001L59.4756 10.5326L53.7475 5.12695L54.0412 6.61841C54.0412 6.61841 54.9974 10.8119 55.1883 11.7446H51.1756C51.5575 10.8119 53.085 6.80464 53.085 6.80464C53.085 6.80464 53.4669 5.77884 53.7533 5.12695" fill="white"/>
</svg>
